<?xml version="1.0" standalone="no"?>
<!DOCTYPE svg PUBLIC "-//W3C//DTD SVG 1.1//EN" "http://www.w3.org/Graphics/SVG/1.1/DTD/svg11.dtd" >
<svg xmlns="http://www.w3.org/2000/svg" xmlns:xlink="http://www.w3.org/1999/xlink" version="1.1">
<metadata>
Created by FontForge 20201107 at Fri Apr  4 05:41:52 2014
 By 
(c) 2008 Adobe Systems Incorporated. All Rights Reserved.
</metadata>
<defs>
<font id="AdobeClean-ExtraBold" horiz-adv-x="389" >
  <font-face 
    font-family="Adobe Clean ExtraBold"
    font-weight="800"
    font-stretch="normal"
    units-per-em="1000"
    panose-1="2 11 9 3 2 4 4 2 2 4"
    ascent="730"
    descent="-270"
    x-height="497"
    cap-height="655"
    bbox="-191.6 -242 1195 991"
    underline-thickness="50"
    underline-position="-100"
    unicode-range="U+000D-FB04"
  />
<missing-glyph horiz-adv-x="500" 
d="M0 700h500v-700h-500v700zM420 50l-170 255l-170 -255h340zM450 95v510l-171 -255zM50 95l170 255l-170 255v-510zM250 395l170 255h-340z" />
    <glyph glyph-name="f_f" unicode="ff" horiz-adv-x="587" 
d="M4 489q0 8 8 8h58v26q0 28 5 55t16 50q20 42 58.5 66.5t98.5 24.5q22 0 33 -2t19 -5q7 -2 7 -11v-100q0 -3 -1.5 -5.5t-6.5 -0.5q-9 3 -17 3.5t-16 0.5q-28 0 -42.5 -16.5t-14.5 -54.5v-31h156v29q0 49 13.5 85t37 60t55 36t67.5 12q41 0 58 -7q5 -2 5.5 -4t0.5 -7v-98
q0 -10 -7 -7q-14 3 -32 3q-12 0 -23 -2t-19 -10t-13 -23t-5 -40l1 -27h86q8 0 8 -7v-101q0 -7 -8 -8h-86v-372q0 -4 -1.5 -6.5t-7.5 -2.5h-121q-9 0 -9 9v372h-156v-371q0 -10 -9 -10h-120q-10 0 -10 10v371h-60q-6 0 -6 7v101z" />
    <glyph glyph-name="f_f_i" unicode="ffi" horiz-adv-x="859" 
d="M361 497v29q1 49 14.5 85t37 60t55 36t67.5 12q41 0 58 -7q5 -2 5.5 -4t0.5 -7v-98q0 -10 -8 -7q-12 3 -31 3q-12 0 -23 -2t-19.5 -10t-13 -23t-4.5 -40l1 -27h86q7 0 7 -7v-101q0 -7 -7 -8h-86v-372q0 -4 -1.5 -6.5t-7.5 -2.5h-121q-9 0 -9 9v372h-153v-371
q0 -10 -9 -10h-120q-10 0 -10 10v371h-60q-6 0 -6 7v101q0 8 8 8h58v26q0 28 5 55t16 50q20 42 58.5 66.5t98.5 24.5q22 0 33 -2t19 -5q7 -2 7 -11v-100q0 -3 -1.5 -5.5t-6.5 -0.5q-9 3 -17 3.5t-16 0.5q-28 0 -42.5 -16.5t-14.5 -54.5v-31h152zM660 489q0 8 8 8h123
q8 0 8 -8v-480q0 -5 -1.5 -7t-7.5 -2h-120q-10 0 -10 9v480zM730 550q-35 0 -56 21.5t-21 56.5q0 34 22 55.5t56 21.5q36 0 56.5 -21.5t20.5 -55.5q0 -35 -21.5 -56.5t-56.5 -21.5z" />
    <glyph glyph-name="f_f_l" unicode="ffl" horiz-adv-x="876" 
d="M362 497v29q0 49 14 85t37 60t55 36t68 12q41 0 58 -7q5 -2 5.5 -4t0.5 -7v-98q0 -10 -8 -7q-12 3 -31 3q-12 0 -23 -2t-19.5 -10t-13 -23t-4.5 -40l1 -27h86q7 0 7 -7v-101q0 -7 -7 -8h-86v-372q0 -4 -1.5 -6.5t-7.5 -2.5h-121q-9 0 -9 9v372h-154v-371q0 -10 -9 -10
h-120q-10 0 -10 10v371h-60q-6 0 -6 7v101q0 8 8 8h58v26q0 28 5 55t16 50q20 42 58.5 66.5t98.5 24.5q22 0 33 -2t19 -5q7 -2 7 -11v-100q0 -3 -1.5 -5.5t-6.5 -0.5q-9 3 -17 3.5t-16 0.5q-28 0 -42.5 -16.5t-14.5 -54.5v-31h153zM660 701q0 8 10 8h119q10 0 10 -8v-560
q0 -21 7.5 -29.5t25.5 -8.5h8.5t9.5 1q5 0 5 -7v-86q0 -10 -7 -12q-9 -4 -24 -6.5t-38 -2.5q-27 0 -50 6t-40 21.5t-26.5 42t-9.5 68.5v573z" />
    <glyph glyph-name="T_h" unicode="Th" horiz-adv-x="1084" 
d="M208 530h-198q-8 0 -6 10l15 114q1 9 10 9h504q8 0 10 -9v-114q2 -10 -8 -10h-188v-520q0 -10 -9 -10h-120q-10 -1 -10 9v521zM723 8q0 -8 -7 -8h-123q-9 0 -9 8v694q0 7 9 7h123q7 0 7 -7v-236q27 18 58.5 29.5t73.5 11.5q29 0 59 -9t54.5 -31.5t40 -61.5t15.5 -99v-297
q0 -9 -9 -9h-121q-10 0 -10 9v283q0 94 -78 94q-48 0 -83 -25v-353z" />
    <glyph glyph-name="Tcaron_h" unicode="&#x164;h" horiz-adv-x="1084" 
d="M208 530h-198q-8 0 -6 10l15 114q1 9 10 9h504q8 0 10 -9v-114q2 -10 -8 -10h-188v-520q0 -10 -9 -10h-120q-10 -1 -10 9v521zM723 8q0 -8 -7 -8h-123q-9 0 -9 8v694q0 7 9 7h123q7 0 7 -7v-236q27 18 58.5 29.5t73.5 11.5q29 0 59 -9t54.5 -31.5t40 -61.5t15.5 -99v-297
q0 -9 -9 -9h-121q-10 0 -10 9v283q0 94 -78 94q-48 0 -83 -25v-353zM265 776l57 60q6 6 11 6h103q3 0 4 -3.5t-1 -5.5l-115 -119l-4.5 -3t-6.5 -1h-102q-10 0 -13 5l-119 120q-2 2 -1 4.5t5 2.5h111q5 0 7.5 -2t5.5 -4z" />
    <glyph glyph-name="uni021A_h" unicode="&#x21a;h" horiz-adv-x="1084" 
d="M208 530h-198q-8 0 -6 10l15 114q1 9 10 9h504q8 0 10 -9v-114q2 -10 -8 -10h-188v-520q0 -10 -9 -10h-120q-10 -1 -10 9v521zM723 8q0 -8 -7 -8h-123q-9 0 -9 8v694q0 7 9 7h123q7 0 7 -7v-236q27 18 58.5 29.5t73.5 11.5q29 0 59 -9t54.5 -31.5t40 -61.5t15.5 -99v-297
q0 -9 -9 -9h-121q-10 0 -10 9v283q0 94 -78 94q-48 0 -83 -25v-353zM184 -225q-4 0 -5 3t1 5q21 32 28.5 57.5t7.5 49.5q0 14 -4 30t-12 35q-2 6 4 6h115q6 0 11 -6q6 -10 11 -26t5 -33q0 -37 -11.5 -64.5t-34.5 -53.5q-3 -3 -11 -3h-105z" />
    <glyph glyph-name="f_b" unicode="fb" horiz-adv-x="860" 
d="M11 381q-7 1 -7 8v101q0 7 7 7h59v26q0 28 5 55t16 50q20 42 58.5 66.5t98.5 24.5q22 0 33 -2t19 -5q7 -2 7 -11v-100q0 -3 -1.5 -5.5t-6.5 -0.5q-9 3 -17 3.5t-17 0.5q-27 0 -41.5 -16.5t-14.5 -54.5v-31h85q8 0 8 -7v-101q0 -7 -8 -8h-85v-372q0 -4 -1.5 -6.5
t-7.5 -2.5h-121q-9 0 -9 9v372h-59zM494 709q10 0 10 -8l1 -205q39 11 83 11q55 0 100 -18.5t76 -50.5t48 -75.5t17 -93.5q0 -70 -25.5 -122.5t-68 -87t-96.5 -52t-111 -17.5q-40 0 -79 5.5t-77 17.5q-7 2 -7 10v679q0 7 8 7h121zM687 256q0 68 -35.5 100.5t-88.5 32.5
q-23 0 -35.5 -3t-22.5 -5v-271q16 -4 37 -4q28 0 54 9t46 27t32.5 46.5t12.5 67.5z" />
    <glyph glyph-name="f_h" unicode="fh" horiz-adv-x="864" 
d="M11 381q-7 1 -7 8v101q0 7 7 7h59v26q0 28 5 55t16 50q20 42 58.5 66.5t98.5 24.5q22 0 33 -2t19 -5q7 -2 7 -11v-100q0 -3 -1.5 -5.5t-6.5 -0.5q-9 3 -17 3.5t-16 0.5q-28 0 -42.5 -16.5t-14.5 -54.5v-31h85q8 0 8 -7v-101q0 -7 -8 -8h-85v-372q0 -4 -1.5 -6.5
t-7.5 -2.5h-121q-9 0 -9 9v372h-59zM503 8q0 -8 -7 -8h-123q-9 0 -9 8v694q0 7 9 7h123q7 0 7 -7v-236q27 18 58.5 29.5t73.5 11.5q29 0 59 -9t54.5 -31.5t40 -61.5t15.5 -99v-297q0 -9 -9 -9h-121q-9 0 -9 9v283q0 94 -79 94q-48 0 -83 -25v-353z" />
    <glyph glyph-name="f_i" unicode="fi" horiz-adv-x="563" 
d="M365 489q0 8 9 8h123q8 0 8 -8v-480q0 -9 -9 -9h-120q-11 0 -11 9v480zM436 550q-34 0 -55 21t-21 55t21.5 55.5t55.5 21.5q35 0 55 -21.5t20 -55.5q0 -35 -21 -55.5t-55 -20.5zM11 381q-7 1 -7 8v101q0 7 7 7h59v26q0 28 5 55t16 50q20 42 58.5 66.5t98.5 24.5
q22 0 33 -2t19 -5q7 -2 7 -11v-100q0 -3 -1.5 -5.5t-6.5 -0.5q-9 3 -17 3.5t-16 0.5q-28 0 -42.5 -16.5t-14.5 -54.5v-31h85q8 0 8 -7v-101q0 -7 -8 -8h-85v-372q0 -4 -1.5 -6.5t-7.5 -2.5h-121q-9 0 -9 9v372h-59z" />
    <glyph glyph-name="f_j" unicode="fj" horiz-adv-x="564" 
d="M11 381q-7 1 -7 8v101q0 7 7 7h59v26q0 28 5 55t16 50q20 42 58.5 66.5t98.5 24.5q22 0 33 -2t19 -5q7 -2 7 -11v-100q0 -3 -1.5 -5.5t-6.5 -0.5q-9 3 -17 3.5t-16 0.5q-28 0 -42.5 -16.5t-14.5 -54.5v-31h85q8 0 8 -7v-101q0 -7 -8 -8h-85v-372q0 -4 -1.5 -6.5
t-7.5 -2.5h-121q-9 0 -9 9v372h-59zM496 497q8 0 8 -8v-448q0 -41 -3 -71t-9 -52t-15.5 -39t-22.5 -33t-30.5 -27t-36.5 -17.5t-38.5 -9.5t-36.5 -3h-12.5t-13.5 1q-9 1 -9 10v102q0 8 8 8q38 0 59 19t21 74v486q0 8 10 8h121zM435 550q-35 0 -56 21.5t-21 56.5
q0 34 22 55.5t56 21.5q36 0 56.5 -21.5t20.5 -55.5q0 -35 -21.5 -56.5t-56.5 -21.5z" />
    <glyph glyph-name="f_k" unicode="fk" horiz-adv-x="821" 
d="M70 523q0 28 5 55t16 50q20 42 58.5 66.5t98.5 24.5q22 0 33 -2t19 -5q7 -2 7 -11v-100q0 -3 -1.5 -5.5t-6.5 -0.5q-9 3 -17 3.5t-16 0.5q-28 0 -42.5 -16.5t-14.5 -54.5v-31h85q8 0 8 -7v-101q0 -7 -8 -8h-85v-372q0 -4 -1.5 -6.5t-7.5 -2.5h-121q-9 0 -9 9v372h-59
q-7 1 -7 8v101q0 7 7 7h59v26zM814 497q5 0 7 -3t-2 -7q-11 -14 -36.5 -43t-54.5 -61t-56 -62t-42 -45v-4q22 -27 49.5 -61t57 -69.5t57.5 -70t52 -62.5q3 -2 1 -5.5t-7 -3.5h-158q-5 0 -7.5 2t-5.5 5q-12 14 -32.5 40.5t-44 57.5l-47 62t-41.5 54v-211q0 -10 -9 -10h-120
q-7 0 -8.5 2.5t-1.5 7.5v691q0 3 1.5 5.5t7.5 2.5h121q9 0 9 -8v-411q20 23 45.5 53.5t49.5 60t44 53t28 33.5q6 7 14 7h129z" />
    <glyph glyph-name="f_l" unicode="fl" horiz-adv-x="583" 
d="M11 381q-7 1 -7 8v101q0 7 7 7h59v26q0 28 5 55t16 50q20 42 58.5 66.5t98.5 24.5q22 0 33 -2t19 -5q7 -2 7 -11v-100q0 -3 -1.5 -5.5t-6.5 -0.5q-9 3 -17 3.5t-16 0.5q-28 0 -42.5 -16.5t-14.5 -54.5v-31h85q8 0 8 -7v-101q0 -7 -8 -8h-85v-372q0 -4 -1.5 -6.5
t-7.5 -2.5h-121q-9 0 -9 9v372h-59zM366 701q0 8 10 8h120q9 0 9 -8v-560q0 -21 7.5 -29.5t25.5 -8.5h9t9 1q5 0 5 -7v-86q0 -10 -6 -12q-10 -4 -24.5 -6.5t-38.5 -2.5q-27 0 -50 6t-40 21.5t-26.5 42t-9.5 68.5v573z" />
    <glyph glyph-name="f_t" unicode="ft" horiz-adv-x="621" 
d="M366 497q0 13 1 29.5t2.5 33t3.5 32t4 25.5q1 9 8 10l118 15q8 2 8 -6q-1 -12 -2 -28t-2 -34.5t-1.5 -38.5t-0.5 -38h93q8 0 8 -8v-101q0 -6 -7 -7h-95v-213q0 -33 11.5 -49t43.5 -16q9 0 18 2t21 5q7 2 7 -7v-83q0 -11 -7 -13q-21 -10 -44 -13.5t-50 -3.5
q-66 0 -102.5 34t-36.5 109v248h-156v-371q0 -10 -9 -10h-121q-9 0 -9 9v372h-59q-7 1 -7 9v99q0 8 8 8h58v26q0 28 5 55t16 50q20 42 58.5 66.5t98.5 24.5q22 0 33 -2t19 -5q7 -2 7 -11v-101q0 -3 -1.5 -5.5t-5.5 -0.5q-9 3 -17.5 4t-16.5 1q-28 0 -42.5 -15.5t-14.5 -53.5
v-33h157z" />
    <glyph glyph-name="f_f_b" unicode="ffb" horiz-adv-x="1155" 
d="M365 497v29q0 49 13.5 85t37 60t55 36t67.5 12q41 0 58 -7q5 -2 5.5 -4t0.5 -7v-98q0 -10 -7 -7q-14 3 -32 3q-12 0 -23 -2t-19 -10t-13 -23t-5 -40l1 -27h86q8 0 8 -7v-101q0 -7 -8 -8h-86v-372q0 -4 -1.5 -6.5t-7.5 -2.5h-121q-9 0 -9 9v372h-156v-371q0 -10 -9 -10
h-120q-10 0 -10 10v371h-60q-6 0 -6 7v101q0 8 8 8h58v26q0 28 5 55t16 50q20 42 58.5 66.5t98.5 24.5q22 0 33 -2t19 -5q7 -2 7 -11v-100q0 -3 -1.5 -5.5t-6.5 -0.5q-9 3 -17 3.5t-16 0.5q-28 0 -42.5 -16.5t-14.5 -54.5v-31h156zM790 709q6 0 7.5 -1.5t1.5 -6.5l1 -205
q39 11 84 11q55 0 99.5 -18.5t75.5 -50.5t48 -75.5t17 -93.5q0 -70 -25.5 -122.5t-67.5 -87t-96 -52t-111 -17.5q-40 0 -79.5 5.5t-77.5 17.5q-3 1 -4.5 4t-1.5 6v679q0 7 7 7h122zM982 256q0 68 -35.5 100.5t-88.5 32.5q-23 0 -35.5 -3t-22.5 -5v-271q16 -4 37 -4
q28 0 54.5 9t46.5 27t32 46.5t12 67.5z" />
    <glyph glyph-name="f_f_h" unicode="ffh" horiz-adv-x="1159" 
d="M365 497v29q0 49 13.5 85t37 60t55 36t67.5 12q41 0 58 -7q5 -2 5.5 -4t0.5 -7v-98q0 -10 -7 -7q-14 3 -32 3q-12 0 -23 -2t-19 -10t-13 -23t-5 -40l1 -27h86q8 0 8 -7v-101q0 -7 -8 -8h-86v-372q0 -4 -1.5 -6.5t-7.5 -2.5h-121q-9 0 -9 9v372h-156v-371q0 -10 -9 -10
h-120q-10 0 -10 10v371h-60q-6 0 -6 7v101q0 8 8 8h58v26q0 28 5 55t16 50q20 42 58.5 66.5t98.5 24.5q22 0 33 -2t19 -5q7 -2 7 -11v-100q0 -3 -1.5 -5.5t-6.5 -0.5q-9 3 -17 3.5t-16 0.5q-28 0 -42.5 -16.5t-14.5 -54.5v-31h156zM799 8q0 -8 -8 -8h-123q-8 0 -8 8v694
q0 7 8 7h123q8 0 8 -7v-236q27 18 58 29.5t73 11.5q29 0 59 -9t54.5 -31.5t40 -61.5t15.5 -99v-297q0 -9 -9 -9h-120q-10 0 -10 9v283q0 94 -79 94q-47 0 -82 -25v-353z" />
    <glyph glyph-name="f_f_j" unicode="ffj" horiz-adv-x="859" 
d="M365 497v29q0 49 13.5 85t37 60t55 36t67.5 12q41 0 58 -7q5 -2 5.5 -4t0.5 -7v-98q0 -10 -7 -7q-14 3 -32 3q-12 0 -23 -2t-19 -10t-13 -23t-5 -40l1 -27h86q8 0 8 -7v-101q0 -7 -8 -8h-86v-372q0 -4 -1.5 -6.5t-7.5 -2.5h-121q-9 0 -9 9v372h-156v-371q0 -10 -9 -10
h-120q-10 0 -10 10v371h-60q-6 0 -6 7v101q0 8 8 8h58v26q0 28 5 55t16 50q20 42 58.5 66.5t98.5 24.5q22 0 33 -2t19 -5q7 -2 7 -11v-100q0 -3 -1.5 -5.5t-6.5 -0.5q-9 3 -17 3.5t-16 0.5q-28 0 -42.5 -16.5t-14.5 -54.5v-31h156zM790 497q9 0 9 -8v-448q0 -41 -3 -71
t-9.5 -52t-16 -39t-22.5 -33t-30.5 -27t-36.5 -17.5t-38.5 -9.5t-36.5 -3h-12.5t-12.5 1q-10 1 -10 10v102q0 8 8 8q38 0 59.5 19t21.5 74v486q0 8 9 8h121zM729 550q-35 0 -56 21.5t-21 56.5q0 34 22 55.5t56 21.5q36 0 56.5 -21.5t20.5 -55.5q0 -35 -21.5 -56.5
t-56.5 -21.5z" />
    <glyph glyph-name="f_f_k" unicode="ffk" horiz-adv-x="1116" 
d="M365 526q0 49 13.5 85t37 60t55 36t67.5 12q41 0 58 -7q5 -2 5.5 -4t0.5 -7v-98q0 -10 -7 -7q-14 3 -32 3q-12 0 -23 -2t-19 -10t-13 -23t-5 -40l1 -27h86q8 0 8 -7v-101q0 -7 -8 -8h-86v-372q0 -4 -1.5 -6.5t-7.5 -2.5h-121q-9 0 -9 9v372h-156v-371q0 -10 -9 -10h-120
q-10 0 -10 10v371h-60q-6 0 -6 7v101q0 8 8 8h58v26q0 28 5 55t16 50q20 42 58.5 66.5t98.5 24.5q22 0 33 -2t19 -5q7 -2 7 -11v-100q0 -3 -1.5 -5.5t-6.5 -0.5q-9 3 -17 3.5t-16 0.5q-28 0 -42.5 -16.5t-14.5 -54.5v-31h156v29zM1109 497q5 0 7 -3t-2 -7q-11 -14 -36.5 -43
t-54.5 -61t-56 -62t-42 -45v-4q22 -27 50 -61t57 -69.5t57.5 -70t51.5 -62.5q3 -2 1.5 -5.5t-6.5 -3.5h-159q-5 0 -7.5 2t-5.5 5q-12 14 -32.5 40.5t-44 57.5l-47 62t-41.5 54v-211q0 -10 -9 -10h-120q-7 0 -8.5 2.5t-1.5 7.5v691q0 3 1.5 5.5t8.5 2.5h120q9 0 9 -8v-411
q20 23 45.5 53.5t49.5 60t44 53t28 33.5q6 7 14 7h129z" />
    <glyph glyph-name="f_f_t" unicode="fft" horiz-adv-x="909" 
d="M886 497q7 0 7 -8v-101q0 -6 -6 -7h-95v-214q0 -33 11.5 -48.5t43.5 -15.5q9 0 17 1t16 3q7 0 7 -7v-83q0 -11 -7 -13q-21 -8 -41.5 -11t-47.5 -3q-66 0 -102 34t-36 109v248h-37h-23h-91v-372q0 -4 -1.5 -6.5t-7.5 -2.5h-121q-9 0 -9 9v372h-154v-371q0 -10 -9 -10h-120
q-10 0 -10 10v371h-60q-6 0 -6 7v101q0 8 8 8h58v26q0 28 5 55t16 50q20 42 58.5 66.5t98.5 24.5q22 0 33 -2t19 -5q7 -2 7 -11v-100q0 -3 -1.5 -5.5t-6.5 -0.5q-9 3 -17 3.5t-16 0.5q-28 0 -42.5 -16.5t-14.5 -54.5v-31h153v29q0 49 14 85t37 60t55 36t68 12q41 0 58 -7
q5 -2 5.5 -4t0.5 -7v-98q0 -10 -8 -7q-12 3 -31 3q-12 0 -23 -2t-19.5 -10t-13 -23t-4.5 -40v-27h93h22h38q0 13 1 29.5t2.5 33.5t3 32t3.5 26q1 7 9 9l118 15q8 2 8 -6q-1 -12 -2 -28t-2 -34.5t-1.5 -38.5t-0.5 -38h93z" />
    <glyph glyph-name="t_t" unicode="tt" horiz-adv-x="645" 
d="M209 381v-213q0 -33 11.5 -49t43.5 -16q9 0 18 2t21 5q7 2 7 -7v-83q0 -11 -7 -13q-21 -10 -44.5 -13.5t-50.5 -3.5q-66 0 -102 34t-36 109v248h-59q-8 1 -8 9v98q0 9 8 9h60q0 13 1 29.5t2.5 33t3.5 32t4 25.5q1 9 8 10l118 15q8 2 8 -6q-1 -12 -2 -28t-2 -34.5
t-1.5 -38.5t-0.5 -38h180q1 13 2 29.5t2.5 33t3 32t3.5 25.5q1 8 9 10l117 15q8 2 8 -6q-1 -12 -2 -28t-2 -34.5t-1.5 -38.5t-0.5 -38h93q8 0 8 -8v-101q0 -6 -7 -7h-95v-213q0 -33 12 -49t43 -16q9 0 18 2t21 5q8 2 8 -7v-83q0 -10 -8 -13q-21 -10 -44.5 -13.5t-49.5 -3.5
q-66 0 -102 34t-36 109v248h-181z" />
    <glyph glyph-name=".notdef" horiz-adv-x="500" 
d="M0 700h500v-700h-500v700zM420 50l-170 255l-170 -255h340zM450 95v510l-171 -255zM50 95l170 255l-170 255v-510zM250 395l170 255h-340z" />
    <glyph glyph-name=".null" horiz-adv-x="0" 
 />
    <glyph glyph-name="nonmarkingreturn" horiz-adv-x="333" 
 />
    <glyph glyph-name="NULL" horiz-adv-x="0" 
 />
    <glyph glyph-name="NULL" horiz-adv-x="0" 
 />
    <glyph glyph-name="CR" unicode="&#xd;" horiz-adv-x="227" 
 />
    <glyph glyph-name="space" unicode=" " horiz-adv-x="227" 
 />
    <glyph glyph-name="exclam" unicode="!" horiz-adv-x="306" 
d="M182 666q17 0 39 -3t32 -8q4 -2 4.5 -5.5t0.5 -5.5v-71q0 -21 -1.5 -52t-3.5 -66.5t-5 -71.5t-5.5 -66.5t-4.5 -52.5t-3 -29q0 -7 -7 -7h-93q-5 0 -7 7q-1 7 -3 28.5t-4 52t-5 66t-5 70.5t-3.5 66t-1.5 52v71q0 2 0.5 5.5t5.5 5.5q6 3 15 5.5t19 4.5t20 3t16 1zM181 -9
q-36 0 -58.5 21t-22.5 56t23 56.5t58 21.5q37 0 59.5 -21.5t22.5 -56.5q0 -36 -22.5 -56.5t-59.5 -20.5z" />
    <glyph glyph-name="quotedbl" unicode="&#x22;" horiz-adv-x="385" 
d="M36 700q-2 9 9 9h112q9 0 8 -9l-19 -252q-1 -7 -8 -7h-90q-10 0 -10 9zM220 698q-2 11 9 11h111q6 0 7.5 -3t1.5 -9l-19 -249q-1 -5 -4 -6t-5 -1h-90q-9 0 -9 9z" />
    <glyph glyph-name="numbersign" unicode="#" horiz-adv-x="533" 
d="M85 40q-8 0 -7 7l34 146h-74q-6 0 -6 8v82q0 6 6 6h95l20 88h-68q-4 0 -4 5v86q0 5 5 5h89l30 131q1 7 7 7h72q8 0 6 -8l-30 -130h81l31 132q0 6 4 6h74q8 0 6 -7l-31 -131h73q8 0 8 -7v-83q0 -6 -5 -6h-97l-19 -88h65q6 0 6 -6v-85q0 -3 -2 -4t-4 -1h-85l-33 -146
q-2 -4 -2.5 -5.5t-4.5 -1.5h-72q-4 0 -6 2t0 5l32 146h-82l-34 -147l-1.5 -4.5t-4.5 -1.5h-72zM218 289h82l20 88h-82z" />
    <glyph glyph-name="dollar" unicode="$" horiz-adv-x="513" 
d="M310 -76q0 -7 -6 -7h-97q-6 0 -6 8v78q-44 2 -83 11.5t-68 25.5q-7 4 -7 17v118q0 5 3 6.5t6 -0.5q45 -34 96 -47t92 -13q43 0 69.5 13t26.5 37q0 11 -5 21t-18 19.5t-34 20.5t-53 24q-52 20 -87.5 40.5t-57 43.5t-30.5 50t-9 62q0 31 10.5 59.5t31 52t50 40t68.5 23.5
v78q0 6 7 6h96q7 0 7 -6l3 -76q35 -2 69 -10t53 -22q5 -3 5 -11v-113q0 -5 -3 -6t-6 1q-31 23 -72 36t-100 13q-44 0 -68 -14t-24 -37q0 -11 4.5 -20t17.5 -19t36.5 -21.5t62.5 -27.5q56 -22 91.5 -45t55.5 -47t27 -50.5t7 -54.5q0 -42 -16 -73t-40 -51.5t-52 -31.5t-53 -15
v-86z" />
    <glyph glyph-name="percent" unicode="%" horiz-adv-x="859" 
d="M262 6q-3 -5 -6 -5.5t-9 -0.5h-87q-3 0 -5 3t3 6l440 616q3 3 5 4.5t7 1.5h87q4 0 4.5 -2.5t-1.5 -4.5zM204 641q43 0 74.5 -14t52 -38.5t30.5 -58.5t10 -74q0 -33 -10 -65.5t-31 -59t-52.5 -42.5t-74.5 -16q-44 0 -75.5 14t-52 38.5t-30.5 57.5t-10 70q0 45 13.5 80
t37 59t54 36.5t64.5 12.5zM141 457q0 -39 16 -65.5t49 -26.5q28 0 44.5 23t16.5 68q0 47 -16.5 70.5t-45.5 23.5t-46.5 -22.5t-17.5 -70.5zM656 358q43 0 74.5 -14t52.5 -38.5t31 -58.5t10 -73q0 -33 -10 -66t-31 -59t-52.5 -42.5t-74.5 -16.5q-44 0 -75.5 14t-52.5 39
t-31 57.5t-10 70.5q0 45 13.5 79.5t37 58.5t54 36.5t64.5 12.5zM593 174q0 -40 16.5 -65.5t48.5 -25.5q28 0 44.5 22.5t16.5 68.5q0 47 -16.5 70t-45.5 23t-46.5 -22.5t-17.5 -70.5z" />
    <glyph glyph-name="ampersand" unicode="&#x26;" horiz-adv-x="703" 
d="M427 292q9 -9 21.5 -23.5t25.5 -30.5t25 -31.5t20 -26.5q27 -35 52.5 -49t60.5 -14q6 0 12.5 0.5t11.5 0.5q7 1 7 -7v-100q0 -7 -1.5 -9.5t-6.5 -4.5q-8 -3 -21.5 -5t-33.5 -2q-28 0 -52.5 5t-47.5 18t-45.5 35.5t-47.5 57.5q-26 38 -51 69.5t-46 55.5t-36.5 38.5
t-23.5 17.5q-10 -1 -22 -6.5t-22 -16t-17 -25t-7 -33.5q0 -36 26 -61.5t83 -25.5q21 0 38 2.5t31 7.5q5 1 5 -6v-110q0 -5 -1.5 -6.5t-5.5 -3.5q-17 -6 -37 -9.5t-55 -3.5q-49 0 -90.5 14t-71.5 40t-46.5 63.5t-16.5 84.5q0 39 12 69t31.5 53t43.5 38.5t47 25.5
q-19 22 -33.5 51t-14.5 69q0 38 15 69t42 53t65.5 34t85.5 12q36 0 65.5 -4.5t49.5 -14.5q6 -3 6 -13v-105q0 -11 -8 -5q-19 9 -45 15.5t-61 6.5q-43 0 -60.5 -14.5t-17.5 -36.5q0 -17 15.5 -36.5t45.5 -45.5h315q8 0 7 -9l-16 -104q-1 -8 -10 -8h-194z" />
    <glyph glyph-name="quotesingle" unicode="'" horiz-adv-x="200" 
d="M35 701q0 8 8 8h115q7 0 6 -6l-19 -255q-1 -5 -3.5 -5.5t-6.5 -0.5h-90q-8 0 -8 7z" />
    <glyph glyph-name="parenleft" unicode="(" horiz-adv-x="365" 
d="M51 295q0 80 14 149t36.5 126t49 101.5t52.5 74.5q2 3 4 5t7 2h117q11 0 4 -11q-39 -51 -69 -103t-50.5 -106.5t-30.5 -113.5t-10 -124q0 -66 10 -125t30.5 -114t50.5 -107t69 -103q7 -10 -4 -10h-117q-7 0 -11 6q-26 31 -53 75.5t-49 101.5t-36 126t-14 150z" />
    <glyph glyph-name="parenright" unicode=")" horiz-adv-x="364" 
d="M318 293q0 -81 -14 -150t-36.5 -125.5t-49.5 -100.5t-52 -75q-6 -6 -11 -6h-117q-5 0 -6.5 2.5t2.5 7.5q39 51 69 103t50 106.5t30 113.5t10 124q0 66 -10 125t-30 114t-50 107t-69 103q-4 5 -2.5 8t6.5 3h117q4 0 6 -2l5 -5q27 -31 54 -75t49 -101t35.5 -126.5
t13.5 -150.5z" />
    <glyph glyph-name="asterisk" unicode="*" horiz-adv-x="408" 
d="M348 338q8 -4 0 -11l-70 -46q-7 -4 -10 5l-74 131l-97 -110q-3 -5 -8 0l-54 57q-7 5 0 10l112 91l-128 45q-7 0 -4 10l39 77q2 6 10 3l111 -75l4 142q0 8 6 7l95 -12q6 0 5 -7l-42 -140l129 42q5 3 8 -4l15 -86q2 -7 -4 -7l-135 -8z" />
    <glyph glyph-name="plus" unicode="+" horiz-adv-x="561" 
d="M325 513q7 0 7 -8v-195h188q6 0 6 -9v-82q0 -7 -8 -7h-186v-199q0 -6 -8 -6h-87q-7 0 -7 6v199h-187q-8 0 -8 8v83q0 7 7 7h188v197q0 6 6 6h89z" />
    <glyph glyph-name="comma" unicode="," horiz-adv-x="226" 
d="M6 -128q-5 0 -6.5 3t0.5 6q40 76 51 142t7 134q0 6 6 6h113q7 0 8 -8q5 -74 -11 -146.5t-58 -130.5q-1 -2 -4 -4t-9 -2h-97z" />
    <glyph glyph-name="hyphen" unicode="-" horiz-adv-x="335" 
d="M47 198q-7 0 -7 8v105q0 7 7 7h241q6 0 6 -7v-106q0 -7 -5 -7h-242z" />
    <glyph glyph-name="period" unicode="." horiz-adv-x="226" 
d="M113 -10q-36 0 -59.5 22.5t-23.5 61.5q0 38 23.5 60.5t59.5 22.5q38 0 60.5 -23.5t22.5 -59.5q0 -38 -21.5 -61t-61.5 -23z" />
    <glyph glyph-name="slash" unicode="/" horiz-adv-x="369" 
d="M142 -39q-1 -5 -7 -5h-95q-7 0 -6 7l193 731q1 5 7 5h96q6 0 5 -6z" />
    <glyph glyph-name="zero" unicode="0" horiz-adv-x="557" 
d="M278 524q-44 0 -71.5 -48t-27.5 -155q0 -104 25 -158t76 -54t74.5 51.5t23.5 157.5q0 109 -24.5 157.5t-75.5 48.5zM280 -10q-63 0 -108.5 25t-75 69.5t-43 104t-13.5 128.5q0 71 16 130.5t46.5 102.5t75.5 67t102 24q70 0 116 -28.5t73 -75t37.5 -104.5t10.5 -116
q0 -64 -13 -123t-41.5 -104.5t-73.5 -72.5t-109 -27z" />
    <glyph glyph-name="one" unicode="1" horiz-adv-x="348" 
d="M131 0q-8 0 -8 8v481q-22 -10 -50.5 -18.5t-48.5 -11.5q-8 -1 -8 7v98q0 8 6 9q35 8 72 23.5t67 34.5q3 2 7.5 3t8.5 1h79q6 0 6 -7v-620q0 -8 -7 -8h-124z" />
    <glyph glyph-name="two" unicode="2" horiz-adv-x="506" 
d="M33 0q-5 0 -6 2.5t-1 6.5v77q0 10 4 13q33 25 76.5 57.5t81.5 67.5q38 34 61.5 62t36 51.5t16.5 43t4 36.5q0 46 -26 73t-86 27q-47 0 -80.5 -11.5t-65.5 -28.5q-9 -5 -9 5v105q0 7 6 11q39 21 83.5 32t96.5 11q57 0 98.5 -17t69 -45.5t41 -65.5t13.5 -78q0 -55 -24 -111
t-86 -114q-36 -35 -61 -55l-50 -40q29 3 62.5 3.5t78.5 0.5h104q10 0 9 -7l-24 -104q-3 -8 -10 -8h-413z" />
    <glyph glyph-name="three" unicode="3" horiz-adv-x="510" 
d="M149 267q-8 0 -8 7v105q0 10 7 10h55q50 0 76 14.5t26 47.5q0 32 -26.5 50t-79.5 18q-40 0 -75 -9t-70 -27q-7 -4 -7 3v106v6t5 5q35 18 79 28t95 10q49 0 89 -12t68 -34t43 -54t15 -71q0 -25 -7.5 -45.5t-19.5 -37t-27 -28t-30 -18.5q19 -7 39 -18.5t36.5 -30t27 -44.5
t10.5 -62q0 -48 -20.5 -84.5t-55.5 -61t-81.5 -37.5t-98.5 -13q-49 0 -91 7t-77 24q-5 2 -6 6t-1 8v114q0 4 3 5t6 -1q43 -21 80.5 -31t79.5 -10q65 0 92 22.5t27 56.5q0 37 -26.5 56.5t-85.5 19.5h-66z" />
    <glyph glyph-name="four" unicode="4" horiz-adv-x="545" 
d="M35 144q-8 0 -8 6v90q0 5 1 7.5t4 7.5l246 369q5 7 16 7h144q8 0 8 -8v-367h74q9 0 7 -8l-14 -99q-2 -2 -3 -3.5t-6 -1.5h-58v-136q0 -8 -7 -8h-116q-8 0 -8 8v136h-280zM315 328q0 60 2 105t4 72h-1q-10 -20 -31 -55t-44 -72.5t-44.5 -71.5t-31.5 -50h146v72z" />
    <glyph glyph-name="five" unicode="5" horiz-adv-x="513" 
d="M207 510q-2 -9 -5 -21t-6 -24.5t-6 -24.5l-5 -20q77 -9 131.5 -27.5t88.5 -46t49.5 -64t15.5 -81.5q0 -48 -18 -87t-51 -66.5t-79.5 -42.5t-103.5 -15q-98 0 -163 31q-7 3 -7 12v113q0 4 3 5.5t5 -0.5q32 -17 74 -28t87 -11q62 0 87.5 22.5t25.5 57.5q0 54 -63 81
t-205 40q-10 0 -10 7v56q2 8 7.5 29t13 48t16 56.5t15.5 54.5t11.5 42t5.5 18q3 7 10 7h313q9 0 6 -8l-30 -106q-1 -7 -10 -7h-203z" />
    <glyph glyph-name="six" unicode="6" horiz-adv-x="559" 
d="M274 301q-30 0 -53.5 -7t-40.5 -18q-1 -5 -1.5 -13.5t-0.5 -15.5q0 -66 29 -102t80 -36q44 0 68.5 25.5t24.5 68.5q0 46 -28 72t-78 26zM462 529q0 -6 -5 -7q-41 -4 -79 -14.5t-71 -27.5t-59 -40.5t-41 -53.5q20 11 47.5 17.5t62.5 6.5q42 0 79 -13.5t65 -39t44.5 -63
t16.5 -86.5q0 -41 -15 -80t-45 -70t-74.5 -49.5t-104.5 -18.5t-105.5 20.5t-76 56t-46 82.5t-15.5 101q0 81 33 149t90 118.5t133 82.5t162 41q4 0 4 -7v-105z" />
    <glyph glyph-name="seven" unicode="7" horiz-adv-x="475" 
d="M453 631q6 0 6 -6v-80q0 -7 -3 -14q-18 -42 -48.5 -109t-65 -142t-69 -148t-59.5 -126q-3 -6 -9 -6h-134q-8 0 -4 7q55 111 96 194.5t70.5 143.5t49.5 99.5t32 64.5h-302q-7 0 -7 8l18 108q1 6 7 6h422z" />
    <glyph glyph-name="eight" unicode="8" horiz-adv-x="536" 
d="M269 527q-41 0 -60.5 -21.5t-19.5 -53.5q0 -18 5 -31t16 -27q7 -8 23 -8h76q11 0 20 9q19 22 19 55q0 32 -20 54.5t-59 22.5zM270 107q48 0 70 25t22 59q0 46 -30 70q-10 7 -21 7h-84q-8 0 -11.5 -0.5t-9.5 -5.5q-31 -23 -31 -70q0 -36 25 -60.5t70 -24.5zM271 641
q54 0 93 -16t64.5 -41.5t37.5 -57t12 -62.5q0 -24 -6 -44.5t-16 -37t-21.5 -29t-22.5 -21.5q16 -11 32 -25t29 -32.5t20.5 -42t7.5 -52.5q0 -42 -17.5 -77t-49 -60t-75.5 -39t-97 -14q-55 0 -97 15.5t-70.5 41.5t-43.5 60t-15 72q0 51 24 86.5t62 60.5q-26 22 -45.5 55
t-19.5 82q0 36 14 68t41 56.5t67 39t92 14.5z" />
    <glyph glyph-name="nine" unicode="9" horiz-adv-x="555" 
d="M107 102q0 7 7 8q85 14 143.5 48t86.5 77q-25 -10 -49 -13t-46 -3q-42 0 -80.5 13t-68.5 38.5t-47.5 63.5t-17.5 87q0 45 17 85t48 70t75.5 47.5t98.5 17.5q51 0 95 -18t75.5 -52.5t49.5 -83.5t18 -110q0 -82 -30 -149.5t-83.5 -117.5t-125.5 -81t-156 -39q-9 -1 -9 8z
M288 329q26 0 46 4t37 14q0 4 1 13t1 17q0 69 -27 108t-78 39q-43 0 -67 -27.5t-24 -69.5q0 -51 31 -74.5t80 -23.5z" />
    <glyph glyph-name="colon" unicode=":" horiz-adv-x="298" 
d="M149 300q-36 0 -59.5 22.5t-23.5 61.5q0 38 23.5 61t59.5 23q38 0 60.5 -24t22.5 -60q0 -38 -21.5 -61t-61.5 -23zM149 -10q-36 0 -59.5 22.5t-23.5 61.5q0 38 23.5 61t59.5 23q38 0 60.5 -23.5t22.5 -60.5q0 -38 -21.5 -61t-61.5 -23z" />
    <glyph glyph-name="semicolon" unicode=";" horiz-adv-x="298" 
d="M149 300q-36 0 -59.5 22.5t-23.5 61.5q0 38 23.5 61t59.5 23q38 0 60.5 -24t22.5 -60q0 -38 -21.5 -61t-61.5 -23zM33 -128q-5 0 -6.5 3t0.5 6q40 76 51 142t7 134q0 6 5 6h114q7 0 8 -8q5 -74 -11 -146.5t-58 -130.5q-1 -2 -4.5 -4t-8.5 -2h-97z" />
    <glyph glyph-name="less" unicode="&#x3c;" horiz-adv-x="545" 
d="M61 299q0 7 5 10l409 204q9 4 9 -4v-91q0 -6 -8 -9l-303 -147v-2l304 -148q4 -2 5.5 -3.5t1.5 -6.5v-87q0 -10 -8 -7l-409 205q-6 5 -6 10v76z" />
    <glyph glyph-name="equal" unicode="=" horiz-adv-x="550" 
d="M30 400q0 8 8 8h476q7 0 7 -8v-81q0 -9 -9 -9h-474q-8 0 -8 9v81zM30 204q0 8 8 8h474q5 0 7 -1.5t2 -7.5v-80q0 -9 -10 -9h-473q-8 0 -8 9v81z" />
    <glyph glyph-name="greater" unicode="&#x3e;" horiz-adv-x="545" 
d="M484 225q0 -8 -6 -10l-411 -207q-6 -4 -6 5v89q0 6 2 7.5t4 2.5l304 148v2l-303 147q-4 2 -5.5 3t-1.5 6v91q0 4 2.5 5.5t4.5 -0.5l410 -206q6 -4 6 -10v-73z" />
    <glyph glyph-name="question" unicode="?" horiz-adv-x="442" 
d="M223 666q47 0 83 -12.5t60.5 -34t37 -50.5t12.5 -62q0 -48 -17 -79.5t-46 -57.5q-30 -28 -52.5 -51.5t-22.5 -44.5q0 -14 3.5 -25.5t10.5 -25.5q4 -8 -5 -8h-100q-4 0 -7 0.5t-7 3.5q-14 16 -19 35t-5 34q0 34 19 60t56 61q23 23 37 40t14 37q0 22 -17 36t-61 14
q-40 0 -71.5 -10t-57.5 -23q-3 -2 -5.5 -0.5t-2.5 5.5v111q0 3 0.5 6.5t3.5 5.5q19 9 58 22t101 13zM232 -10q-35 0 -57 20.5t-22 58.5q0 36 22 57t57 21q36 0 58 -21.5t22 -56.5t-21 -57t-59 -22z" />
    <glyph glyph-name="at" unicode="@" horiz-adv-x="868" 
d="M499 346q-4 1 -10 2t-16 1q-51 0 -78.5 -38t-27.5 -92q0 -24 6 -46t18.5 -38.5t32 -26.5t45.5 -10q11 0 15 1zM598 108q15 4 34 15t36 32.5t28.5 55.5t11.5 83q0 54 -17 98t-49 74.5t-78 47.5t-103 17q-63 0 -117 -20t-93.5 -59t-62 -95.5t-22.5 -129.5q0 -94 37.5 -165
t117.5 -113q5 -4 5 -11l-2 -110q0 -9 -8 -5q-132 51 -202 156t-70 242q0 87 30 163t85 131.5t133.5 87.5t174.5 32q78 0 144 -24t113.5 -68t74 -105.5t26.5 -136.5q0 -74 -26 -131.5t-71.5 -97.5t-107.5 -60.5t-134 -20.5q-54 0 -97.5 14.5t-74.5 42.5t-48 68.5t-17 93.5
q0 54 18.5 97.5t51 75t77 48.5t96.5 17q30 0 62.5 -4.5t54.5 -13.5q6 -1 6 -8z" />
    <glyph glyph-name="A" unicode="A" horiz-adv-x="616" 
d="M185 156l-48 -148q-3 -8 -11 -8h-116q-10 0 -8 10l200 577q3 8 5.5 20t4.5 41q0 7 6 7h160q7 0 8 -6l227 -640q4 -9 -5 -9h-130q-8 0 -11 7l-51 149h-231zM379 281q-8 25 -18.5 58.5t-21.5 69t-21.5 69.5t-17.5 61h-1q-6 -25 -15.5 -57t-20 -66.5t-21.5 -69.5t-21 -65
h158z" />
    <glyph glyph-name="B" unicode="B" horiz-adv-x="595" 
d="M72 644q0 9 6 10q13 0 36.5 0.5t52 1t58.5 1t57 0.5q80 0 128.5 -18t75 -44.5t35.5 -57t9 -55.5q0 -26 -6 -46.5t-15 -36t-20 -26.5t-20 -18q14 -7 30 -19t30 -30.5t23.5 -44.5t9.5 -60q0 -46 -19.5 -83.5t-55.5 -64t-87.5 -41t-115.5 -14.5q-73 0 -125 0.5t-80 1.5
q-7 1 -7 9v635zM208 116q16 -1 33 -1.5t40 -0.5q65 -1 101 20t36 65q0 26 -13 46t-48 29q-24 6 -63 6h-86v-164zM208 399h68q26 0 52 -1.5t37 -3.5q14 12 22 27.5t8 40.5q0 78 -114 78q-23 0 -39.5 -0.5t-33.5 -1.5v-139z" />
    <glyph glyph-name="C" unicode="C" horiz-adv-x="559" 
d="M527 22q0 -11 -8 -14q-25 -9 -61 -13.5t-78 -4.5q-73 0 -136 21.5t-109.5 63.5t-73 104.5t-26.5 144.5q0 76 25.5 139t72.5 108t113.5 69.5t149.5 24.5q93 0 130 -17q7 -3 7 -12v-109q0 -7 -3 -8t-6 1q-25 12 -58.5 17t-71.5 5q-101 0 -158.5 -57.5t-57.5 -155.5
q0 -59 19.5 -99.5t50.5 -66.5t70.5 -37.5t78.5 -11.5q37 0 66 3.5t56 12.5q8 3 8 -5v-103z" />
    <glyph glyph-name="D" unicode="D" horiz-adv-x="665" 
d="M72 646q0 7 7 8q23 1 75.5 2t119.5 1q90 0 156.5 -24t111 -66.5t66.5 -101t22 -127.5q0 -90 -31.5 -154t-82 -105.5t-113.5 -61t-127 -19.5h-54.5h-57.5t-51 0.5t-35 1.5q-6 0 -6 10v636zM211 120q15 -1 28.5 -1.5t30.5 -0.5q49 0 89 14.5t68.5 42.5t44 68.5t15.5 92.5
q0 100 -59 150t-155 50h-31.5t-30.5 -1v-415z" />
    <glyph glyph-name="E" unicode="E" horiz-adv-x="540" 
d="M497 9q-1 -6 -3 -7.5t-7 -1.5h-407q-8 0 -8 9v637q0 9 8 9h395q10 0 11 -8l11 -108q2 -9 -7 -9h-279v-134h255q8 0 8 -8v-110q0 -7 -8 -7h-255v-146h295q6 0 7.5 -2t0.5 -7z" />
    <glyph glyph-name="F" unicode="F" horiz-adv-x="518" 
d="M211 9q0 -9 -9 -9h-123q-7 0 -7 9v638q0 8 7 8h396q9 0 10 -9l11 -107q1 -9 -9 -9h-276v-152h249q8 0 8 -8v-109q0 -8 -7 -8h-250v-244z" />
    <glyph glyph-name="G" unicode="G" horiz-adv-x="651" 
d="M358 255q-9 0 -9 9v103q0 6 8 6h230q6 0 7.5 -1.5t1.5 -6.5v-331q1 -7 -7 -10q-55 -20 -106 -27t-96 -7q-89 0 -155 26.5t-110 71.5t-65.5 105.5t-21.5 129.5q0 78 26.5 141t75.5 107.5t118 69t153 24.5q50 0 92.5 -5.5t69.5 -18.5q7 -1 7 -13v-109q0 -11 -9 -6
q-33 17 -72 22.5t-84 6.5q-117 1 -175.5 -56.5t-58.5 -158.5q0 -46 14 -85.5t41 -68.5t67.5 -45.5t93.5 -16.5q22 0 36 1.5t27 5.5v132z" />
    <glyph glyph-name="H" unicode="H" horiz-adv-x="674" 
d="M472 0q-8 0 -8 9v268h-253v-268q0 -9 -10 -9h-119q-10 0 -10 9v636q0 10 9 10h120q10 0 10 -9v-244h253v245q0 8 7 8h125q6 0 6 -8v-638q0 -9 -8 -9h-122z" />
    <glyph glyph-name="I" unicode="I" horiz-adv-x="283" 
d="M211 9q0 -9 -9 -9h-122q-8 0 -8 9v637q0 6 2 7.5t6 1.5h122q9 0 9 -9v-637z" />
    <glyph glyph-name="J" unicode="J" horiz-adv-x="338" 
d="M131 647q0 8 8 8h124q7 0 7 -7v-451q0 -24 -1.5 -49t-6.5 -45q-18 -81 -73 -118.5t-140 -37.5q-14 0 -26 1t-21 3q-6 2 -7 4.5t-1 7.5v106q0 8 9 7q12 -2 18 -2h14q22 0 40 4.5t30.5 17t19 34t6.5 54.5v463z" />
    <glyph glyph-name="K" unicode="K" horiz-adv-x="596" 
d="M617 12q3 -5 1.5 -8.5t-6.5 -3.5h-146q-11 0 -19 8l-236 282v-281q0 -9 -10 -9h-120q-9 0 -9 10v637q0 8 8 8h122q9 0 9 -9v-280l236 282q4 7 13 7h132q8 0 9 -3.5t-2 -7.5l-256 -296q-3 -5 0 -10z" />
    <glyph glyph-name="L" unicode="L" horiz-adv-x="512" 
d="M82 0q-10 0 -10 11v634q0 10 8 10h124q7 0 7 -8v-521h286q9 0 7 -9l-18 -109q-1 -8 -10 -8h-394z" />
    <glyph glyph-name="M" unicode="M" horiz-adv-x="832" 
d="M95 649q1 5 3 5.5t6 0.5h184q8 0 11 -7q7 -25 17 -62.5t21.5 -81t23.5 -89.5t23 -89t19.5 -80t13.5 -61h1q5 21 14.5 56.5t22 78.5t26.5 89.5t27 91t24 82.5t19 64q2 8 8 8h180q8 0 8 -7l25 -639q1 -9 -8 -9h-129q-8 0 -8 7q-1 77 -1.5 163.5t-0.5 164t0.5 137t1.5 83.5
h-1q-6 -25 -16 -65.5t-23.5 -90t-28.5 -104t-30 -107t-28 -99.5t-23 -81q-3 -8 -10 -8h-115q-9 0 -11 8q-9 36 -20.5 81.5t-24 95.5l-25.5 102t-24.5 101t-22 92.5t-17.5 76.5h-1q0 -41 -1 -102t-3 -134.5t-4.5 -154t-5.5 -158.5q0 -8 -8 -8h-116q-9 0 -8 8l35 641v0z" />
    <glyph glyph-name="N" unicode="N" horiz-adv-x="688" 
d="M81 0q-5 0 -7 1.5t-2 7.5v638q0 8 7 8h162q6 0 8 -1.5t5 -6.5q17 -31 38.5 -71.5t45 -85.5t47 -91t43.5 -86.5t36 -73.5t24 -51h1q0 11 -0.5 23t-1 29.5t-1 42.5t-0.5 62v301q0 9 9 9h112q9 0 9 -10v-635q0 -10 -11 -10h-144q-7 0 -9.5 1.5t-4.5 6.5l-35 67.5t-45 86.5
t-49.5 95.5t-48.5 96t-42 86t-29 66.5h-1q1 -22 2 -41.5t2 -41t1 -48v-61.5v-305q0 -9 -8 -9h-113z" />
    <glyph glyph-name="O" unicode="O" horiz-adv-x="697" 
d="M349 665q75 0 132.5 -26.5t97.5 -72t61 -106t21 -129.5q0 -77 -22.5 -139.5t-64 -107.5t-99.5 -69.5t-128 -24.5q-74 0 -131.5 25.5t-98 70.5t-61.5 107t-21 135q0 70 22.5 131.5t63.5 107t99 72t129 26.5zM178 327q0 -45 11.5 -84.5t33.5 -68t54.5 -45t74.5 -16.5
q39 0 70 15.5t52 43.5t32.5 67.5t11.5 87.5q-1 100 -45.5 157.5t-125.5 57.5q-75 0 -122 -56t-47 -159z" />
    <glyph glyph-name="P" unicode="P" horiz-adv-x="579" 
d="M72 646q0 8 6 8q31 1 85 2t111 1q76 0 128 -19t84 -50.5t46 -71t14 -80.5q0 -61 -22 -104.5t-60 -71.5t-88.5 -41.5t-108.5 -13.5h-57v-197q0 -8 -8 -8h-123q-7 0 -7 8v638zM210 328q13 -1 24 -1h32q30 0 55.5 5t45 17t30.5 32.5t11 51.5q0 48 -32 75.5t-98 27.5
q-24 0 -42.5 -0.5t-25.5 -1.5v-206z" />
    <glyph glyph-name="Q" unicode="Q" horiz-adv-x="697" 
d="M179 327q0 -45 11.5 -84.5t33 -68t54 -45t74.5 -16.5q39 0 70 15.5t52.5 43.5t32.5 67.5t11 87.5q-1 100 -45 157.5t-126 57.5q-75 0 -121.5 -56t-46.5 -159zM509 -129q-6 0 -10.5 2.5t-7.5 4.5q-21 17 -53 47.5t-70 65.5q-5 -1 -10 -1h-10q-74 0 -132 25.5t-98 70.5
t-61.5 107t-21.5 135q0 70 22.5 131.5t63.5 107t99 72t129 26.5q75 0 133 -26.5t97.5 -72t60.5 -106t21 -129.5q1 -100 -37 -175.5t-105 -118.5q17 -15 39.5 -36t46 -43.5t46 -43t38.5 -35.5q2 -2 2 -5t-4 -3h-178z" />
    <glyph glyph-name="R" unicode="R" horiz-adv-x="598" 
d="M80 0q-8 0 -8 9v635q0 10 7 10q34 1 59.5 1.5t48.5 1t47 0.5h54q125 0 192 -51.5t67 -148.5q0 -63 -35 -108.5t-90 -67.5q8 -11 22.5 -31.5t31.5 -46t35.5 -53.5t35.5 -54t30.5 -48.5t21.5 -35.5q2 -5 2 -8.5t-5 -3.5h-145q-11 0 -14 6q-11 16 -27.5 43t-34.5 57.5
t-37 61.5t-34 57q-5 9 -10 13t-13 4h-73v-234q0 -8 -8 -8h-120zM285 360q57 0 90 22t33 67q0 46 -34 66.5t-90 20.5q-25 0 -45 -0.5t-31 -1.5v-174h77z" />
    <glyph glyph-name="S" unicode="S" horiz-adv-x="505" 
d="M220 -10q-56 0 -100.5 9t-76.5 26q-7 4 -7 16v119q0 4 2.5 5.5t5.5 -0.5q42 -26 89 -39t92 -13q57 0 81.5 17.5t24.5 43.5q0 24 -20 43t-71 41l-50 21q-46 19 -76.5 40.5t-48.5 45.5t-25 50.5t-7 55.5q0 40 15.5 75.5t45.5 62t75 41.5t105 15q48 0 88.5 -6t67.5 -20
q6 -4 6 -13v-112q0 -3 -2 -5.5t-7 0.5q-30 17 -69.5 25t-84.5 8q-58 0 -81 -17t-23 -42q0 -23 20 -41.5t76 -40.5l37 -15q50 -21 82.5 -43t52 -46.5t27.5 -52t8 -57.5q0 -45 -17.5 -81.5t-50.5 -62t-79.5 -39.5t-104.5 -14z" />
    <glyph glyph-name="T" unicode="T" horiz-adv-x="551" 
d="M206 530h-197q-8 0 -6 9l14 107q1 9 10 9h500q9 0 11 -9l10 -106q1 -10 -8 -10h-195v-520q0 -10 -9 -10h-120q-10 -1 -10 9v521z" />
    <glyph glyph-name="U" unicode="U" horiz-adv-x="657" 
d="M201 260q0 -65 31 -106t99 -41q28 0 51.5 8t39.5 25.5t25 46t9 69.5v384q0 9 8 9h122q9 0 9 -9v-392q0 -71 -21 -121t-57 -82t-85 -46.5t-105 -14.5q-61 0 -110 16t-83.5 48t-53 81t-18.5 114v397q0 5 1.5 7t7.5 2h122q8 0 8 -9v-386z" />
    <glyph glyph-name="V" unicode="V" horiz-adv-x="609" 
d="M315 139q17 61 54 189.5t99 318.5q3 8 9 8h126q10 0 7 -10l-225 -638q-2 -7 -10 -7h-134q-8 0 -11 7l-230 638q-5 10 6 10h133q8 0 9 -7q32 -91 59 -171t48 -145t36 -114.5t22 -78.5h2z" />
    <glyph glyph-name="W" unicode="W" horiz-adv-x="856" 
d="M513 647q13 -58 28 -122.5t29 -128t26.5 -122t20.5 -103.5h1q3 21 9.5 57.5t17 93.5t27 137t39.5 188q2 8 11 8h121q10 0 7 -10l-166 -638q-2 -7 -10 -7h-123q-8 0 -11 7q-8 33 -17 75t-19.5 87.5t-21 92.5t-20 90t-17.5 80.5t-13 63.5h-1q-7 -40 -21.5 -103t-32 -132.5
t-34.5 -136.5t-29 -114q-2 -10 -11 -10h-120q-8 0 -12 9l-165 637q-2 9 6 9h132q4 0 6.5 -1t4.5 -7q28 -125 46 -206.5t28.5 -134t16 -82.5t8.5 -52h1q4 26 11.5 61.5t20.5 90t31 132.5t43 191q1 8 11 8h131q5 0 6.5 -1.5t3.5 -6.5z" />
    <glyph glyph-name="X" unicode="X" horiz-adv-x="554" 
d="M368 338l198 -327q6 -9 -5 -11h-142q-13 0 -17 9q-33 59 -66 117.5t-67 120.5h-1q-30 -60 -62 -120t-64 -119q-4 -8 -14 -8h-135q-5 0 -5.5 3.5t1.5 6.5l192 318l-188 317q-3 4 -1 7t6 3h141q5 0 8 -1.5t5 -6.5q30 -60 63.5 -118.5t64.5 -118.5h1q29 60 61 118.5
t63 118.5q2 4 4.5 6t9.5 2h129q11 0 4 -11z" />
    <glyph glyph-name="Y" unicode="Y" horiz-adv-x="548" 
d="M-16 645q-4 5 -1 7.5t7 2.5h140q7 0 10 -6q36 -74 61 -123.5t41 -82.5t25.5 -52t14.5 -31q6 13 15 33t24 53t38 82t57 121q2 6 10 6h134q9 0 5 -9l-214 -388q-5 -8 -7 -15t-2 -17v-217q0 -9 -10 -9h-118q-11 0 -11 9v222q0 11 -1 17t-6 14z" />
    <glyph glyph-name="Z" unicode="Z" horiz-adv-x="556" 
d="M25 0q-4 0 -6.5 1.5t-2.5 7.5v77q0 5 0.5 7.5t2.5 5.5l330 432h-319q-9 0 -8 8l16 108q1 8 10 8h470q6 0 6 -7v-83q0 -9 -5 -16l-323 -424h342q8 0 5 -10l-18 -107q-2 -8 -10 -8h-490z" />
    <glyph glyph-name="bracketleft" unicode="[" horiz-adv-x="328" 
d="M168 -63l124 -5q4 0 4 -6v-84q0 -6 -6 -6h-218q-9 0 -9 10v896q0 9 9 9h219q4 0 4 -5v-84q0 -6 -5 -6l-122 -3v-716z" />
    <glyph glyph-name="backslash" unicode="\" horiz-adv-x="368" 
d="M34 691q-2 8 6 8h94q6 0 8 -6l192 -728q2 -6 0.5 -7.5t-6.5 -1.5h-96q-6 0 -7.5 2t-3.5 6z" />
    <glyph glyph-name="bracketright" unicode="]" horiz-adv-x="332" 
d="M169 650l-124 5q-4 0 -4 6v84q1 6 6 6h219q8 0 8 -10v-896q0 -9 -8 -9h-220q-4 0 -4 5v84q0 6 5 6l122 3v716z" />
    <glyph glyph-name="asciicircum" unicode="^" horiz-adv-x="521" 
d="M393 248q-6 0 -8.5 1.5t-4.5 5.5l-120 281h-1l-118 -280q-2 -5 -3.5 -6.5t-6.5 -1.5h-90q-11 0 -6 10l165 368q3 5 7 5h104q8 0 10 -6l167 -366q5 -11 -3 -11h-92z" />
    <glyph glyph-name="underscore" unicode="_" horiz-adv-x="514" 
d="M514 -74v-49h-514v49h514z" />
    <glyph glyph-name="grave" unicode="`" 
d="M278 563q6 -8 -5 -8h-109q-6 0 -10 6l-127 141q-5 10 4 10h136q7 0 11 -6z" />
    <glyph glyph-name="a" unicode="a" horiz-adv-x="507" 
d="M313 214q-12 2 -23.5 2.5t-26.5 0.5q-54 0 -77 -16t-23 -43q0 -25 20 -42.5t68 -17.5q33 0 62 9v107zM448 111v-36.5t2 -34.5q0 -4 -2 -5q-33 -13 -61 -21.5t-54 -14t-51 -7.5t-52 -2q-42 0 -78.5 10t-64 30t-43.5 51.5t-16 75.5q0 40 16.5 70t46.5 50.5t71.5 31
t91.5 10.5h36t23 -2v7q0 7 -3 18t-13.5 21t-29.5 17t-50 7q-38 0 -70.5 -7t-61.5 -20q-3 -2 -6 -0.5t-3 5.5v101q0 8 7 10q33 16 74 23.5t83 7.5q54 0 93 -15.5t64.5 -43t38 -64.5t12.5 -80v-193z" />
    <glyph glyph-name="b" unicode="b" horiz-adv-x="555" 
d="M189 709q10 0 10 -8v-205q41 11 84 11q55 0 99.5 -18.5t75.5 -50.5t48 -75.5t17 -93.5q0 -70 -25.5 -122.5t-67.5 -87t-96 -52t-111 -17.5q-40 0 -79.5 5.5t-77.5 17.5q-6 2 -6 10v679q0 7 7 7h122zM381 256q0 34 -9.5 59t-26 41.5t-39 24.5t-48.5 8q-24 0 -36.5 -3
t-22.5 -5v-271q9 -2 18.5 -3t18.5 -1q28 0 54.5 9t46.5 27t32 46.5t12 67.5z" />
    <glyph glyph-name="c" unicode="c" horiz-adv-x="436" 
d="M411 14q0 -7 -5 -8q-24 -10 -53.5 -13t-58.5 -3q-61 0 -109.5 19.5t-83 53.5t-53 81t-18.5 102q0 56 20.5 104t57.5 83t89 54.5t116 19.5q37 0 58.5 -3t33.5 -8q6 -2 6 -11l-1 -103q0 -9 -8 -7q-14 5 -35 8.5t-49 3.5q-63 0 -104 -34t-41 -102q0 -39 13 -65.5t34 -42.5
t47.5 -23t52.5 -7t48 2.5t35 6.5q8 3 8 -4v-104z" />
    <glyph glyph-name="d" unicode="d" horiz-adv-x="552" 
d="M292 -10q-56 0 -103.5 16t-83 47.5t-55.5 79t-20 111.5q0 54 19.5 101.5t57 83.5t91 57t122.5 21q6 0 14 -0.5t19 -1.5v197q0 7 7 7h126q6 0 6 -6v-591q0 -17 1 -37.5t3 -35.5q0 -7 -7 -9q-52 -22 -101 -31t-96 -9zM353 386q-8 3 -17 4t-20 1q-29 0 -55 -9t-45.5 -26.5
t-31 -43.5t-11.5 -61q0 -74 38 -108t95 -34q13 0 24.5 1t22.5 5v271z" />
    <glyph glyph-name="e" unicode="e" horiz-adv-x="512" 
d="M172 212q2 -21 10.5 -40t26 -33.5t43.5 -22.5t63 -8q68 0 123 23q6 4 6 -5v-95q0 -9 -7 -12q-30 -14 -65.5 -21.5t-87.5 -7.5q-71 0 -119.5 22t-78.5 58t-43 81t-13 92q0 52 15.5 99.5t46.5 84t76 58.5t104 22q57 0 97 -20t65.5 -51t37 -69.5t11.5 -75.5q0 -49 -5 -67
q-1 -7 -8 -8q-10 -2 -37 -3t-66 -1h-195zM302 309q24 0 35.5 0.5t14.5 1.5v7q0 9 -4 22.5t-14 26t-26 21.5t-41 9q-24 0 -41 -8t-28.5 -20.5t-18 -28.5t-8.5 -31h131z" />
    <glyph glyph-name="f" unicode="f" horiz-adv-x="290" 
d="M11 381q-7 1 -7 8v101q0 7 7 7h59v16q0 35 5.5 62t16.5 50q20 42 56.5 68t98.5 26q34 0 52 -7q6 -2 6 -10v-99q0 -7 -7 -6q-8 2 -16 2h-14q-28 0 -43.5 -16.5t-15.5 -58.5v-27h85q8 0 8 -7v-101q0 -7 -8 -8h-85v-372q0 -4 -1.5 -6.5t-7.5 -2.5h-121q-9 0 -9 9v372h-59z
" />
    <glyph glyph-name="g" unicode="g" horiz-adv-x="526" 
d="M186 4q-17 -12 -27.5 -28.5t-10.5 -24.5q0 -23 31.5 -44t90.5 -21q67 0 97 19.5t30 44.5q0 28 -29 38t-71 12zM246 407q-32 0 -51 -18t-19 -51q0 -29 18 -48.5t53 -19.5q33 0 51 17t18 48q0 32 -16 52t-54 20zM328 116q54 -3 91 -14.5t60.5 -30.5t34 -44t10.5 -55
q0 -39 -18.5 -73.5t-52.5 -60t-83 -40t-109 -14.5q-63 0 -108 14t-74.5 36.5t-43.5 50t-14 54.5q0 24 21 54.5t71 72.5q-11 17 -16.5 36t-4.5 39q0 17 5 34t13 32q-31 20 -50 51t-19 78q0 36 13.5 67t40 54.5t64.5 36.5t87 13q28 0 53 -2.5t42 -5.5q7 -2 13 -2h11h137
q7 0 7 -7v-93q0 -7 -7 -7q-11 0 -32 1.5t-37 3.5q6 -11 10.5 -26.5t4.5 -38.5q0 -40 -15.5 -69.5t-42 -49.5t-62.5 -30t-78 -10q-8 0 -17 0.5t-17 1.5q-5 -13 -2 -27q1 -13 11 -26z" />
    <glyph glyph-name="h" unicode="h" horiz-adv-x="559" 
d="M199 8q0 -8 -8 -8h-123q-8 0 -8 8v694q0 7 8 7h123q8 0 8 -7v-236q27 18 58 29.5t73 11.5q29 0 59 -9t54.5 -31.5t40 -61.5t15.5 -99v-297q0 -9 -9 -9h-120q-10 0 -10 9v283q0 94 -79 94q-47 0 -82 -25v-353z" />
    <glyph glyph-name="i" unicode="i" horiz-adv-x="259" 
d="M60 489q0 8 8 8h123q8 0 8 -8v-480q0 -5 -1.5 -7t-7.5 -2h-120q-10 0 -10 9v480zM130 550q-35 0 -56 21.5t-21 56.5q0 34 22 55.5t56 21.5q36 0 56.5 -21.5t20.5 -55.5q0 -35 -21.5 -56.5t-56.5 -21.5z" />
    <glyph glyph-name="j" unicode="j" horiz-adv-x="259" 
d="M191 497q8 0 8 -8v-448q0 -41 -3 -71t-9 -52t-15.5 -39t-22.5 -33t-30.5 -27t-37 -17.5t-39 -9.5t-35.5 -3h-13t-13 1q-9 1 -9 10v102q0 8 7 8q39 0 60 19t21 74v486q0 8 9 8h122zM130 550q-35 0 -56.5 21.5t-21.5 56.5q0 34 22.5 55.5t56.5 21.5q36 0 56.5 -21.5
t20.5 -55.5q0 -35 -21.5 -56.5t-56.5 -21.5z" />
    <glyph glyph-name="k" unicode="k" horiz-adv-x="515" 
d="M508 497q5 0 7 -3t-1 -7q-12 -14 -37.5 -43t-54.5 -61t-56 -62t-41 -45q-2 -2 0 -4q22 -27 49.5 -61t56.5 -69.5t57.5 -70t51.5 -62.5q3 -2 1.5 -5.5t-6.5 -3.5h-159q-5 0 -7.5 2t-5.5 5q-12 14 -32.5 40.5t-43.5 57t-46.5 61.5t-41.5 54v-210q0 -10 -9 -10h-121
q-10 0 -10 10v691q0 8 10 8h121q9 0 9 -8v-411q19 23 44.5 53.5t50 60t44 53t27.5 33.5q6 7 14 7h129z" />
    <glyph glyph-name="l" unicode="l" horiz-adv-x="276" 
d="M60 701q0 8 10 8h119q10 0 10 -8v-560q0 -21 7.5 -29.5t25.5 -8.5h8.5t9.5 1q5 0 5 -7v-86q0 -10 -7 -12q-9 -4 -24 -6.5t-38 -2.5q-27 0 -50 6t-40 21.5t-26.5 42t-9.5 68.5v573z" />
    <glyph glyph-name="m" unicode="m" horiz-adv-x="853" 
d="M69 0q-9 0 -9 9v380q0 28 -1.5 56.5t-2.5 42.5q-2 9 8 9h106q5 0 7 -1.5t5 -4.5q4 -12 6 -37q35 29 70 41t74 12q87 0 128 -64q32 28 72 46t90 18q33 0 63.5 -9.5t54.5 -32.5t38.5 -61t14.5 -95v-300q0 -9 -9 -9h-120q-10 0 -10 9v286q0 39 -16 65.5t-60 26.5
q-25 0 -47 -9t-38 -23q2 -8 2.5 -25t0.5 -31v-290q0 -9 -8 -9h-121q-10 0 -10 9v290q0 45 -20 66t-56 21q-23 0 -42.5 -7t-39.5 -21v-350q0 -8 -9 -8h-121z" />
    <glyph glyph-name="n" unicode="n" horiz-adv-x="559" 
d="M60 381q0 26 -1 58.5t-3 49.5q-2 8 7 8h105q10 0 13 -8q5 -11 8 -33q63 51 142 51q29 0 59 -9t54 -31.5t39.5 -61.5t15.5 -99v-297q0 -9 -9 -9h-120q-10 0 -10 9v285q0 92 -78 92q-26 0 -46.5 -8.5t-36.5 -22.5v-347q0 -8 -9 -8h-121q-9 0 -9 9v372z" />
    <glyph glyph-name="o" unicode="o" horiz-adv-x="553" 
d="M279 507q60 0 106 -21t76.5 -56.5t46 -81.5t15.5 -97q0 -59 -18 -107t-51 -82.5t-78 -53t-99 -18.5q-64 0 -110.5 22t-77 58.5t-45 83t-14.5 94.5q0 53 17 100t49.5 82.5t78.5 56t104 20.5zM273 391q-44 0 -73 -37t-29 -104q0 -66 28.5 -105t79.5 -39q44 0 73 36.5
t29 105.5q0 29 -6 55t-19.5 45.5t-34 31t-48.5 11.5z" />
    <glyph glyph-name="p" unicode="p" horiz-adv-x="554" 
d="M271 507q65 0 113 -20.5t79 -54t46 -77.5t15 -91q0 -69 -26 -120t-68.5 -85.5t-98 -51.5t-113.5 -17h-9t-10 1v-170q0 -8 -8 -9q-15 -2 -35.5 -3.5t-39.5 -3.5t-33 -3.5t-16 -1.5q-7 0 -7 7v588q0 5 -0.5 14t-1 18.5t-1 18.5t-0.5 15q0 4 4 5q38 13 91 27t119 14z
M259 389q-17 0 -31 -1.5t-29 -6.5v-273q6 -2 15.5 -2h16.5q26 0 52.5 8t48.5 25.5t35.5 46t13.5 69.5q0 65 -31.5 99.5t-90.5 34.5z" />
    <glyph glyph-name="q" unicode="q" horiz-adv-x="555" 
d="M281 -10q-52 0 -98 17t-80 49.5t-53.5 79t-19.5 106.5q0 53 19 101t56.5 84.5t91.5 58t125 21.5q53 0 97.5 -9t76.5 -20q3 -1 3 -7q-1 -7 -2 -17.5t-1.5 -21t-1 -19.5t-0.5 -14v-579q0 -8 -6 -9q-16 -2 -37 -3.5t-40 -3.5t-33 -3t-15 -1q-8 0 -8 8v191q-22 -5 -39 -7
t-35 -2zM355 387q-17 4 -44 4q-29 0 -54.5 -9t-44 -26.5t-29 -44t-10.5 -60.5q0 -36 11 -62.5t29 -44t42 -26t50 -8.5q16 0 27.5 1.5t22.5 4.5v271z" />
    <glyph glyph-name="r" unicode="r" horiz-adv-x="363" 
d="M170 497q9 0 12 -9q4 -10 7 -24.5t4 -31.5q25 29 65 52t94 23q8 0 8 -8v-123q0 -7 -9 -7q-54 2 -94.5 -11.5t-56.5 -31.5l-1 -318q0 -8 -9 -8h-120q-10 0 -10 9v345q0 32 -1 71t-4 65q0 7 6 7h109z" />
    <glyph glyph-name="s" unicode="s" horiz-adv-x="411" 
d="M348 367q-25 13 -60 21t-69 8q-35 0 -48.5 -10.5t-13.5 -23.5t13.5 -24.5t57.5 -27.5q45 -17 75.5 -34t49 -36.5t26.5 -42t8 -49.5q0 -72 -53 -115t-153 -43q-46 0 -84 7.5t-61 20.5q-7 4 -7 11v108q0 5 2.5 6.5t5.5 -0.5q35 -22 74 -31t73 -9q68 0 68 34q0 14 -16 26
t-60 29q-42 16 -71 33t-46.5 36.5t-25 42.5t-7.5 50q0 29 12 56.5t36 49t60.5 34.5t86.5 13q45 0 78 -5.5t52 -14.5q7 -4 7 -13v-100q0 -5 -2.5 -7t-7.5 0z" />
    <glyph glyph-name="t" unicode="t" horiz-adv-x="326" 
d="M305 17q0 -11 -7 -13q-21 -8 -42 -11t-47 -3q-66 0 -102 34t-36 109v248h-60q-8 1 -8 9v98q0 9 9 9h60q0 13 1 29.5t2.5 33.5t3 32t3.5 26q1 7 9 9l117 15q8 2 8 -6q-1 -12 -2 -28t-1.5 -34.5t-1 -38.5t-0.5 -38h92q8 0 8 -8v-101q0 -6 -7 -7h-94v-214q0 -33 11.5 -48.5
t42.5 -15.5q9 0 17 1t17 3q7 0 7 -7v-83z" />
    <glyph glyph-name="u" unicode="u" horiz-adv-x="554" 
d="M493 111q0 -38 2 -62.5t4 -40.5q1 -8 -9 -8h-106q-6 0 -8 1.5t-4 5.5q-2 7 -3.5 15.5t-2.5 15.5q-33 -29 -69 -38.5t-68 -9.5q-38 0 -69 10.5t-53 34t-34.5 60t-12.5 88.5v306q0 8 9 8h122q7 0 7 -8v-290q0 -41 18 -65t60 -24q25 0 43 7.5t35 21.5v350q0 8 10 8h121
q8 0 8 -8v-378z" />
    <glyph glyph-name="v" unicode="v" horiz-adv-x="491" 
d="M178 0q-9 0 -12 7q-9 28 -22 67t-28 83t-30.5 90.5t-30.5 90.5t-28.5 83t-23.5 68q-2 8 7 8h131q8 0 11 -7q24 -84 41 -144.5t28 -102.5t17.5 -68.5t10.5 -43.5h2q4 17 11 43.5t19.5 68.5t31 102.5t44.5 144.5q3 7 9 7h116q3 0 5.5 -2t0.5 -7q-16 -44 -38.5 -109.5
t-46 -134t-45.5 -132t-37 -104.5q-2 -4 -4.5 -6t-7.5 -2h-131z" />
    <glyph glyph-name="w" unicode="w" horiz-adv-x="750" 
d="M463 0q-6 0 -8 2t-4 7q-19 76 -31.5 133t-21.5 98t-14 68.5t-9 45.5h-1q-9 -41 -18 -79t-19 -78t-22 -85.5t-28 -102.5q-3 -9 -11 -9h-125q-8 0 -10 2t-4 7l-130 479q-4 9 8 9h127q8 0 9 -7q20 -81 33 -140.5t21 -101.5t12.5 -69t7.5 -43h2q3 13 8 38.5t14 67.5
t23.5 102.5t36.5 143.5q1 9 9 9h132q7 0 8 -7q20 -83 33 -143.5t21 -103.5t12.5 -69.5t7.5 -41.5h2q5 24 11 57t14.5 77t21 99.5t30.5 124.5q2 7 9 7h117q3 0 5.5 -2t0.5 -6l-143 -480q-2 -5 -3.5 -7t-8.5 -2h-125z" />
    <glyph glyph-name="x" unicode="x" horiz-adv-x="471" 
d="M-6 487q-2 3 -1 6.5t6 3.5h139q6 0 8.5 -1.5t4.5 -6.5l85 -165h2l90 167q2 5 3.5 5.5t5.5 0.5h122q11 0 6 -9q-12 -21 -32 -52.5t-41 -65.5t-41.5 -65.5t-33.5 -51.5q17 -27 39.5 -61t45 -68.5t42.5 -65t33 -49.5q5 -9 -6 -9h-143q-10 0 -13 9l-89 166h-1l-93 -169
q-3 -6 -12 -6h-124q-5 0 -6 3t1 7q15 23 34.5 54t40 63.5t40.5 64t35 54.5z" />
    <glyph glyph-name="y" unicode="y" horiz-adv-x="487" 
d="M140 497q7 0 10 -7q43 -129 66.5 -208.5t34.5 -118.5q12 40 24 78.5t24.5 78t25.5 81.5t28 89q2 7 11 7h119q9 0 7 -9q-27 -84 -60 -175.5t-67.5 -180t-68 -170t-61.5 -145.5q-2 -3 -4.5 -5t-9.5 -2l-126 -10q-10 0 -5 9q22 45 44.5 94.5t46.5 106.5q2 5 2.5 8.5
t-1.5 8.5q-11 26 -32 79.5t-47 118.5t-53 135t-49 129q-2 4 0 6t6 2h135z" />
    <glyph glyph-name="z" unicode="z" horiz-adv-x="434" 
d="M17 0q-6 0 -6 7v70q0 4 1 6.5t2 4.5q24 33 59 77.5t70.5 88t64.5 78.5t40 50q-15 -1 -38.5 -1h-52.5h-135q-10 0 -7 10l16 97q1 9 10 9h362q7 0 8 -7v-72q0 -5 -1.5 -7.5t-3.5 -7.5q-27 -39 -62 -84t-68 -86.5t-59.5 -73.5t-35.5 -44q19 1 46 0.5t65 -0.5h130q5 0 7 -1.5
t0 -7.5l-18 -98q-1 -8 -8 -8h-386z" />
    <glyph glyph-name="braceleft" unicode="{" horiz-adv-x="392" 
d="M32 236q-5 0 -5 7v95q0 5 5 6q33 0 55 3.5t35.5 13t20 25t6.5 38.5q1 32 -2 70t-3 71t9.5 65t33.5 58t64.5 43.5t101.5 21.5q4 0 6 -0.5t2 -5.5l1 -85q0 -6 -6 -7q-33 -5 -52.5 -15t-29.5 -23t-13 -29t-3 -32q0 -35 2.5 -69t2.5 -67q0 -51 -24.5 -82.5t-73.5 -45.5v-3
q29 -7 48.5 -19.5t31 -30t16 -38t4.5 -42.5q1 -36 -3 -73.5t-4 -72.5q0 -18 4 -33.5t15 -27.5t30.5 -21t50.5 -13q5 -2 5.5 -2.5t0.5 -5.5v-86q0 -7 -6 -7q-100 8 -157 51.5t-57 134.5q0 35 4 68t4 75q0 46 -25.5 68t-94.5 22z" />
    <glyph glyph-name="bar" unicode="|" horiz-adv-x="247" 
d="M65 -196v980h117v-980h-117z" />
    <glyph glyph-name="braceright" unicode="}" horiz-adv-x="392" 
d="M360 343q5 0 5 -7v-96q0 -5 -5 -5q-33 0 -55.5 -4t-36 -13.5t-19.5 -25t-7 -38.5q0 -16 0.5 -35t1.5 -38.5l2 -39t1 -36.5q0 -30 -9 -61t-32.5 -57t-64 -44.5t-103.5 -24.5q-7 0 -7 6l-1 86q0 5 5 6q36 6 56 16.5t29.5 24t11.5 29t2 29.5q0 34 -3 72t-3 70q0 53 24.5 84
t73.5 45v3q-58 14 -79 50t-21 81q-1 35 3.5 68.5t4.5 68.5q0 16 -3.5 31.5t-14.5 28t-30.5 21.5t-52.5 14q-5 1 -5.5 2t-0.5 5v87q0 7 6 7q101 -5 157.5 -49.5t56.5 -136.5q0 -21 -1.5 -37t-3 -31t-2.5 -30.5t-1 -36.5q0 -46 25.5 -67.5t95.5 -21.5z" />
    <glyph glyph-name="asciitilde" unicode="~" horiz-adv-x="554" 
d="M40 175q-7 0 -7 8q-1 50 8.5 84.5t27.5 55.5t42.5 30.5t52.5 9.5q37 0 66 -13t68 -40q35 -24 53 -34.5t36 -10.5q21 0 31.5 17t8.5 67q0 7 8 7h79q7 0 7 -6q3 -54 -7 -89t-28.5 -56t-42.5 -29t-48 -8q-19 0 -35 3t-32 9t-32.5 15.5t-35.5 23.5q-34 24 -51.5 36.5
t-35.5 12.5q-9 0 -17 -3t-15 -12t-10.5 -26t-3.5 -45q0 -7 -7 -7h-80z" />
    <glyph glyph-name="uni00A0" unicode="&#xa0;" horiz-adv-x="227" 
 />
    <glyph glyph-name="exclamdown" unicode="&#xa1;" horiz-adv-x="268" 
d="M120 -177q-17 0 -39 3t-32 8q-6 4 -6 11v71q0 21 1.5 52t4 66.5t5 71.5t5 66.5t4.5 52.5t3 29q0 7 8 7h93q5 0 7 -7q1 -7 3 -28.5t4 -52t5 -66t5 -70.5t3.5 -66t1.5 -52v-71q0 -2 -0.5 -5.5t-5.5 -5.5q-6 -3 -15 -5.5t-19 -4.5t-20 -3t-16 -1zM121 498q36 0 58.5 -21
t22.5 -56t-23 -56.5t-58 -21.5q-37 0 -59.5 21.5t-22.5 56.5q0 36 22.5 56.5t59.5 20.5z" />
    <glyph glyph-name="cent" unicode="&#xa2;" horiz-adv-x="490" 
d="M363 -12q0 -7 -7 -7h-96q-6 0 -6 8v86q-44 8 -80.5 27t-63.5 48.5t-42 69t-15 88.5q0 50 16.5 90.5t44.5 70.5t64.5 49.5t76.5 27.5v85q0 5 7 5h94q7 0 7 -6v-79q15 0 34.5 -3t34.5 -9q5 -3 5 -11v-106q0 -11 -10 -6q-20 8 -43 11.5t-52 3.5q-65 0 -101.5 -31t-36.5 -86
q0 -35 13.5 -58t34.5 -36.5t46.5 -19.5t49.5 -6t47.5 3t46.5 11q7 3 7 -6v-102q0 -8 -8 -11q-16 -7 -33.5 -10t-34.5 -5v-86z" />
    <glyph glyph-name="sterling" unicode="&#xa3;" horiz-adv-x="502" 
d="M30 0q-6 0 -6 6v91q0 5 6 7q56 17 77.5 51.5t21.5 98.5v18h-81q-6 0 -6 7v80q0 6 7 6h76v29q0 55 15 101t43.5 78t71 50t96.5 18q66 0 93 -13q10 -4 10 -14v-104q0 -10 -8 -7q-35 16 -81 16q-54 0 -78 -29.5t-24 -93.5v-31h130q7 0 7 -6v-80q0 -7 -6 -7h-132
q-2 -52 -14.5 -87.5t-44.5 -59.5h288q10 0 7 -8l-17 -110q-1 -7 -8 -7h-443z" />
    <glyph glyph-name="currency" unicode="&#xa4;" horiz-adv-x="552" 
d="M186 315q0 -30 8 -50t21 -33t29 -18.5t32 -5.5q17 0 33.5 5t29 17.5t20.5 33t8 51.5q0 44 -23 75t-69 31q-41 0 -65 -29t-24 -77zM80 314q0 35 9.5 60t20.5 42l-75 73q-4 4 0 10l55 56q5 5 9 -1l74 -73q20 14 44.5 22.5t57.5 8.5q34 0 59 -8.5t46 -22.5l74 70q5 6 10 1
l53 -54q4 -5 0 -9l-75 -73q12 -17 21 -42.5t9 -60.5q0 -38 -8 -60.5t-21 -42.5l71 -70q6 -5 0 -10l-52 -52q-7 -5 -12 0l-67 71q-17 -13 -45 -22.5t-62 -9.5q-37 0 -63 9t-44 21l-65 -69q-3 -3 -5 -3.5t-7 2.5l-51 51q-5 3 -4.5 5.5t2.5 6.5l71 69q-13 19 -21.5 43t-8.5 62z
" />
    <glyph glyph-name="yen" unicode="&#xa5;" horiz-adv-x="527" 
d="M203 0q-9 1 -9 9v130h-128q-7 0 -7 6v70q0 7 7 7h128v55h-127q-8 0 -8 8v67q0 7 8 7h107l-169 265q-2 7 5 7h138q7 0 9 -4q30 -57 49.5 -94.5t32 -62t19 -40t10.5 -27.5h2q4 12 10.5 26.5t18.5 39t30.5 62t45.5 94.5q3 6 10 6h133q7 0 4 -7l-166 -265h105q6 0 6 -6v-70
q0 -2 -0.5 -4t-5.5 -2h-132v-55h132q6 0 6 -5v-71q0 -7 -7 -7h-131v-131q-1 -8 -8 -8h-118z" />
    <glyph glyph-name="brokenbar" unicode="&#xa6;" horiz-adv-x="247" 
d="M65 -196v392h117v-392h-117zM182 392h-117v392h117v-392z" />
    <glyph glyph-name="section" unicode="&#xa7;" horiz-adv-x="522" 
d="M344 16q31 40 31 93q0 14 -3.5 34t-14.5 45.5t-32 57t-55 67.5q-40 42 -63 70t-35.5 48.5t-17 35t-5.5 28.5q-23 -37 -22 -84q1 -17 5.5 -35.5t16 -41.5t32.5 -52t55 -67q61 -69 86.5 -114t21.5 -85zM55 11q0 7 7 4q42 -27 79.5 -35t63.5 -8q42 0 42 21q0 8 -2.5 16.5
t-13 23t-31 38t-55.5 62.5q-33 38 -56 71t-37 63.5t-20 61t-6 63.5q0 61 22 111.5t59.5 86.5t87.5 56t106 20q45 0 74 -6.5t43 -16.5q4 -3 4.5 -5t0.5 -5v-104q0 -5 -3.5 -6t-5.5 1q-33 18 -64 25t-57 7t-37 -6.5t-11 -17.5q0 -8 4 -16t15 -21t30.5 -33t49.5 -51
q31 -32 56 -62t43 -63t27.5 -70t9.5 -81q0 -61 -22 -112t-59.5 -88t-87 -58t-104.5 -21q-52 0 -91 11t-55 22q-3 2 -4.5 4.5t-1.5 8.5v109z" />
    <glyph glyph-name="dieresis" unicode="&#xa8;" 
d="M93 559q-30 0 -49 18.5t-19 50.5q0 31 20 50.5t50 19.5q29 0 48 -19.5t19 -51.5t-19.5 -50t-49.5 -18zM293 559q-29 0 -48 18.5t-19 50.5q0 31 20 50.5t49 19.5q30 0 48 -19.5t18 -51.5q0 -31 -19 -49.5t-49 -18.5z" />
    <glyph glyph-name="copyright" unicode="&#xa9;" horiz-adv-x="756" 
d="M45 329q0 71 25.5 131.5t70.5 105t106 69.5t132 25q70 0 130.5 -25t105.5 -69.5t70.5 -105t25.5 -131.5q0 -73 -25.5 -134.5t-70.5 -106t-105.5 -69.5t-130.5 -25q-71 0 -132 25t-106 69.5t-70.5 106t-25.5 134.5zM116 329q0 -59 20.5 -108.5t55.5 -85t83 -55.5t104 -20
q60 0 109 20t83 55.5t52 85t18 108.5t-20.5 108t-56 84.5t-83.5 55t-103 19.5q-59 0 -107 -20t-82.5 -56t-53.5 -85t-19 -106zM504 175q0 -6 -6 -9q-20 -8 -45.5 -12t-51.5 -4q-44 0 -78.5 13.5t-59.5 37.5t-38 56t-13 70q0 40 14.5 73.5t40.5 58t62 38t80 13.5
q32 0 51.5 -4t33.5 -9q5 -2 5.5 -5t0.5 -6v-72q0 -9 -8 -6q-15 6 -33 10t-39 4q-48 0 -75.5 -24.5t-27.5 -66.5q0 -25 9 -42.5t23.5 -29t33 -16.5t37.5 -5q25 0 43.5 3.5t34.5 10.5q3 2 4.5 0.5t1.5 -3.5v-74z" />
    <glyph glyph-name="ordfeminine" unicode="&#xaa;" horiz-adv-x="364" 
d="M173 588q72 0 110.5 -36.5t38.5 -95.5v-163q0 -5 -1.5 -6l-4.5 -3q-35 -10 -72.5 -16.5t-72.5 -6.5q-30 0 -57.5 5.5t-48 18t-33 32.5t-12.5 49q0 32 18 53.5t47 34t65 16t72 -0.5v4q0 11 -12 21.5t-52 10.5q-25 0 -49.5 -4t-47.5 -13q-7 -2 -7 5v69q0 3 3 5
q26 11 56.5 16t59.5 5zM119 369q0 -14 13.5 -22.5t44.5 -8.5q15 0 27.5 1.5t17.5 3.5v58q-46 3 -74.5 -3t-28.5 -29z" />
    <glyph glyph-name="guillemotleft" unicode="&#xab;" horiz-adv-x="585" 
d="M53 283q0 7 6 9l212 177q11 5 11 -6v-105q0 -5 -1.5 -7.5t-6.5 -6.5l-111 -97l113 -96q5 -4 5 -12v-110q0 -11 -10 -6l-213 181q-5 4 -5 10v69zM300 283q0 5 5 6l213 180q9 4 9 -6v-105q0 -8 -6 -14l-112 -97l112 -96q6 -5 6 -12v-110q0 -11 -10 -6l-212 181q-5 4 -5 10
v69z" />
    <glyph glyph-name="logicalnot" unicode="&#xac;" horiz-adv-x="552" 
d="M514 408q7 0 7 -7v-287q0 -7 -6 -7h-90q-6 0 -6 7v195h-383q-6 0 -6 8v84q0 7 6 7h478z" />
    <glyph glyph-name="uni00AD" unicode="&#xad;" horiz-adv-x="335" 
d="M47 198q-7 0 -7 8v105q0 7 7 7h241q6 0 6 -7v-106q0 -7 -5 -7h-242z" />
    <glyph glyph-name="registered" unicode="&#xae;" horiz-adv-x="249" 
d="M134 391q-31 0 -56.5 10.5t-43.5 29t-28 43.5t-10 54q0 28 10 53t28.5 44t44 29.5t55.5 10.5t55 -10.5t43 -29.5t28 -44t10 -53q0 -30 -10.5 -55t-28.5 -43t-43 -28.5t-54 -10.5zM134 424q46 0 73.5 28t27.5 76q0 45 -28.5 75t-74.5 30t-73 -29t-27 -77q0 -43 28.5 -73
t73.5 -30zM116 472q0 -5 -2 -5h-30q-2 0 -2 5v122q0 3 2 3h49q31 0 44.5 -10t13.5 -30q0 -25 -28 -36q2 -3 7 -9.5t10.5 -13.5l11 -14t8.5 -12q2 -5 -2 -5h-35q-2 0 -3.5 1.5l-2.5 2.5q-5 7 -11 17t-14 21q-2 3 -6 3h-10v-40zM116 540h18q20 0 20 15q0 12 -21 12h-17v-27z
" />
    <glyph glyph-name="macron" unicode="&#xaf;" 
d="M340 675q7 0 7 -8v-82q0 -7 -8 -7h-289q-7 0 -7 8v81q0 8 8 8h289z" />
    <glyph glyph-name="degree" unicode="&#xb0;" horiz-adv-x="294" 
d="M149 641q28 0 52 -10t40.5 -27.5t26 -41.5t9.5 -52q0 -27 -9 -51t-25.5 -42t-40.5 -28.5t-53 -10.5q-30 0 -54 10.5t-41 28.5t-26.5 42t-9.5 51t9.5 51t26.5 42t41.5 28t53.5 10zM149 575q-26 0 -43 -18.5t-17 -46.5q0 -27 17 -45.5t43 -18.5q25 0 42 18.5t17 45.5
q0 28 -17 46.5t-42 18.5z" />
    <glyph glyph-name="plusminus" unicode="&#xb1;" horiz-adv-x="561" 
d="M325 626q7 0 7 -9v-181h188q6 0 6 -9v-82q0 -7 -8 -7h-186v-183q0 -7 -8 -7h-87q-7 0 -7 7v183h-187q-8 0 -8 8v83q0 7 7 7h188v184q0 6 6 6h89zM520 99q6 0 6 -9v-82q0 -8 -8 -8h-475q-8 0 -8 9v83q0 7 7 7h478z" />
    <glyph glyph-name="twosuperior" unicode="&#xb2;" horiz-adv-x="342" 
d="M30 428q-5 0 -5 6v57q0 4 3 7q22 14 51.5 32t56 39t44.5 43.5t18 45.5q0 20 -13.5 34.5t-51.5 14.5q-50 0 -93 -24q-8 -5 -8 3v74q0 7 5 10q23 14 51.5 21t67.5 8q35 0 61.5 -10t44.5 -27t27 -39.5t9 -48.5q0 -50 -29 -85t-80 -70h125q5 0 5 -5l-15 -80q-3 -6 -7 -6h-267
z" />
    <glyph glyph-name="threesuperior" unicode="&#xb3;" horiz-adv-x="338" 
d="M102 644q0 6 5 6h37q29 0 41 8t12 21q0 17 -15 25t-48 8q-44 0 -92 -23q-7 -4 -7 3v74q0 4 4 7q26 14 56 20t63 6q67 0 100 -28.5t33 -67.5q0 -29 -13 -48.5t-35 -30.5v-1q24 -8 44.5 -29t20.5 -58q0 -30 -12.5 -51t-34 -35t-50.5 -20.5t-62 -6.5q-69 0 -114 24
q-4 2 -4.5 5t-0.5 5v76q0 5 6 3q55 -28 108 -28q35 0 50 8.5t15 23.5q0 20 -17 27t-50 7h-35q-5 0 -5 3v67z" />
    <glyph glyph-name="acute" unicode="&#xb4;" 
d="M223 703q4 10 12 10h134q12 0 5 -10l-123 -142q-8 -6 -14 -6h-107q-4 0 -5 2.5t1 4.5z" />
    <glyph glyph-name="uni00B5" unicode="&#xb5;" horiz-adv-x="571" 
d="M482 -10q-37 0 -66 15.5t-40 58.5q0 2 -0.5 5t-0.5 4q-19 -45 -51.5 -64t-67.5 -19q-19 0 -37.5 5.5t-29.5 19.5q3 -29 4 -78.5t0 -116.5q0 -9 -8 -10q-14 -2 -32.5 -3.5t-36.5 -3t-31.5 -2.5t-15.5 -1q-9 0 -9 9v680q0 8 9 8h123q7 0 7 -7v-303q0 -36 15 -57t47 -21
q18 0 35 8t30 26.5t20.5 49t7.5 75.5v223q0 6 6 6h127q6 0 6 -7v-341q0 -26 8 -36t26 -10h8.5t8.5 1q5 0 5 -7v-86q0 -10 -6 -12q-9 -4 -23.5 -6.5t-37.5 -2.5z" />
    <glyph glyph-name="paragraph" unicode="&#xb6;" horiz-adv-x="613" 
d="M522 655q8 0 6 -7q-2 -11 -3 -36t-1 -47l-2 -450v-72t0.5 -51t1.5 -36t3 -27q2 -7 -5 -7h-64q-5 0 -6 2l-2 4q-2 9 -3.5 22.5t-2.5 38t-1.5 64t-0.5 101.5v409h-69v-410q0 -56 -0.5 -94.5t-1.5 -64t-2.5 -41.5t-3.5 -26q-2 -6 -7 -6h-64q-5 0 -5 7q2 23 3.5 67.5
t1.5 118.5v191q-48 -1 -95.5 7t-85 28.5t-61 54.5t-23.5 85q0 47 20 80t57.5 54t91.5 31t122 10h202z" />
    <glyph glyph-name="periodcentered" unicode="&#xb7;" horiz-adv-x="279" 
d="M140 175q-37 0 -60 22.5t-23 61.5q0 38 23 60.5t60 22.5t60 -23.5t23 -59.5q0 -38 -22 -61t-61 -23z" />
    <glyph glyph-name="cedilla" unicode="&#xb8;" 
d="M248 7l-34 -45q42 -12 63.5 -34.5t21.5 -62.5q0 -42 -34.5 -70.5t-91.5 -28.5q-21 0 -42.5 3.5t-32.5 9.5q-7 3 -7 12v53q0 7 9 6q14 -6 32 -9.5t32 -3.5q17 0 28.5 6t11.5 20q0 15 -22.5 26.5t-71.5 17.5q-2 3 -2.5 14.5t1.5 14.5l58 71h81z" />
    <glyph glyph-name="onesuperior" unicode="&#xb9;" horiz-adv-x="269" 
d="M107 428q-7 0 -7 8v259q-17 -6 -30.5 -9t-26.5 -6q-6 -2 -6 5v70q0 5 4 5q21 5 44 13t42 17q3 3 9 3h67q4 -2 4 -7v-351q0 -7 -6 -7h-94z" />
    <glyph glyph-name="ordmasculine" unicode="&#xba;" horiz-adv-x="393" 
d="M199 588q42 0 74 -13t53.5 -35.5t32.5 -52.5t11 -64q0 -39 -13 -69t-35.5 -50.5t-54.5 -31.5t-69 -11q-45 0 -78 13.5t-54.5 36.5t-32 52.5t-10.5 61.5q0 36 12.5 66t35.5 51.5t55.5 33.5t72.5 12zM198 507q-31 0 -47 -22t-16 -58q0 -32 16 -57.5t48 -25.5
q30 0 46.5 21.5t16.5 59.5q0 15 -3.5 29.5t-11 26t-19.5 19t-30 7.5z" />
    <glyph glyph-name="guillemotright" unicode="&#xbb;" horiz-adv-x="585" 
d="M532 209q0 -6 -5 -8l-213 -178q-10 -5 -10 6v106q0 5 1.5 7t5.5 6l112 97l-113 97q-6 4 -6 12v109q0 11 11 6l213 -180q4 -4 4 -10v-70zM286 209q0 -5 -6 -6l-213 -180q-9 -5 -9 6v106q0 5 1 7t6 6l111 97l-111 96q-5 4 -6 6t-1 7v109q0 11 10 6l213 -180q5 -4 5 -10v-70
z" />
    <glyph glyph-name="onequarter" unicode="&#xbc;" horiz-adv-x="738" 
d="M135 -10q-7 0 -3 7l352 637q2 5 7 5h83q7 0 3 -6l-351 -637q-3 -6 -9 -6h-82zM107 267q-7 0 -7 8v259q-17 -6 -30.5 -9t-26.5 -6q-6 -2 -6 5v70q0 5 4 5q21 5 44 13t42 17q3 3 9 3h67q4 -2 4 -7v-351q0 -7 -6 -7h-94zM567 0q-6 0 -6 6v75h-162q-5 0 -5 5v50q0 6 3 9
q12 16 32.5 45t43 60.5t44 61t33.5 46.5q4 6 11 6h84q6 0 6 -7v-204h57q4 0 4 -6l-9 -61q-1 -5 -5 -5h-47v-75q0 -6 -6 -6h-78zM561 153v46.5t0.5 33t1 23t0.5 17.5h-2q-6 -11 -17.5 -27.5t-23.5 -34.5t-22.5 -34t-16.5 -24h80z" />
    <glyph glyph-name="onehalf" unicode="&#xbd;" horiz-adv-x="769" 
d="M125 -10q-8 0 -4 7l352 637q2 5 8 5h82q7 0 3 -6l-350 -637q-2 -3 -3.5 -4.5t-6.5 -1.5h-81zM107 267q-7 0 -7 8v259q-17 -6 -30 -9l-26 -6q-7 -1 -7 5v70q0 5 5 5q20 5 43.5 13t41.5 17q4 3 9 3h67q4 -2 4 -7v-351q0 -7 -6 -7h-94zM452 0q-5 0 -5 6v57q0 3 1 4l2 2
q22 14 51.5 32.5t56 39.5t44.5 43.5t18 45.5q0 20 -13.5 34.5t-51.5 14.5q-26 0 -48.5 -6.5t-44.5 -18.5q-8 -3 -8 4v74q0 6 5 10q23 14 51.5 21t67.5 7q71 0 106.5 -36.5t35.5 -87.5q0 -50 -29 -85t-80 -70h125q5 0 5 -5l-15 -80q-3 -6 -7 -6h-267z" />
    <glyph glyph-name="threequarters" unicode="&#xbe;" horiz-adv-x="775" 
d="M184 -10q-7 0 -3 7l352 637q2 5 7 5h83q7 0 3 -6l-351 -637q-3 -6 -9 -6h-82zM608 0q-6 0 -6 6v75h-162q-5 0 -5 5v50q0 6 4 9q11 16 31.5 45t43 60.5t44 61t33.5 46.5q4 6 11 6h84q6 0 6 -7v-204h57q5 0 4 -6l-8 -61q-1 -5 -6 -5h-47v-75q0 -6 -6 -6h-78zM602 153v46.5
t0.5 33t1 23t0.5 17.5h-2q-6 -11 -17 -27.5l-23 -34.5t-22.5 -34t-16.5 -24h79zM103 483q0 6 5 6h37q29 0 40.5 8t11.5 21q0 17 -14.5 25t-48.5 8q-44 0 -92 -23q-6 -4 -6 3v74q0 4 4 7q25 14 55 20t63 6q67 0 100.5 -28.5t33.5 -67.5q0 -29 -13 -48.5t-35 -30.5v-1
q24 -8 44 -29t20 -58q0 -30 -12.5 -51t-34 -35t-50.5 -20.5t-62 -6.5q-68 0 -114 24q-5 4 -5 10v76q0 5 6 3q28 -14 55.5 -21t53.5 -7q34 0 49 8.5t15 23.5q0 20 -17 27t-49 7h-35q-5 0 -5 3v67z" />
    <glyph glyph-name="questiondown" unicode="&#xbf;" horiz-adv-x="392" 
d="M210 -178q-47 0 -83 12.5t-61 34t-37.5 50.5t-12.5 62q0 48 17.5 79.5t45.5 57.5q30 27 53 51t23 45q0 23 -14 51q-2 3 -0.5 5.5t4.5 2.5h101q4 0 6.5 -0.5t7.5 -3.5q14 -16 19 -35t5 -34q0 -34 -19 -60t-56 -62q-24 -23 -37.5 -39.5t-13.5 -36.5q0 -22 17 -36t61 -14
q40 0 71 10t57 23q8 5 8 -5v-111v-6.5t-4 -5.5q-18 -9 -57 -22t-101 -13zM201 498q34 0 56 -20.5t22 -58.5q0 -36 -22 -57t-56 -21q-36 0 -58 21.5t-22 56.5t21 57t59 22z" />
    <glyph glyph-name="Agrave" unicode="&#xc0;" horiz-adv-x="616" 
d="M185 156l-48 -148q-3 -8 -11 -8h-116q-10 0 -8 10l200 577q3 8 5.5 20t4.5 41q0 7 6 7h160q7 0 8 -6l227 -640q4 -9 -5 -9h-130q-8 0 -11 7l-51 149h-231zM379 281q-8 25 -18.5 58.5t-21.5 69t-21.5 69.5t-17.5 61h-1q-6 -25 -15.5 -57t-20 -66.5t-21.5 -69.5t-21 -65
h158zM363 722q6 -9 -6 -9h-113q-9 0 -15 5l-139 111q-3 4 -2 7t6 3h142q9 0 14 -6z" />
    <glyph glyph-name="Aacute" unicode="&#xc1;" horiz-adv-x="616" 
d="M185 156l-48 -148q-3 -8 -11 -8h-116q-10 0 -8 10l200 577q3 8 5.5 20t4.5 41q0 7 6 7h160q7 0 8 -6l227 -640q4 -9 -5 -9h-130q-8 0 -11 7l-51 149h-231zM379 281q-8 25 -18.5 58.5t-21.5 69t-21.5 69.5t-17.5 61h-1q-6 -25 -15.5 -57t-20 -66.5t-21.5 -69.5t-21 -65
h158zM339 829q4 4 6 4.5t7 0.5h145q4 0 4.5 -3t-1.5 -6l-139 -110q-6 -7 -15 -7h-120q-11 0 -5 8z" />
    <glyph glyph-name="Acircumflex" unicode="&#xc2;" horiz-adv-x="616" 
d="M185 156l-48 -148q-3 -8 -11 -8h-116q-10 0 -8 10l200 577q3 8 5.5 20t4.5 41q0 7 6 7h160q7 0 8 -6l227 -640q4 -9 -5 -9h-130q-8 0 -11 7l-51 149h-231zM379 281q-8 25 -18.5 58.5t-21.5 69t-21.5 69.5t-17.5 61h-1q-6 -25 -15.5 -57t-20 -66.5t-21.5 -69.5t-21 -65
h158zM298 771l-57 -60q-5 -6 -11 -6h-103q-3 0 -4 3.5t1 5.5l115 119q6 3 11 3h102q10 0 13 -4l119 -120q5 -7 -5 -7h-109q-8 0 -14 6z" />
    <glyph glyph-name="Atilde" unicode="&#xc3;" horiz-adv-x="616" 
d="M185 156l-48 -148q-3 -8 -11 -8h-116q-10 0 -8 10l200 577q3 8 5.5 20t4.5 41q0 7 6 7h160q7 0 8 -6l227 -640q4 -9 -5 -9h-130q-8 0 -11 7l-51 149h-231zM379 281q-8 25 -18.5 58.5t-21.5 69t-21.5 69.5t-17.5 61h-1q-6 -25 -15.5 -57t-20 -66.5t-21.5 -69.5t-21 -65
h158zM135 705q-9 0 -9 7q1 71 32.5 103t74.5 32q24 0 43 -7.5t34.5 -17t28.5 -17t25 -7.5t18 11.5t8 28.5q2 6 7 6h75q8 0 8 -7q-1 -38 -9.5 -64t-22.5 -41.5t-32 -22t-38 -6.5q-23 0 -41.5 7.5t-34 16t-29.5 16t-27 7.5q-10 0 -18.5 -9.5t-10.5 -29.5q0 -6 -6 -6h-76z" />
    <glyph glyph-name="Adieresis" unicode="&#xc4;" horiz-adv-x="616" 
d="M185 156l-48 -148q-3 -8 -11 -8h-116q-10 0 -8 10l200 577q3 8 5.5 20t4.5 41q0 7 6 7h160q7 0 8 -6l227 -640q4 -9 -5 -9h-130q-8 0 -11 7l-51 149h-231zM379 281q-8 25 -18.5 58.5t-21.5 69t-21.5 69.5t-17.5 61h-1q-6 -25 -15.5 -57t-20 -66.5t-21.5 -69.5t-21 -65
h158zM191 706q-32 0 -52 17.5t-20 47.5q0 29 21 48.5t54 19.5t52.5 -19.5t19.5 -48.5q0 -30 -20.5 -47.5t-54.5 -17.5zM407 706q-32 0 -52 17.5t-20 47.5q0 29 21 48.5t53 19.5t52 -19.5t20 -48.5q0 -31 -20.5 -48t-53.5 -17z" />
    <glyph glyph-name="Aring" unicode="&#xc5;" horiz-adv-x="616" 
d="M185 156l-48 -148q-3 -8 -11 -8h-116q-10 0 -8 10l200 577q3 8 5.5 20t4.5 41q0 7 6 7h160q7 0 8 -6l227 -640q4 -9 -5 -9h-130q-8 0 -11 7l-51 149h-231zM379 281q-8 25 -18.5 58.5t-21.5 69t-21.5 69.5t-17.5 61h-1q-6 -25 -15.5 -57t-20 -66.5t-21.5 -69.5t-21 -65
h158zM188 777q0 44 31.5 68t79.5 24q49 0 80.5 -25t31.5 -67q0 -46 -32 -70.5t-80 -24.5t-79.5 24.5t-31.5 70.5zM259 777q0 -17 11.5 -27.5t28.5 -10.5q18 0 30 10t12 28q0 16 -12 26t-30 10t-29 -10t-11 -26z" />
    <glyph glyph-name="AE" unicode="&#xc6;" horiz-adv-x="841" 
d="M-7 0q-5 0 -6.5 2.5t1.5 7.5l282 581l7 17.5t13 40.5q3 6 9 6h481q8 0 9 -7l7 -111q1 -7 -8 -7h-267l10 -134h244q6 0 6 -7l-5 -112q-1 -6 -7 -6h-227l14 -146h267q7 0 6 -8l-21 -110q-2 -5 -3.5 -6t-5.5 -1h-366q-5 0 -5 4l-16 180h-197l-81 -177q-4 -7 -10 -7h-131z
M403 309l-13 147q-2 24 -4 51t-4 52h-2q-6 -15 -13 -32l-14 -34t-13.5 -32.5t-10.5 -26.5l-59 -125h133z" />
    <glyph glyph-name="Ccedilla" unicode="&#xc7;" horiz-adv-x="559" 
d="M527 22q0 -11 -8 -14q-25 -9 -61 -13.5t-78 -4.5q-73 0 -136 21.5t-109.5 63.5t-73 104.5t-26.5 144.5q0 76 25.5 139t72.5 108t113.5 69.5t149.5 24.5q93 0 130 -17q7 -3 7 -12v-109q0 -7 -3 -8t-6 1q-25 12 -58.5 17t-71.5 5q-101 0 -158.5 -57.5t-57.5 -155.5
q0 -59 19.5 -99.5t50.5 -66.5t70.5 -37.5t78.5 -11.5q37 0 66 3.5t56 12.5q8 3 8 -5v-103zM404 7l-34 -45q41 -12 63 -34.5t22 -62.5q0 -44 -34.5 -71.5t-91.5 -27.5q-21 0 -42 3.5t-34 9.5q-6 2 -6 8v58q0 6 7 5q14 -6 33 -9.5t33 -3.5q17 0 28.5 6t11.5 20q0 15 -23 27
t-71 17q-2 3 -2.5 14.5t1.5 14.5l58 71h81z" />
    <glyph glyph-name="Egrave" unicode="&#xc8;" horiz-adv-x="540" 
d="M497 9q-1 -6 -3 -7.5t-7 -1.5h-407q-8 0 -8 9v637q0 9 8 9h395q10 0 11 -8l11 -108q2 -9 -7 -9h-279v-134h255q8 0 8 -8v-110q0 -7 -8 -7h-255v-146h295q6 0 7.5 -2t0.5 -7zM352 720q6 -9 -6 -9h-113q-9 0 -15 5l-139 111q-3 4 -2 7t6 3h142q9 0 14 -6z" />
    <glyph glyph-name="Eacute" unicode="&#xc9;" horiz-adv-x="540" 
d="M497 9q-1 -6 -3 -7.5t-7 -1.5h-407q-8 0 -8 9v637q0 9 8 9h395q10 0 11 -8l11 -108q2 -9 -7 -9h-279v-134h255q8 0 8 -8v-110q0 -7 -8 -7h-255v-146h295q6 0 7.5 -2t0.5 -7zM312 834q4 4 6 4.5t7 0.5h145q4 0 4.5 -3t-1.5 -6l-139 -110q-6 -7 -15 -7h-120q-11 0 -5 8z
" />
    <glyph glyph-name="Ecircumflex" unicode="&#xca;" horiz-adv-x="540" 
d="M497 9q-1 -6 -3 -7.5t-7 -1.5h-407q-8 0 -8 9v637q0 9 8 9h395q10 0 11 -8l11 -108q2 -9 -7 -9h-279v-134h255q8 0 8 -8v-110q0 -7 -8 -7h-255v-146h295q6 0 7.5 -2t0.5 -7zM271 775l-57 -60q-5 -6 -11 -6h-103q-3 0 -4 3.5t1 5.5l115 119q6 3 11 3h102q10 0 13 -4
l119 -120q5 -7 -5 -7h-109q-8 0 -14 6z" />
    <glyph glyph-name="Edieresis" unicode="&#xcb;" horiz-adv-x="540" 
d="M497 9q-1 -6 -3 -7.5t-7 -1.5h-407q-8 0 -8 9v637q0 9 8 9h395q10 0 11 -8l11 -108q2 -9 -7 -9h-279v-134h255q8 0 8 -8v-110q0 -7 -8 -7h-255v-146h295q6 0 7.5 -2t0.5 -7zM166 711q-32 0 -52 17.5t-20 47.5q0 29 21 48.5t54 19.5t52.5 -19.5t19.5 -48.5
q0 -30 -20.5 -47.5t-54.5 -17.5zM382 711q-32 0 -52 17.5t-20 47.5q0 29 21 48.5t53 19.5t52 -19.5t20 -48.5q0 -31 -20.5 -48t-53.5 -17z" />
    <glyph glyph-name="Igrave" unicode="&#xcc;" horiz-adv-x="283" 
d="M211 9q0 -9 -9 -9h-122q-8 0 -8 9v637q0 6 2 7.5t6 1.5h122q9 0 9 -9v-637zM205 724q6 -9 -6 -9h-113q-9 0 -15 5l-139 111q-3 4 -2 7t6 3h142q9 0 14 -6z" />
    <glyph glyph-name="Iacute" unicode="&#xcd;" horiz-adv-x="283" 
d="M211 9q0 -9 -9 -9h-122q-8 0 -8 9v637q0 6 2 7.5t6 1.5h122q9 0 9 -9v-637zM189 831q4 4 6 4.5t7 0.5h145q4 0 4.5 -3t-1.5 -6l-139 -110q-6 -7 -15 -7h-120q-11 0 -5 8z" />
    <glyph glyph-name="Icircumflex" unicode="&#xce;" horiz-adv-x="283" 
d="M211 9q0 -9 -9 -9h-122q-8 0 -8 9v637q0 6 2 7.5t6 1.5h122q9 0 9 -9v-637zM136 769l-57 -60q-5 -6 -11 -6h-103q-3 0 -4 3.5t1 5.5l115 119q6 3 11 3h102q10 0 13 -4l119 -120q5 -7 -5 -7h-109q-8 0 -14 6z" />
    <glyph glyph-name="Idieresis" unicode="&#xcf;" horiz-adv-x="283" 
d="M211 9q0 -9 -9 -9h-122q-8 0 -8 9v637q0 6 2 7.5t6 1.5h122q9 0 9 -9v-637zM32 709q-32 0 -52 17.5t-20 47.5q0 29 21 48.5t54 19.5t52.5 -19.5t19.5 -48.5q0 -30 -20.5 -47.5t-54.5 -17.5zM248 709q-32 0 -52 17.5t-20 47.5q0 29 21 48.5t53 19.5t52 -19.5t20 -48.5
q0 -31 -20.5 -48t-53.5 -17z" />
    <glyph glyph-name="Eth" unicode="&#xd0;" horiz-adv-x="679" 
d="M217 120q15 -1 28.5 -1.5t30.5 -0.5q49 0 89 14.5t68.5 42.5t44 68.5t15.5 92.5q0 100 -59 150t-155 50h-31.5t-30.5 -1v-149h145q4 0 5 -0.5t1 -5.5v-85q0 -5 -1.5 -5.5t-5.5 -0.5h-144v-169zM78 646q0 7 7 8q23 1 75.5 2t119.5 1q90 0 156.5 -24t111 -66.5t66.5 -101
t22 -127.5q0 -90 -31.5 -154t-82 -105.5t-113.5 -61t-127 -19.5h-54.5h-57.5t-51 0.5t-35 1.5q-6 0 -6 10v279h-60q-7 0 -7 7v84q0 6 6 6h61v260z" />
    <glyph glyph-name="Ntilde" unicode="&#xd1;" horiz-adv-x="688" 
d="M81 0q-5 0 -7 1.5t-2 7.5v638q0 8 7 8h162q6 0 8 -1.5t5 -6.5q17 -31 38.5 -71.5t45 -85.5t47 -91t43.5 -86.5t36 -73.5t24 -51h1q0 11 -0.5 23t-1 29.5t-1 42.5t-0.5 62v301q0 9 9 9h112q9 0 9 -10v-635q0 -10 -11 -10h-144q-7 0 -9.5 1.5t-4.5 6.5l-35 67.5t-45 86.5
t-49.5 95.5t-48.5 96t-42 86t-29 66.5h-1q1 -22 2 -41.5t2 -41t1 -48v-61.5v-305q0 -9 -8 -9h-113zM183 715q-9 0 -9 7q1 71 32.5 103t74.5 32q24 0 43 -7.5t34.5 -17t28.5 -17t25 -7.5t18 11.5t8 28.5q2 6 7 6h75q8 0 8 -7q-1 -38 -9.5 -64t-22.5 -41.5t-32 -22t-38 -6.5
q-23 0 -41.5 7.5t-34 16t-29.5 16t-27 7.5q-10 0 -18.5 -9.5t-10.5 -29.5q0 -6 -6 -6h-76z" />
    <glyph glyph-name="Ograve" unicode="&#xd2;" horiz-adv-x="697" 
d="M349 665q75 0 132.5 -26.5t97.5 -72t61 -106t21 -129.5q0 -77 -22.5 -139.5t-64 -107.5t-99.5 -69.5t-128 -24.5q-74 0 -131.5 25.5t-98 70.5t-61.5 107t-21 135q0 70 22.5 131.5t63.5 107t99 72t129 26.5zM178 327q0 -45 11.5 -84.5t33.5 -68t54.5 -45t74.5 -16.5
q39 0 70 15.5t52 43.5t32.5 67.5t11.5 87.5q-1 100 -45.5 157.5t-125.5 57.5q-75 0 -122 -56t-47 -159zM425 731q6 -9 -6 -9h-113q-9 0 -15 5l-139 111q-3 4 -2 7t6 3h142q9 0 14 -6z" />
    <glyph glyph-name="Oacute" unicode="&#xd3;" horiz-adv-x="697" 
d="M349 665q75 0 132.5 -26.5t97.5 -72t61 -106t21 -129.5q0 -77 -22.5 -139.5t-64 -107.5t-99.5 -69.5t-128 -24.5q-74 0 -131.5 25.5t-98 70.5t-61.5 107t-21 135q0 70 22.5 131.5t63.5 107t99 72t129 26.5zM178 327q0 -45 11.5 -84.5t33.5 -68t54.5 -45t74.5 -16.5
q39 0 70 15.5t52 43.5t32.5 67.5t11.5 87.5q-1 100 -45.5 157.5t-125.5 57.5q-75 0 -122 -56t-47 -159zM379 839q4 4 6 4.5t7 0.5h145q4 0 4.5 -3t-1.5 -6l-139 -110q-6 -7 -15 -7h-120q-11 0 -5 8z" />
    <glyph glyph-name="Ocircumflex" unicode="&#xd4;" horiz-adv-x="697" 
d="M349 665q75 0 132.5 -26.5t97.5 -72t61 -106t21 -129.5q0 -77 -22.5 -139.5t-64 -107.5t-99.5 -69.5t-128 -24.5q-74 0 -131.5 25.5t-98 70.5t-61.5 107t-21 135q0 70 22.5 131.5t63.5 107t99 72t129 26.5zM178 327q0 -45 11.5 -84.5t33.5 -68t54.5 -45t74.5 -16.5
q39 0 70 15.5t52 43.5t32.5 67.5t11.5 87.5q-1 100 -45.5 157.5t-125.5 57.5q-75 0 -122 -56t-47 -159zM343 777l-57 -60q-5 -6 -11 -6h-103q-3 0 -4 3.5t1 5.5l115 119q6 3 11 3h102q10 0 13 -4l119 -120q5 -7 -5 -7h-109q-8 0 -14 6z" />
    <glyph glyph-name="Otilde" unicode="&#xd5;" horiz-adv-x="697" 
d="M349 665q75 0 132.5 -26.5t97.5 -72t61 -106t21 -129.5q0 -77 -22.5 -139.5t-64 -107.5t-99.5 -69.5t-128 -24.5q-74 0 -131.5 25.5t-98 70.5t-61.5 107t-21 135q0 70 22.5 131.5t63.5 107t99 72t129 26.5zM178 327q0 -45 11.5 -84.5t33.5 -68t54.5 -45t74.5 -16.5
q39 0 70 15.5t52 43.5t32.5 67.5t11.5 87.5q-1 100 -45.5 157.5t-125.5 57.5q-75 0 -122 -56t-47 -159zM181 714q-9 0 -9 7q1 71 32.5 103t74.5 32q24 0 43 -7.5t34.5 -17t28.5 -17t25 -7.5t18 11.5t8 28.5q2 6 7 6h75q8 0 8 -7q-1 -38 -9.5 -64t-22.5 -41.5t-32 -22
t-38 -6.5q-23 0 -41.5 7.5t-34 16t-29.5 16t-27 7.5q-10 0 -18.5 -9.5t-10.5 -29.5q0 -6 -6 -6h-76z" />
    <glyph glyph-name="Odieresis" unicode="&#xd6;" horiz-adv-x="697" 
d="M349 665q75 0 132.5 -26.5t97.5 -72t61 -106t21 -129.5q0 -77 -22.5 -139.5t-64 -107.5t-99.5 -69.5t-128 -24.5q-74 0 -131.5 25.5t-98 70.5t-61.5 107t-21 135q0 70 22.5 131.5t63.5 107t99 72t129 26.5zM178 327q0 -45 11.5 -84.5t33.5 -68t54.5 -45t74.5 -16.5
q39 0 70 15.5t52 43.5t32.5 67.5t11.5 87.5q-1 100 -45.5 157.5t-125.5 57.5q-75 0 -122 -56t-47 -159zM239 713q-32 0 -52 17.5t-20 47.5q0 29 21 48.5t54 19.5t52.5 -19.5t19.5 -48.5q0 -30 -20.5 -47.5t-54.5 -17.5zM455 713q-32 0 -52 17.5t-20 47.5q0 29 21 48.5
t53 19.5t52 -19.5t20 -48.5q0 -31 -20.5 -48t-53.5 -17z" />
    <glyph glyph-name="multiply" unicode="&#xd7;" horiz-adv-x="555" 
d="M90 503q7 6 13 0l175 -182l176 182q5 7 12 1l52 -56q5 -7 0 -12l-177 -179l178 -180q2 -1 3 -4t-3 -7l-54 -54q-6 -6 -13 1l-174 179l-175 -180l-4 -4t-6 3l-57 56q-6 6 2 12l176 178l-177 180q-1 2 -2.5 4.5t3.5 7.5z" />
    <glyph glyph-name="Oslash" unicode="&#xd8;" horiz-adv-x="697" 
d="M260 133q20 -11 43 -17.5t49 -6.5q41 0 73.5 15.5t55 44t34 69t11.5 89.5q0 83 -32 139zM438 524q-38 23 -91 23q-80 0 -129 -57.5t-49 -162.5q0 -80 35 -138zM571 576q44 -47 66.5 -110t23.5 -135q0 -77 -22.5 -139.5t-64 -107.5t-99.5 -69.5t-128 -24.5q-46 0 -86 10
t-73 29l-18 -25q-3 -4 -9 -4h-80q-5 0 -6 2.5t1 4.5l50 71q-45 45 -68 109t-23 141q0 70 22.5 131.5t63.5 107t99 72t129 26.5q47 0 87 -10.5t73 -29.5l18 25q5 5 8 5h82q10 0 4 -8z" />
    <glyph glyph-name="Ugrave" unicode="&#xd9;" horiz-adv-x="657" 
d="M201 260q0 -65 31 -106t99 -41q28 0 51.5 8t39.5 25.5t25 46t9 69.5v384q0 9 8 9h122q9 0 9 -9v-392q0 -71 -21 -121t-57 -82t-85 -46.5t-105 -14.5q-61 0 -110 16t-83.5 48t-53 81t-18.5 114v397q0 5 1.5 7t7.5 2h122q8 0 8 -9v-386zM406 720q6 -9 -6 -9h-113
q-9 0 -15 5l-139 111q-3 4 -2 7t6 3h142q9 0 14 -6z" />
    <glyph glyph-name="Uacute" unicode="&#xda;" horiz-adv-x="657" 
d="M201 260q0 -65 31 -106t99 -41q28 0 51.5 8t39.5 25.5t25 46t9 69.5v384q0 9 8 9h122q9 0 9 -9v-392q0 -71 -21 -121t-57 -82t-85 -46.5t-105 -14.5q-61 0 -110 16t-83.5 48t-53 81t-18.5 114v397q0 5 1.5 7t7.5 2h122q8 0 8 -9v-386zM361 828q4 4 6 4.5t7 0.5h145
q4 0 4.5 -3t-1.5 -6l-139 -110q-6 -7 -15 -7h-120q-11 0 -5 8z" />
    <glyph glyph-name="Ucircumflex" unicode="&#xdb;" horiz-adv-x="657" 
d="M201 260q0 -65 31 -106t99 -41q28 0 51.5 8t39.5 25.5t25 46t9 69.5v384q0 9 8 9h122q9 0 9 -9v-392q0 -71 -21 -121t-57 -82t-85 -46.5t-105 -14.5q-61 0 -110 16t-83.5 48t-53 81t-18.5 114v397q0 5 1.5 7t7.5 2h122q8 0 8 -9v-386zM326 777l-57 -60q-5 -6 -11 -6h-103
q-3 0 -4 3.5t1 5.5l115 119q6 3 11 3h102q10 0 13 -4l119 -120q5 -7 -5 -7h-109q-8 0 -14 6z" />
    <glyph glyph-name="Udieresis" unicode="&#xdc;" horiz-adv-x="657" 
d="M201 260q0 -65 31 -106t99 -41q28 0 51.5 8t39.5 25.5t25 46t9 69.5v384q0 9 8 9h122q9 0 9 -9v-392q0 -71 -21 -121t-57 -82t-85 -46.5t-105 -14.5q-61 0 -110 16t-83.5 48t-53 81t-18.5 114v397q0 5 1.5 7t7.5 2h122q8 0 8 -9v-386zM220 711q-32 0 -52 17.5t-20 47.5
q0 29 21 48.5t54 19.5t52.5 -19.5t19.5 -48.5q0 -30 -20.5 -47.5t-54.5 -17.5zM436 711q-32 0 -52 17.5t-20 47.5q0 29 21 48.5t53 19.5t52 -19.5t20 -48.5q0 -31 -20.5 -48t-53.5 -17z" />
    <glyph glyph-name="Yacute" unicode="&#xdd;" horiz-adv-x="548" 
d="M-16 645q-4 5 -1 7.5t7 2.5h140q7 0 10 -6q36 -74 61 -123.5t41 -82.5t25.5 -52t14.5 -31q6 13 15 33t24 53t38 82t57 121q2 6 10 6h134q9 0 5 -9l-214 -388q-5 -8 -7 -15t-2 -17v-217q0 -9 -10 -9h-118q-11 0 -11 9v222q0 11 -1 17t-6 14zM311 830q4 4 6 4.5t7 0.5h145
q4 0 4.5 -3t-1.5 -6l-139 -110q-6 -7 -15 -7h-120q-11 0 -5 8z" />
    <glyph glyph-name="Thorn" unicode="&#xde;" horiz-adv-x="571" 
d="M69 657q0 7 7 7h124q8 0 8 -7v-115h93q51 0 94 -13t74.5 -38.5t49 -63.5t17.5 -87q0 -56 -20 -96.5t-54.5 -67t-81 -39.5t-98.5 -13h-74v-115q0 -9 -7 -9h-125q-7 0 -7 8v649zM208 244h75q116 0 116 89q0 41 -28 64.5t-85 23.5h-78v-177z" />
    <glyph glyph-name="germandbls" unicode="&#xdf;" horiz-adv-x="589" 
d="M79 0q-9 0 -9 8v373h-60q-6 0 -6 9v99q0 8 7 8h60v4q0 29 11 67t37.5 71.5t71.5 57t115 23.5q62 0 105.5 -21t69.5 -55.5t34.5 -79t1.5 -91.5q-59 -15 -82.5 -36t-23.5 -38q0 -13 9.5 -24.5t38.5 -33.5q30 -23 50.5 -44t33 -42t17.5 -42.5t5 -46.5q0 -36 -13.5 -68
t-40.5 -56t-67 -38t-93 -14q-59 0 -91 16q-5 2 -6 5.5t-1 10.5v101q0 8 7 5q24 -11 47 -15.5t46 -4.5q30 0 53 11t23 34q0 21 -18 39.5t-54 45.5q-48 37 -67 68t-19 72q0 48 33.5 85.5t80.5 62.5q0 13 -5 26.5t-15 25t-25 19t-36 7.5q-43 0 -68.5 -28.5t-25.5 -98.5l-1 -469
q0 -8 -8 -8h-122z" />
    <glyph glyph-name="agrave" unicode="&#xe0;" horiz-adv-x="507" 
d="M313 214q-12 2 -23.5 2.5t-26.5 0.5q-54 0 -77 -16t-23 -43q0 -25 20 -42.5t68 -17.5q33 0 62 9v107zM448 111v-36.5t2 -34.5q0 -4 -2 -5q-33 -13 -61 -21.5t-54 -14t-51 -7.5t-52 -2q-42 0 -78.5 10t-64 30t-43.5 51.5t-16 75.5q0 40 16.5 70t46.5 50.5t71.5 31
t91.5 10.5h36t23 -2v7q0 7 -3 18t-13.5 21t-29.5 17t-50 7q-38 0 -70.5 -7t-61.5 -20q-3 -2 -6 -0.5t-3 5.5v101q0 8 7 10q33 16 74 23.5t83 7.5q54 0 93 -15.5t64.5 -43t38 -64.5t12.5 -80v-193zM332 563q6 -8 -5 -8h-109q-6 0 -10 6l-127 141q-5 10 4 10h136q7 0 11 -6z
" />
    <glyph glyph-name="aacute" unicode="&#xe1;" horiz-adv-x="507" 
d="M313 214q-12 2 -23.5 2.5t-26.5 0.5q-54 0 -77 -16t-23 -43q0 -25 20 -42.5t68 -17.5q33 0 62 9v107zM448 111v-36.5t2 -34.5q0 -4 -2 -5q-33 -13 -61 -21.5t-54 -14t-51 -7.5t-52 -2q-42 0 -78.5 10t-64 30t-43.5 51.5t-16 75.5q0 40 16.5 70t46.5 50.5t71.5 31
t91.5 10.5h36t23 -2v7q0 7 -3 18t-13.5 21t-29.5 17t-50 7q-38 0 -70.5 -7t-61.5 -20q-3 -2 -6 -0.5t-3 5.5v101q0 8 7 10q33 16 74 23.5t83 7.5q54 0 93 -15.5t64.5 -43t38 -64.5t12.5 -80v-193zM270 703q4 10 12 10h134q12 0 5 -10l-123 -142q-8 -6 -14 -6h-107
q-4 0 -5 2.5t1 4.5z" />
    <glyph glyph-name="acircumflex" unicode="&#xe2;" horiz-adv-x="507" 
d="M313 214q-12 2 -23.5 2.5t-26.5 0.5q-54 0 -77 -16t-23 -43q0 -25 20 -42.5t68 -17.5q33 0 62 9v107zM448 111v-36.5t2 -34.5q0 -4 -2 -5q-33 -13 -61 -21.5t-54 -14t-51 -7.5t-52 -2q-42 0 -78.5 10t-64 30t-43.5 51.5t-16 75.5q0 40 16.5 70t46.5 50.5t71.5 31
t91.5 10.5h36t23 -2v7q0 7 -3 18t-13.5 21t-29.5 17t-50 7q-38 0 -70.5 -7t-61.5 -20q-3 -2 -6 -0.5t-3 5.5v101q0 8 7 10q33 16 74 23.5t83 7.5q54 0 93 -15.5t64.5 -43t38 -64.5t12.5 -80v-193zM245 643l-60 -85q-3 -3 -9 -3h-86q-5 0 -6 2.5t2 5.5l102 142q4 5 9 5h101
q6 0 9 -5l106 -143q2 -2 0.5 -4.5t-4.5 -2.5h-95q-7 0 -11 4z" />
    <glyph glyph-name="atilde" unicode="&#xe3;" horiz-adv-x="507" 
d="M313 214q-12 2 -23.5 2.5t-26.5 0.5q-54 0 -77 -16t-23 -43q0 -25 20 -42.5t68 -17.5q33 0 62 9v107zM448 111v-36.5t2 -34.5q0 -4 -2 -5q-33 -13 -61 -21.5t-54 -14t-51 -7.5t-52 -2q-42 0 -78.5 10t-64 30t-43.5 51.5t-16 75.5q0 40 16.5 70t46.5 50.5t71.5 31
t91.5 10.5h36t23 -2v7q0 7 -3 18t-13.5 21t-29.5 17t-50 7q-38 0 -70.5 -7t-61.5 -20q-3 -2 -6 -0.5t-3 5.5v101q0 8 7 10q33 16 74 23.5t83 7.5q54 0 93 -15.5t64.5 -43t38 -64.5t12.5 -80v-193zM82 554q-8 0 -8 7q0 37 8.5 63.5t23 43.5t34 25.5t41.5 8.5q24 0 44 -7.5
t37 -16.5t30.5 -16.5t24.5 -7.5q15 0 21 11.5t7 28.5q0 7 7 7h74q8 0 8 -6q0 -39 -7.5 -66.5t-21.5 -44.5t-33 -24.5t-41 -7.5t-40.5 7.5t-35 16t-31.5 16t-30 7.5q-11 0 -20 -9t-11 -31q0 -1 -1 -3t-4 -2h-76z" />
    <glyph glyph-name="adieresis" unicode="&#xe4;" horiz-adv-x="507" 
d="M313 214q-12 2 -23.5 2.5t-26.5 0.5q-54 0 -77 -16t-23 -43q0 -25 20 -42.5t68 -17.5q33 0 62 9v107zM448 111v-36.5t2 -34.5q0 -4 -2 -5q-33 -13 -61 -21.5t-54 -14t-51 -7.5t-52 -2q-42 0 -78.5 10t-64 30t-43.5 51.5t-16 75.5q0 40 16.5 70t46.5 50.5t71.5 31
t91.5 10.5h36t23 -2v7q0 7 -3 18t-13.5 21t-29.5 17t-50 7q-38 0 -70.5 -7t-61.5 -20q-3 -2 -6 -0.5t-3 5.5v101q0 8 7 10q33 16 74 23.5t83 7.5q54 0 93 -15.5t64.5 -43t38 -64.5t12.5 -80v-193zM154 561q-30 0 -49 18.5t-19 50.5q0 31 20 50.5t50 19.5q29 0 48 -19.5
t19 -51.5t-19.5 -50t-49.5 -18zM354 561q-29 0 -48 18.5t-19 50.5q0 31 20 50.5t49 19.5q30 0 48 -19.5t18 -51.5q0 -31 -19 -49.5t-49 -18.5z" />
    <glyph glyph-name="aring" unicode="&#xe5;" horiz-adv-x="507" 
d="M313 214q-12 2 -23.5 2.5t-26.5 0.5q-54 0 -77 -16t-23 -43q0 -25 20 -42.5t68 -17.5q33 0 62 9v107zM448 111v-36.5t2 -34.5q0 -4 -2 -5q-33 -13 -61 -21.5t-54 -14t-51 -7.5t-52 -2q-42 0 -78.5 10t-64 30t-43.5 51.5t-16 75.5q0 40 16.5 70t46.5 50.5t71.5 31
t91.5 10.5h36t23 -2v7q0 7 -3 18t-13.5 21t-29.5 17t-50 7q-38 0 -70.5 -7t-61.5 -20q-3 -2 -6 -0.5t-3 5.5v101q0 8 7 10q33 16 74 23.5t83 7.5q54 0 93 -15.5t64.5 -43t38 -64.5t12.5 -80v-193zM143 640q0 42 30 70t81 28q52 0 83 -27.5t31 -70.5q0 -46 -31.5 -73.5
t-82.5 -27.5t-81 26.5t-30 74.5zM213 640q0 -19 12 -30t29 -11q18 0 30.5 11t12.5 30q0 17 -12.5 28t-30.5 11q-17 0 -29 -11t-12 -28z" />
    <glyph glyph-name="ae" unicode="&#xe6;" horiz-adv-x="791" 
d="M165 157q0 -26 20 -42t58 -16q25 0 49 6.5t44 23.5q-7 17 -10.5 36.5t-4.5 49.5h-59q-51 0 -74 -14.5t-23 -43.5zM28 148q0 41 17.5 71t48.5 50t74 30t94 10h60v7q0 10 -3.5 22t-14 23t-30 18.5t-52.5 7.5q-38 0 -71 -7.5t-66 -23.5q-9 -3 -9 7v101q0 5 1.5 6t3.5 3
q38 18 80 26t84 8q60 0 97 -19t54 -46q25 27 63 46t95 19q55 0 94.5 -19.5t64.5 -50.5t37 -69t12 -75q0 -29 -3 -50.5t-7 -23.5q-17 -4 -44.5 -4.5t-62.5 -0.5h-195q5 -47 36.5 -76t104.5 -30q34 0 64 5t62 19q6 3 6 -5v-98q0 -9 -5 -11q-34 -17 -71 -22.5t-78 -5.5
q-60 0 -101.5 15t-72.5 43q-42 -30 -87 -44t-96 -14q-32 0 -64.5 8.5t-59 27t-43.5 48.5t-17 74zM545 397q-42 0 -66.5 -25t-28.5 -63h153q14 0 20 0.5t8 1.5q1 2 1 8q0 11 -4.5 24.5t-14.5 25.5t-26.5 20t-41.5 8z" />
    <glyph glyph-name="ccedilla" unicode="&#xe7;" horiz-adv-x="436" 
d="M411 14q0 -7 -5 -8q-24 -10 -53.5 -13t-58.5 -3q-61 0 -109.5 19.5t-83 53.5t-53 81t-18.5 102q0 56 20.5 104t57.5 83t89 54.5t116 19.5q37 0 58.5 -3t33.5 -8q6 -2 6 -11l-1 -103q0 -9 -8 -7q-14 5 -35 8.5t-49 3.5q-63 0 -104 -34t-41 -102q0 -39 13 -65.5t34 -42.5
t47.5 -23t52.5 -7t48 2.5t35 6.5q8 3 8 -4v-104zM322 7l-34 -45q42 -12 63.5 -34.5t21.5 -62.5q0 -42 -34.5 -70.5t-91.5 -28.5q-21 0 -42.5 3.5t-32.5 9.5q-7 3 -7 12v53q0 7 9 6q14 -6 32 -9.5t32 -3.5q17 0 28.5 6t11.5 20q0 15 -22.5 26.5t-71.5 17.5q-2 3 -2.5 14.5
t1.5 14.5l58 71h81z" />
    <glyph glyph-name="egrave" unicode="&#xe8;" horiz-adv-x="512" 
d="M172 212q2 -21 10.5 -40t26 -33.5t43.5 -22.5t63 -8q68 0 123 23q6 4 6 -5v-95q0 -9 -7 -12q-30 -14 -65.5 -21.5t-87.5 -7.5q-71 0 -119.5 22t-78.5 58t-43 81t-13 92q0 52 15.5 99.5t46.5 84t76 58.5t104 22q57 0 97 -20t65.5 -51t37 -69.5t11.5 -75.5q0 -49 -5 -67
q-1 -7 -8 -8q-10 -2 -37 -3t-66 -1h-195zM302 309q24 0 35.5 0.5t14.5 1.5v7q0 9 -4 22.5t-14 26t-26 21.5t-41 9q-24 0 -41 -8t-28.5 -20.5t-18 -28.5t-8.5 -31h131zM346 563q6 -8 -5 -8h-109q-6 0 -10 6l-127 141q-5 10 4 10h136q7 0 11 -6z" />
    <glyph glyph-name="eacute" unicode="&#xe9;" horiz-adv-x="512" 
d="M172 212q2 -21 10.5 -40t26 -33.5t43.5 -22.5t63 -8q68 0 123 23q6 4 6 -5v-95q0 -9 -7 -12q-30 -14 -65.5 -21.5t-87.5 -7.5q-71 0 -119.5 22t-78.5 58t-43 81t-13 92q0 52 15.5 99.5t46.5 84t76 58.5t104 22q57 0 97 -20t65.5 -51t37 -69.5t11.5 -75.5q0 -49 -5 -67
q-1 -7 -8 -8q-10 -2 -37 -3t-66 -1h-195zM302 309q24 0 35.5 0.5t14.5 1.5v7q0 9 -4 22.5t-14 26t-26 21.5t-41 9q-24 0 -41 -8t-28.5 -20.5t-18 -28.5t-8.5 -31h131zM285 703q4 10 12 10h134q12 0 5 -10l-123 -142q-8 -6 -14 -6h-107q-4 0 -5 2.5t1 4.5z" />
    <glyph glyph-name="ecircumflex" unicode="&#xea;" horiz-adv-x="512" 
d="M172 212q2 -21 10.5 -40t26 -33.5t43.5 -22.5t63 -8q68 0 123 23q6 4 6 -5v-95q0 -9 -7 -12q-30 -14 -65.5 -21.5t-87.5 -7.5q-71 0 -119.5 22t-78.5 58t-43 81t-13 92q0 52 15.5 99.5t46.5 84t76 58.5t104 22q57 0 97 -20t65.5 -51t37 -69.5t11.5 -75.5q0 -49 -5 -67
q-1 -7 -8 -8q-10 -2 -37 -3t-66 -1h-195zM302 309q24 0 35.5 0.5t14.5 1.5v7q0 9 -4 22.5t-14 26t-26 21.5t-41 9q-24 0 -41 -8t-28.5 -20.5t-18 -28.5t-8.5 -31h131zM262 643l-60 -85q-3 -3 -9 -3h-86q-5 0 -6 2.5t2 5.5l102 142q4 5 9 5h101q6 0 9 -5l106 -143
q2 -2 0.5 -4.5t-4.5 -2.5h-95q-7 0 -11 4z" />
    <glyph glyph-name="edieresis" unicode="&#xeb;" horiz-adv-x="512" 
d="M172 212q2 -21 10.5 -40t26 -33.5t43.5 -22.5t63 -8q68 0 123 23q6 4 6 -5v-95q0 -9 -7 -12q-30 -14 -65.5 -21.5t-87.5 -7.5q-71 0 -119.5 22t-78.5 58t-43 81t-13 92q0 52 15.5 99.5t46.5 84t76 58.5t104 22q57 0 97 -20t65.5 -51t37 -69.5t11.5 -75.5q0 -49 -5 -67
q-1 -7 -8 -8q-10 -2 -37 -3t-66 -1h-195zM302 309q24 0 35.5 0.5t14.5 1.5v7q0 9 -4 22.5t-14 26t-26 21.5t-41 9q-24 0 -41 -8t-28.5 -20.5t-18 -28.5t-8.5 -31h131zM159 559q-30 0 -49 18.5t-19 50.5q0 31 20 50.5t50 19.5q29 0 48 -19.5t19 -51.5t-19.5 -50t-49.5 -18z
M359 559q-29 0 -48 18.5t-19 50.5q0 31 20 50.5t49 19.5q30 0 48 -19.5t18 -51.5q0 -31 -19 -49.5t-49 -18.5z" />
    <glyph glyph-name="igrave" unicode="&#xec;" horiz-adv-x="259" 
d="M60 489q0 8 8 8h123q8 0 8 -8v-480q0 -5 -1.5 -7t-7.5 -2h-120q-10 0 -10 9v480zM196 563q6 -8 -5 -8h-109q-6 0 -10 6l-127 141q-5 10 4 10h136q7 0 11 -6z" />
    <glyph glyph-name="iacute" unicode="&#xed;" horiz-adv-x="259" 
d="M60 489q0 8 8 8h123q8 0 8 -8v-480q0 -5 -1.5 -7t-7.5 -2h-120q-10 0 -10 9v480zM165 703q4 10 12 10h134q12 0 5 -10l-123 -142q-8 -6 -14 -6h-107q-4 0 -5 2.5t1 4.5z" />
    <glyph glyph-name="icircumflex" unicode="&#xee;" horiz-adv-x="259" 
d="M60 489q0 8 8 8h123q8 0 8 -8v-480q0 -5 -1.5 -7t-7.5 -2h-120q-10 0 -10 9v480zM128 643l-60 -85q-3 -3 -9 -3h-86q-5 0 -6 2.5t2 5.5l102 142q4 5 9 5h101q6 0 9 -5l106 -143q2 -2 0.5 -4.5t-4.5 -2.5h-95q-7 0 -11 4z" />
    <glyph glyph-name="idieresis" unicode="&#xef;" horiz-adv-x="259" 
d="M60 489q0 8 8 8h123q8 0 8 -8v-480q0 -5 -1.5 -7t-7.5 -2h-120q-10 0 -10 9v480zM31 559q-30 0 -49 18.5t-19 50.5q0 31 20 50.5t50 19.5q29 0 48 -19.5t19 -51.5t-19.5 -50t-49.5 -18zM231 559q-29 0 -48 18.5t-19 50.5q0 31 20 50.5t49 19.5q30 0 48 -19.5t18 -51.5
q0 -31 -19 -49.5t-49 -18.5z" />
    <glyph glyph-name="eth" unicode="&#xf0;" horiz-adv-x="556" 
d="M279 106q45 0 73.5 35t28.5 106q0 20 -3 32t-6 21q-3 6 -9 14q-13 14 -32.5 23.5t-48.5 9.5q-47 0 -78.5 -30.5t-31.5 -90.5q0 -52 29.5 -86t77.5 -34zM392 593q63 -60 96 -140t33 -177q0 -71 -18.5 -124.5t-52 -89.5t-80 -54t-102.5 -18q-62 0 -106.5 20.5t-73.5 54
t-43 76t-14 86.5q0 52 17 94.5t48.5 73t76 47t99.5 16.5q50 0 74 -15q-10 26 -29 47.5t-44 39.5l-146 -78q-7 -2 -7 4v54q0 7 6 9l84 45q-61 26 -125 35q-7 2 -7 10l-1 102q0 9 7 9q5 0 15.5 -0.5t15.5 -1.5q132 -18 226 -83l121 65q6 2 6 -3v-56q0 -6 -5 -10z" />
    <glyph glyph-name="ntilde" unicode="&#xf1;" horiz-adv-x="559" 
d="M60 381q0 26 -1 58.5t-3 49.5q-2 8 7 8h105q10 0 13 -8q5 -11 8 -33q63 51 142 51q29 0 59 -9t54 -31.5t39.5 -61.5t15.5 -99v-297q0 -9 -9 -9h-120q-10 0 -10 9v285q0 92 -78 92q-26 0 -46.5 -8.5t-36.5 -22.5v-347q0 -8 -9 -8h-121q-9 0 -9 9v372zM104 555q-8 0 -8 7
q0 37 8.5 63.5t23 43.5t34 25.5t41.5 8.5q24 0 44 -7.5t37 -16.5t30.5 -16.5t24.5 -7.5q15 0 21 11.5t7 28.5q0 7 7 7h74q8 0 8 -6q0 -39 -7.5 -66.5t-21.5 -44.5t-33 -24.5t-41 -7.5t-40.5 7.5t-35 16t-31.5 16t-30 7.5q-11 0 -20 -9t-11 -31q0 -1 -1 -3t-4 -2h-76z" />
    <glyph glyph-name="ograve" unicode="&#xf2;" horiz-adv-x="553" 
d="M279 507q60 0 106 -21t76.5 -56.5t46 -81.5t15.5 -97q0 -59 -18 -107t-51 -82.5t-78 -53t-99 -18.5q-64 0 -110.5 22t-77 58.5t-45 83t-14.5 94.5q0 53 17 100t49.5 82.5t78.5 56t104 20.5zM273 391q-44 0 -73 -37t-29 -104q0 -66 28.5 -105t79.5 -39q44 0 73 36.5
t29 105.5q0 29 -6 55t-19.5 45.5t-34 31t-48.5 11.5zM354 563q6 -8 -5 -8h-109q-6 0 -10 6l-127 141q-5 10 4 10h136q7 0 11 -6z" />
    <glyph glyph-name="oacute" unicode="&#xf3;" horiz-adv-x="553" 
d="M279 507q60 0 106 -21t76.5 -56.5t46 -81.5t15.5 -97q0 -59 -18 -107t-51 -82.5t-78 -53t-99 -18.5q-64 0 -110.5 22t-77 58.5t-45 83t-14.5 94.5q0 53 17 100t49.5 82.5t78.5 56t104 20.5zM273 391q-44 0 -73 -37t-29 -104q0 -66 28.5 -105t79.5 -39q44 0 73 36.5
t29 105.5q0 29 -6 55t-19.5 45.5t-34 31t-48.5 11.5zM297 703q4 10 12 10h134q12 0 5 -10l-123 -142q-8 -6 -14 -6h-107q-4 0 -5 2.5t1 4.5z" />
    <glyph glyph-name="ocircumflex" unicode="&#xf4;" horiz-adv-x="553" 
d="M279 507q60 0 106 -21t76.5 -56.5t46 -81.5t15.5 -97q0 -59 -18 -107t-51 -82.5t-78 -53t-99 -18.5q-64 0 -110.5 22t-77 58.5t-45 83t-14.5 94.5q0 53 17 100t49.5 82.5t78.5 56t104 20.5zM273 391q-44 0 -73 -37t-29 -104q0 -66 28.5 -105t79.5 -39q44 0 73 36.5
t29 105.5q0 29 -6 55t-19.5 45.5t-34 31t-48.5 11.5zM273 643l-60 -85q-3 -3 -9 -3h-86q-5 0 -6 2.5t2 5.5l102 142q4 5 9 5h101q6 0 9 -5l106 -143q2 -2 0.5 -4.5t-4.5 -2.5h-95q-7 0 -11 4z" />
    <glyph glyph-name="otilde" unicode="&#xf5;" horiz-adv-x="553" 
d="M279 507q60 0 106 -21t76.5 -56.5t46 -81.5t15.5 -97q0 -59 -18 -107t-51 -82.5t-78 -53t-99 -18.5q-64 0 -110.5 22t-77 58.5t-45 83t-14.5 94.5q0 53 17 100t49.5 82.5t78.5 56t104 20.5zM273 391q-44 0 -73 -37t-29 -104q0 -66 28.5 -105t79.5 -39q44 0 73 36.5
t29 105.5q0 29 -6 55t-19.5 45.5t-34 31t-48.5 11.5zM106 554q-8 0 -8 7q0 37 8.5 63.5t23 43.5t34 25.5t41.5 8.5q24 0 44 -7.5t37 -16.5t30.5 -16.5t24.5 -7.5q15 0 21 11.5t7 28.5q0 7 7 7h74q8 0 8 -6q0 -39 -7.5 -66.5t-21.5 -44.5t-33 -24.5t-41 -7.5t-40.5 7.5
t-35 16t-31.5 16t-30 7.5q-11 0 -20 -9t-11 -31q0 -1 -1 -3t-4 -2h-76z" />
    <glyph glyph-name="odieresis" unicode="&#xf6;" horiz-adv-x="553" 
d="M279 507q60 0 106 -21t76.5 -56.5t46 -81.5t15.5 -97q0 -59 -18 -107t-51 -82.5t-78 -53t-99 -18.5q-64 0 -110.5 22t-77 58.5t-45 83t-14.5 94.5q0 53 17 100t49.5 82.5t78.5 56t104 20.5zM273 391q-44 0 -73 -37t-29 -104q0 -66 28.5 -105t79.5 -39q44 0 73 36.5
t29 105.5q0 29 -6 55t-19.5 45.5t-34 31t-48.5 11.5zM176 559q-30 0 -49 18.5t-19 50.5q0 31 20 50.5t50 19.5q29 0 48 -19.5t19 -51.5t-19.5 -50t-49.5 -18zM376 559q-29 0 -48 18.5t-19 50.5q0 31 20 50.5t49 19.5q30 0 48 -19.5t18 -51.5q0 -31 -19 -49.5t-49 -18.5z" />
    <glyph glyph-name="divide" unicode="&#xf7;" horiz-adv-x="551" 
d="M275 371q-29 0 -46 18t-17 47t17.5 47t46.5 18t46 -18t17 -47t-16.5 -47t-47.5 -18zM275 19q-29 0 -46 18.5t-17 46.5q0 30 17.5 48t46.5 18t46 -18t17 -48q0 -28 -16.5 -46.5t-47.5 -18.5zM30 302q0 8 7 8h477q7 0 7 -8v-82q0 -8 -7 -8h-476q-8 0 -8 9v81z" />
    <glyph glyph-name="oslash" unicode="&#xf8;" horiz-adv-x="553" 
d="M222 118q25 -17 57 -17q47 0 77 37.5t30 109.5q0 39 -11 72zM335 378q-13 8 -28 13t-34 5q-47 0 -77 -40t-30 -106q0 -43 14 -77zM459 432q32 -35 48 -82t16 -99q0 -59 -18 -107t-51 -82.5t-78 -53t-99 -18.5q-74 0 -128 31l-17 -23q-2 -4 -5 -4.5t-6 -0.5h-68
q-10 0 -3 9l46 61q-34 37 -50 85.5t-16 99.5q0 54 17 101t49.5 82t78.5 55.5t104 20.5q38 0 70.5 -8.5t58.5 -24.5l14 19q4 4 8 4h70q8 0 3 -7z" />
    <glyph glyph-name="ugrave" unicode="&#xf9;" horiz-adv-x="554" 
d="M493 111q0 -38 2 -62.5t4 -40.5q1 -8 -9 -8h-106q-6 0 -8 1.5t-4 5.5q-2 7 -3.5 15.5t-2.5 15.5q-33 -29 -69 -38.5t-68 -9.5q-38 0 -69 10.5t-53 34t-34.5 60t-12.5 88.5v306q0 8 9 8h122q7 0 7 -8v-290q0 -41 18 -65t60 -24q25 0 43 7.5t35 21.5v350q0 8 10 8h121
q8 0 8 -8v-378zM360 563q6 -8 -5 -8h-109q-6 0 -10 6l-127 141q-5 10 4 10h136q7 0 11 -6z" />
    <glyph glyph-name="uacute" unicode="&#xfa;" horiz-adv-x="554" 
d="M493 111q0 -38 2 -62.5t4 -40.5q1 -8 -9 -8h-106q-6 0 -8 1.5t-4 5.5q-2 7 -3.5 15.5t-2.5 15.5q-33 -29 -69 -38.5t-68 -9.5q-38 0 -69 10.5t-53 34t-34.5 60t-12.5 88.5v306q0 8 9 8h122q7 0 7 -8v-290q0 -41 18 -65t60 -24q25 0 43 7.5t35 21.5v350q0 8 10 8h121
q8 0 8 -8v-378zM303 703q4 10 12 10h134q12 0 5 -10l-123 -142q-8 -6 -14 -6h-107q-4 0 -5 2.5t1 4.5z" />
    <glyph glyph-name="ucircumflex" unicode="&#xfb;" horiz-adv-x="554" 
d="M493 111q0 -38 2 -62.5t4 -40.5q1 -8 -9 -8h-106q-6 0 -8 1.5t-4 5.5q-2 7 -3.5 15.5t-2.5 15.5q-33 -29 -69 -38.5t-68 -9.5q-38 0 -69 10.5t-53 34t-34.5 60t-12.5 88.5v306q0 8 9 8h122q7 0 7 -8v-290q0 -41 18 -65t60 -24q25 0 43 7.5t35 21.5v350q0 8 10 8h121
q8 0 8 -8v-378zM274 646l-60 -85q-3 -3 -9 -3h-86q-5 0 -6 2.5t2 5.5l102 142q4 5 9 5h101q6 0 9 -5l106 -143q2 -2 0.5 -4.5t-4.5 -2.5h-95q-7 0 -11 4z" />
    <glyph glyph-name="udieresis" unicode="&#xfc;" horiz-adv-x="554" 
d="M493 111q0 -38 2 -62.5t4 -40.5q1 -8 -9 -8h-106q-6 0 -8 1.5t-4 5.5q-2 7 -3.5 15.5t-2.5 15.5q-33 -29 -69 -38.5t-68 -9.5q-38 0 -69 10.5t-53 34t-34.5 60t-12.5 88.5v306q0 8 9 8h122q7 0 7 -8v-290q0 -41 18 -65t60 -24q25 0 43 7.5t35 21.5v350q0 8 10 8h121
q8 0 8 -8v-378zM180 559q-30 0 -49 18.5t-19 50.5q0 31 20 50.5t50 19.5q29 0 48 -19.5t19 -51.5t-19.5 -50t-49.5 -18zM380 559q-29 0 -48 18.5t-19 50.5q0 31 20 50.5t49 19.5q30 0 48 -19.5t18 -51.5q0 -31 -19 -49.5t-49 -18.5z" />
    <glyph glyph-name="yacute" unicode="&#xfd;" horiz-adv-x="487" 
d="M140 497q7 0 10 -7q43 -129 66.5 -208.5t34.5 -118.5q12 40 24 78.5t24.5 78t25.5 81.5t28 89q2 7 11 7h119q9 0 7 -9q-27 -84 -60 -175.5t-67.5 -180t-68 -170t-61.5 -145.5q-2 -3 -4.5 -5t-9.5 -2l-126 -10q-10 0 -5 9q22 45 44.5 94.5t46.5 106.5q2 5 2.5 8.5
t-1.5 8.5q-11 26 -32 79.5t-47 118.5t-53 135t-49 129q-2 4 0 6t6 2h135zM270 703q4 10 12 10h134q12 0 5 -10l-123 -142q-8 -6 -14 -6h-107q-4 0 -5 2.5t1 4.5z" />
    <glyph glyph-name="thorn" unicode="&#xfe;" horiz-adv-x="564" 
d="M200 492q17 6 40 10.5t55 4.5q60 0 104.5 -20.5t74 -54.5t44 -78.5t14.5 -93.5q0 -66 -24 -116.5t-63.5 -84.5t-90 -51.5t-102.5 -17.5q-17 0 -30.5 1.5t-21.5 3.5v-192q0 -8 -7 -9q-16 -2 -36.5 -3.5t-39 -3.5t-32.5 -3t-17 -1q-7 0 -7 7v920q0 8 9 8h121q9 0 9 -8v-218
zM270 389q-25 0 -39.5 -3t-30.5 -8v-264q15 -5 29.5 -7t31.5 -2q25 0 48.5 8t41 25.5t28 45t10.5 67.5q0 71 -33 104.5t-86 33.5z" />
    <glyph glyph-name="ydieresis" unicode="&#xff;" horiz-adv-x="487" 
d="M140 497q7 0 10 -7q43 -129 66.5 -208.5t34.5 -118.5q12 40 24 78.5t24.5 78t25.5 81.5t28 89q2 7 11 7h119q9 0 7 -9q-27 -84 -60 -175.5t-67.5 -180t-68 -170t-61.5 -145.5q-2 -3 -4.5 -5t-9.5 -2l-126 -10q-10 0 -5 9q22 45 44.5 94.5t46.5 106.5q2 5 2.5 8.5
t-1.5 8.5q-11 26 -32 79.5t-47 118.5t-53 135t-49 129q-2 4 0 6t6 2h135zM148 562q-30 0 -49 18.5t-19 50.5q0 31 20 50.5t50 19.5q29 0 48 -19.5t19 -51.5t-19.5 -50t-49.5 -18zM348 562q-29 0 -48 18.5t-19 50.5q0 31 20 50.5t49 19.5q30 0 48 -19.5t18 -51.5
q0 -31 -19 -49.5t-49 -18.5z" />
    <glyph glyph-name="Amacron" unicode="&#x100;" horiz-adv-x="616" 
d="M185 156l-48 -148q-3 -8 -11 -8h-116q-10 0 -8 10l200 577q3 8 5.5 20t4.5 41q0 7 6 7h160q7 0 8 -6l227 -640q4 -9 -5 -9h-130q-8 0 -11 7l-51 149h-231zM379 281q-8 25 -18.5 58.5t-21.5 69t-21.5 69.5t-17.5 61h-1q-6 -25 -15.5 -57t-20 -66.5t-21.5 -69.5t-21 -65
h158zM447 827q7 0 7 -7v-88q0 -8 -7 -8h-290q-9 0 -9 8v87q0 8 7 8h292z" />
    <glyph glyph-name="amacron" unicode="&#x101;" horiz-adv-x="507" 
d="M313 214q-12 2 -23.5 2.5t-26.5 0.5q-54 0 -77 -16t-23 -43q0 -25 20 -42.5t68 -17.5q33 0 62 9v107zM448 111v-36.5t2 -34.5q0 -4 -2 -5q-33 -13 -61 -21.5t-54 -14t-51 -7.5t-52 -2q-42 0 -78.5 10t-64 30t-43.5 51.5t-16 75.5q0 40 16.5 70t46.5 50.5t71.5 31
t91.5 10.5h36t23 -2v7q0 7 -3 18t-13.5 21t-29.5 17t-50 7q-38 0 -70.5 -7t-61.5 -20q-3 -2 -6 -0.5t-3 5.5v101q0 8 7 10q33 16 74 23.5t83 7.5q54 0 93 -15.5t64.5 -43t38 -64.5t12.5 -80v-193zM399 675q7 0 7 -8v-82q0 -7 -8 -7h-289q-7 0 -7 8v81q0 8 8 8h289z" />
    <glyph glyph-name="Abreve" unicode="&#x102;" horiz-adv-x="616" 
d="M185 156l-48 -148q-3 -8 -11 -8h-116q-10 0 -8 10l200 577q3 8 5.5 20t4.5 41q0 7 6 7h160q7 0 8 -6l227 -640q4 -9 -5 -9h-130q-8 0 -11 7l-51 149h-231zM379 281q-8 25 -18.5 58.5t-21.5 69t-21.5 69.5t-17.5 61h-1q-6 -25 -15.5 -57t-20 -66.5t-21.5 -69.5t-21 -65
h158zM226 860q7 0 8 -7q9 -21 26 -33.5t40 -12.5q24 0 42 11t26 36l4 4t5 2h95q5 0 6 -3.5t0 -5.5q-13 -72 -62 -109t-116 -37q-66 0 -115 35.5t-61 111.5q-1 2 1 5t7 3h94z" />
    <glyph glyph-name="abreve" unicode="&#x103;" horiz-adv-x="507" 
d="M313 214q-12 2 -23.5 2.5t-26.5 0.5q-54 0 -77 -16t-23 -43q0 -25 20 -42.5t68 -17.5q33 0 62 9v107zM448 111v-36.5t2 -34.5q0 -4 -2 -5q-33 -13 -61 -21.5t-54 -14t-51 -7.5t-52 -2q-42 0 -78.5 10t-64 30t-43.5 51.5t-16 75.5q0 40 16.5 70t46.5 50.5t71.5 31
t91.5 10.5h36t23 -2v7q0 7 -3 18t-13.5 21t-29.5 17t-50 7q-38 0 -70.5 -7t-61.5 -20q-3 -2 -6 -0.5t-3 5.5v101q0 8 7 10q33 16 74 23.5t83 7.5q54 0 93 -15.5t64.5 -43t38 -64.5t12.5 -80v-193zM176 698q5 0 6 -4q9 -23 25 -35t42 -12t44 11t26 35q1 5 5 5h95q4 0 4 -6
q-14 -67 -58 -104.5t-116 -37.5q-68 0 -113.5 34.5t-58.5 107.5q-1 6 6 6h93z" />
    <glyph glyph-name="Aogonek" unicode="&#x104;" horiz-adv-x="616" 
d="M379 281q-8 25 -18.5 58.5t-21.5 69.5t-21.5 70.5t-17.5 61.5h-1q-6 -26 -15.5 -58t-20 -67t-21.5 -70t-21 -65h158zM416 156h-231l-48 -148q-3 -8 -12 -8h-115q-10 0 -8 10l200 577q3 8 5.5 20t4.5 41q0 7 6 7h160q7 0 8 -6l226 -633q4 -11 -6 -16q-68 -37 -68 -78
q0 -17 13 -28.5t39 -11.5q13 0 23.5 1.5t16.5 3.5q9 1 9 -7v-72q0 -11 -8 -15q-27 -16 -85 -16q-24 0 -48 5.5t-44 18t-32.5 33t-12.5 51.5t18.5 60.5t52.5 55.5q-7 1 -10 4t-5 7z" />
    <glyph glyph-name="aogonek" unicode="&#x105;" horiz-adv-x="507" 
d="M319 216q-6 2 -21 3t-31 1q-50 0 -76.5 -16.5t-26.5 -45.5q0 -26 21.5 -43t69.5 -17q36 0 64 13v105zM232 -10q-42 0 -79.5 9.5t-65 29t-43.5 50.5t-16 75q0 40 17 70.5t48 51.5t73 32t93 11h36t24 -2v6q0 7 -3 18t-13.5 21.5t-29.5 17.5t-50 7q-36 0 -71.5 -8t-65.5 -24
q-8 -4 -8 6v100q0 7 6 11q35 17 79.5 26t86.5 9q52 0 90.5 -15.5t64 -43t37.5 -64.5t12 -80v-190q0 -19 0.5 -38t2.5 -38q1 -7 -6 -9q-62 -32 -86 -57.5t-24 -47.5q0 -20 15 -32t41 -12q14 0 25.5 2t20.5 5q10 2 10 -7v-71q0 -8 -1.5 -10.5t-6.5 -5.5q-13 -7 -36 -11t-52 -4
q-24 0 -48.5 5t-44.5 17.5t-32.5 33t-12.5 50.5q0 32 22.5 61.5t57.5 49.5q-18 -4 -34 -4.5t-33 -0.5z" />
    <glyph glyph-name="Cacute" unicode="&#x106;" horiz-adv-x="559" 
d="M527 22q0 -11 -8 -14q-25 -9 -61 -13.5t-78 -4.5q-73 0 -136 21.5t-109.5 63.5t-73 104.5t-26.5 144.5q0 76 25.5 139t72.5 108t113.5 69.5t149.5 24.5q93 0 130 -17q7 -3 7 -12v-109q0 -7 -3 -8t-6 1q-25 12 -58.5 17t-71.5 5q-101 0 -158.5 -57.5t-57.5 -155.5
q0 -59 19.5 -99.5t50.5 -66.5t70.5 -37.5t78.5 -11.5q37 0 66 3.5t56 12.5q8 3 8 -5v-103zM373 844q4 4 6 4.5t7 0.5h145q4 0 4.5 -3t-1.5 -6l-139 -110q-6 -7 -15 -7h-120q-11 0 -5 8z" />
    <glyph glyph-name="cacute" unicode="&#x107;" horiz-adv-x="436" 
d="M411 14q0 -7 -5 -8q-24 -10 -53.5 -13t-58.5 -3q-61 0 -109.5 19.5t-83 53.5t-53 81t-18.5 102q0 56 20.5 104t57.5 83t89 54.5t116 19.5q37 0 58.5 -3t33.5 -8q6 -2 6 -11l-1 -103q0 -9 -8 -7q-14 5 -35 8.5t-49 3.5q-63 0 -104 -34t-41 -102q0 -39 13 -65.5t34 -42.5
t47.5 -23t52.5 -7t48 2.5t35 6.5q8 3 8 -4v-104zM282 703q4 10 12 10h134q12 0 5 -10l-123 -142q-8 -6 -14 -6h-107q-4 0 -5 2.5t1 4.5z" />
    <glyph glyph-name="Ccircumflex" unicode="&#x108;" horiz-adv-x="559" 
d="M527 22q0 -11 -8 -14q-25 -9 -61 -13.5t-78 -4.5q-73 0 -136 21.5t-109.5 63.5t-73 104.5t-26.5 144.5q0 76 25.5 139t72.5 108t113.5 69.5t149.5 24.5q93 0 130 -17q7 -3 7 -12v-109q0 -7 -3 -8t-6 1q-25 12 -58.5 17t-71.5 5q-101 0 -158.5 -57.5t-57.5 -155.5
q0 -59 19.5 -99.5t50.5 -66.5t70.5 -37.5t78.5 -11.5q37 0 66 3.5t56 12.5q8 3 8 -5v-103zM327 785l-57 -60q-5 -6 -11 -6h-103q-3 0 -4 3.5t1 5.5l115 119q6 3 11 3h102q10 0 13 -4l119 -120q5 -7 -5 -7h-109q-8 0 -14 6z" />
    <glyph glyph-name="ccircumflex" unicode="&#x109;" horiz-adv-x="436" 
d="M411 14q0 -7 -5 -8q-24 -10 -53.5 -13t-58.5 -3q-61 0 -109.5 19.5t-83 53.5t-53 81t-18.5 102q0 56 20.5 104t57.5 83t89 54.5t116 19.5q37 0 58.5 -3t33.5 -8q6 -2 6 -11l-1 -103q0 -9 -8 -7q-14 5 -35 8.5t-49 3.5q-63 0 -104 -34t-41 -102q0 -39 13 -65.5t34 -42.5
t47.5 -23t52.5 -7t48 2.5t35 6.5q8 3 8 -4v-104zM250 645l-60 -85q-3 -3 -9 -3h-86q-5 0 -6 2.5t2 5.5l102 142q4 5 9 5h101q6 0 9 -5l106 -143q2 -2 0.5 -4.5t-4.5 -2.5h-95q-7 0 -11 4z" />
    <glyph glyph-name="Cdotaccent" unicode="&#x10a;" horiz-adv-x="559" 
d="M527 22q0 -11 -8 -14q-25 -9 -61 -13.5t-78 -4.5q-73 0 -136 21.5t-109.5 63.5t-73 104.5t-26.5 144.5q0 76 25.5 139t72.5 108t113.5 69.5t149.5 24.5q93 0 130 -17q7 -3 7 -12v-109q0 -7 -3 -8t-6 1q-25 12 -58.5 17t-71.5 5q-101 0 -158.5 -57.5t-57.5 -155.5
q0 -59 19.5 -99.5t50.5 -66.5t70.5 -37.5t78.5 -11.5q37 0 66 3.5t56 12.5q8 3 8 -5v-103zM340 724q-35 0 -55.5 18.5t-20.5 48.5q0 31 21.5 49t56.5 18t55 -18.5t20 -48.5t-21 -48.5t-56 -18.5z" />
    <glyph glyph-name="cdotaccent" unicode="&#x10b;" horiz-adv-x="436" 
d="M411 14q0 -7 -5 -8q-24 -10 -53.5 -13t-58.5 -3q-61 0 -109.5 19.5t-83 53.5t-53 81t-18.5 102q0 56 20.5 104t57.5 83t89 54.5t116 19.5q37 0 58.5 -3t33.5 -8q6 -2 6 -11l-1 -103q0 -9 -8 -7q-14 5 -35 8.5t-49 3.5q-63 0 -104 -34t-41 -102q0 -39 13 -65.5t34 -42.5
t47.5 -23t52.5 -7t48 2.5t35 6.5q8 3 8 -4v-104zM266 556q-35 0 -56.5 21.5t-21.5 56.5q0 34 22.5 55.5t56.5 21.5q36 0 56.5 -21.5t20.5 -55.5q0 -35 -21.5 -56.5t-56.5 -21.5z" />
    <glyph glyph-name="Ccaron" unicode="&#x10c;" horiz-adv-x="559" 
d="M527 22q0 -11 -8 -14q-25 -9 -61 -13.5t-78 -4.5q-73 0 -136 21.5t-109.5 63.5t-73 104.5t-26.5 144.5q0 76 25.5 139t72.5 108t113.5 69.5t149.5 24.5q93 0 130 -17q7 -3 7 -12v-109q0 -7 -3 -8t-6 1q-25 12 -58.5 17t-71.5 5q-101 0 -158.5 -57.5t-57.5 -155.5
q0 -59 19.5 -99.5t50.5 -66.5t70.5 -37.5t78.5 -11.5q37 0 66 3.5t56 12.5q8 3 8 -5v-103zM345 785l57 60q6 6 11 6h103q3 0 4 -3.5t-1 -5.5l-115 -119l-4.5 -3t-6.5 -1h-102q-10 0 -13 5l-119 120q-2 2 -1 4.5t5 2.5h111q5 0 7.5 -2t5.5 -4z" />
    <glyph glyph-name="ccaron" unicode="&#x10d;" horiz-adv-x="436" 
d="M411 14q0 -7 -5 -8q-24 -10 -53.5 -13t-58.5 -3q-61 0 -109.5 19.5t-83 53.5t-53 81t-18.5 102q0 56 20.5 104t57.5 83t89 54.5t116 19.5q37 0 58.5 -3t33.5 -8q6 -2 6 -11l-1 -103q0 -9 -8 -7q-14 5 -35 8.5t-49 3.5q-63 0 -104 -34t-41 -102q0 -39 13 -65.5t34 -42.5
t47.5 -23t52.5 -7t48 2.5t35 6.5q8 3 8 -4v-104zM264 622l60 84q3 4 9 4h86q5 0 6 -3t-2 -6l-102 -141q-4 -5 -9 -5h-101q-6 0 -9 4l-106 143q-4 8 4 8h95q7 0 11 -4z" />
    <glyph glyph-name="Dcaron" unicode="&#x10e;" horiz-adv-x="665" 
d="M72 646q0 7 7 8q23 1 75.5 2t119.5 1q90 0 156.5 -24t111 -66.5t66.5 -101t22 -127.5q0 -90 -31.5 -154t-82 -105.5t-113.5 -61t-127 -19.5h-54.5h-57.5t-51 0.5t-35 1.5q-6 0 -6 10v636zM211 120q15 -1 28.5 -1.5t30.5 -0.5q49 0 89 14.5t68.5 42.5t44 68.5t15.5 92.5
q0 100 -59 150t-155 50h-31.5t-30.5 -1v-415zM300 779l57 60q6 6 11 6h103q3 0 4 -3.5t-1 -5.5l-115 -119l-4.5 -3t-6.5 -1h-102q-10 0 -13 5l-119 120q-2 2 -1 4.5t5 2.5h111q5 0 7.5 -2t5.5 -4z" />
    <glyph glyph-name="dcaron" unicode="&#x10f;" horiz-adv-x="628" 
d="M545 701q0 8 7 8h88q8 0 7 -8l-16 -228q0 -4 -3 -6t-5 -2h-68q-7 0 -7 7zM292 -10q-56 0 -103.5 16t-82.5 47.5t-55 79t-20 111.5q0 54 19.5 101.5t56.5 83.5t91 57t122 21q7 0 14.5 -0.5t18.5 -1.5v197q0 7 7 7h126q6 0 6 -6v-591q0 -17 1 -37.5t3 -35.5q0 -7 -7 -9
q-51 -22 -100.5 -31t-96.5 -9zM353 386q-8 3 -17 4t-20 1q-29 0 -54.5 -9t-45 -26.5t-31 -43.5t-11.5 -61q0 -74 37.5 -108t94.5 -34q13 0 24.5 1t22.5 5v271z" />
    <glyph glyph-name="Dcroat" unicode="&#x110;" horiz-adv-x="679" 
d="M217 120q15 -1 28.5 -1.5t30.5 -0.5q49 0 89 14.5t68.5 42.5t44 68.5t15.5 92.5q0 100 -59 150t-155 50h-31.5t-30.5 -1v-149h145q4 0 5 -0.5t1 -5.5v-85q0 -5 -1.5 -5.5t-5.5 -0.5h-144v-169zM78 646q0 7 7 8q23 1 75.5 2t119.5 1q90 0 156.5 -24t111 -66.5t66.5 -101
t22 -127.5q0 -90 -31.5 -154t-82 -105.5t-113.5 -61t-127 -19.5h-54.5h-57.5t-51 0.5t-35 1.5q-6 0 -6 10v279h-60q-7 0 -7 7v84q0 6 6 6h61v260z" />
    <glyph glyph-name="dcroat" unicode="&#x111;" horiz-adv-x="552" 
d="M354 356q-8 3 -18 5.5t-27 2.5q-57 0 -96.5 -31.5t-39.5 -95.5q0 -36 10.5 -60.5t29 -39.5t42.5 -21.5t51 -6.5q29 0 48 8v239zM562 638q5 0 5 -6v-85q0 -7 -6 -7h-68v-424q0 -17 1 -38t3 -35q0 -7 -6 -9q-99 -44 -199 -44q-56 0 -103.5 14.5t-83 44.5t-55.5 75.5
t-20 106.5q0 52 18.5 97.5t54.5 79t89 52.5t121 19q18 0 26.5 -0.5t14.5 -1.5v63h-147q-8 0 -8 8v84q0 6 6 6h149v64q0 7 7 7h127q5 0 5 -6v-65h69z" />
    <glyph glyph-name="Emacron" unicode="&#x112;" horiz-adv-x="540" 
d="M497 9q-1 -6 -3 -7.5t-7 -1.5h-407q-8 0 -8 9v637q0 9 8 9h395q10 0 11 -8l11 -108q2 -9 -7 -9h-279v-134h255q8 0 8 -8v-110q0 -7 -8 -7h-255v-146h295q6 0 7.5 -2t0.5 -7zM422 832q7 0 7 -7v-88q0 -8 -7 -8h-290q-9 0 -9 8v87q0 8 7 8h292z" />
    <glyph glyph-name="emacron" unicode="&#x113;" horiz-adv-x="512" 
d="M172 212q2 -21 10.5 -40t26 -33.5t43.5 -22.5t63 -8q68 0 123 23q6 4 6 -5v-95q0 -9 -7 -12q-30 -14 -65.5 -21.5t-87.5 -7.5q-71 0 -119.5 22t-78.5 58t-43 81t-13 92q0 52 15.5 99.5t46.5 84t76 58.5t104 22q57 0 97 -20t65.5 -51t37 -69.5t11.5 -75.5q0 -49 -5 -67
q-1 -7 -8 -8q-10 -2 -37 -3t-66 -1h-195zM302 309q24 0 35.5 0.5t14.5 1.5v7q0 9 -4 22.5t-14 26t-26 21.5t-41 9q-24 0 -41 -8t-28.5 -20.5t-18 -28.5t-8.5 -31h131zM411 675q7 0 7 -8v-82q0 -7 -8 -7h-289q-7 0 -7 8v81q0 8 8 8h289z" />
    <glyph glyph-name="Ebreve" unicode="&#x114;" horiz-adv-x="540" 
d="M497 9q-1 -6 -3 -7.5t-7 -1.5h-407q-8 0 -8 9v637q0 9 8 9h395q10 0 11 -8l11 -108q2 -9 -7 -9h-279v-134h255q8 0 8 -8v-110q0 -7 -8 -7h-255v-146h295q6 0 7.5 -2t0.5 -7zM201 863q7 0 8 -7q9 -21 26 -33.5t40 -12.5q24 0 42 11t26 36l4 4t5 2h95q5 0 6 -3.5t0 -5.5
q-13 -72 -62 -109t-116 -37q-66 0 -115 35.5t-61 111.5q-1 2 1 5t7 3h94z" />
    <glyph glyph-name="ebreve" unicode="&#x115;" horiz-adv-x="512" 
d="M172 212q2 -21 10.5 -40t26 -33.5t43.5 -22.5t63 -8q68 0 123 23q6 4 6 -5v-95q0 -9 -7 -12q-30 -14 -65.5 -21.5t-87.5 -7.5q-71 0 -119.5 22t-78.5 58t-43 81t-13 92q0 52 15.5 99.5t46.5 84t76 58.5t104 22q57 0 97 -20t65.5 -51t37 -69.5t11.5 -75.5q0 -49 -5 -67
q-1 -7 -8 -8q-10 -2 -37 -3t-66 -1h-195zM302 309q24 0 35.5 0.5t14.5 1.5v7q0 9 -4 22.5t-14 26t-26 21.5t-41 9q-24 0 -41 -8t-28.5 -20.5t-18 -28.5t-8.5 -31h131zM190 698q5 0 6 -4q9 -23 25 -35t42 -12t44 11t26 35q1 5 5 5h95q4 0 4 -6q-14 -67 -58 -104.5t-116 -37.5
q-68 0 -113.5 34.5t-58.5 107.5q-1 6 6 6h93z" />
    <glyph glyph-name="Edotaccent" unicode="&#x116;" horiz-adv-x="540" 
d="M497 9q-1 -6 -3 -7.5t-7 -1.5h-407q-8 0 -8 9v637q0 9 8 9h395q10 0 11 -8l11 -108q2 -9 -7 -9h-279v-134h255q8 0 8 -8v-110q0 -7 -8 -7h-255v-146h295q6 0 7.5 -2t0.5 -7zM279 716q-35 0 -55.5 18.5t-20.5 48.5q0 31 21.5 49t56.5 18t55 -18.5t20 -48.5t-21 -48.5
t-56 -18.5z" />
    <glyph glyph-name="edotaccent" unicode="&#x117;" horiz-adv-x="512" 
d="M172 212q2 -21 10.5 -40t26 -33.5t43.5 -22.5t63 -8q68 0 123 23q6 4 6 -5v-95q0 -9 -7 -12q-30 -14 -65.5 -21.5t-87.5 -7.5q-71 0 -119.5 22t-78.5 58t-43 81t-13 92q0 52 15.5 99.5t46.5 84t76 58.5t104 22q57 0 97 -20t65.5 -51t37 -69.5t11.5 -75.5q0 -49 -5 -67
q-1 -7 -8 -8q-10 -2 -37 -3t-66 -1h-195zM302 309q24 0 35.5 0.5t14.5 1.5v7q0 9 -4 22.5t-14 26t-26 21.5t-41 9q-24 0 -41 -8t-28.5 -20.5t-18 -28.5t-8.5 -31h131zM265 555q-35 0 -56.5 21.5t-21.5 56.5q0 34 22.5 55.5t56.5 21.5q36 0 56.5 -21.5t20.5 -55.5
q0 -35 -21.5 -56.5t-56.5 -21.5z" />
    <glyph glyph-name="Eogonek" unicode="&#x118;" horiz-adv-x="540" 
d="M452 0q-55 -39 -55 -77q0 -19 14.5 -31t40.5 -12q14 0 25.5 2t22.5 5q7 1 7 -6v-77q0 -8 -6 -10q-13 -7 -36.5 -12t-52.5 -5q-24 0 -49 5.5t-44.5 18t-32 33t-12.5 50.5q0 63 75 116h-269q-8 0 -8 9v637q0 9 8 9h395q10 0 11 -8l11 -108q2 -9 -7 -9h-279v-134h255
q8 0 8 -8v-110q0 -7 -8 -7h-255v-146h295q6 0 7.5 -2t0.5 -7l-17 -107q-1 -6 -3 -7.5t-7 -1.5h-35z" />
    <glyph glyph-name="eogonek" unicode="&#x119;" horiz-adv-x="512" 
d="M301 309q25 0 36.5 0.5t14.5 1.5v7q0 9 -4 22.5t-14 26t-26.5 21.5t-41.5 9q-23 0 -40 -8t-28.5 -20.5t-18 -28.5t-8.5 -31h130zM275 -9q-68 1 -114.5 23t-75.5 57.5t-42 80t-13 91.5q0 52 15.5 99.5t46.5 84t76 58.5t104 22q57 0 97 -20t65.5 -51t37 -69.5t11.5 -75.5
q0 -46 -5 -64q-1 -7 -8 -8q-11 -2 -38 -3t-65 -1h-195q2 -46 35.5 -76.5t106.5 -30.5q69 0 124 23q6 4 6 -5v-95q0 -11 -8 -15q-64 -23 -93.5 -46.5t-29.5 -47.5q0 -19 15 -31t41 -12q14 0 24.5 2t19.5 5q6 2 7.5 -0.5t1.5 -7.5v-70q0 -12 -7 -15q-27 -15 -87 -15
q-24 0 -48.5 5t-44 17.5t-31.5 33t-12 50.5t22.5 58.5t60.5 48.5z" />
    <glyph glyph-name="Ecaron" unicode="&#x11a;" horiz-adv-x="540" 
d="M497 9q-1 -6 -3 -7.5t-7 -1.5h-407q-8 0 -8 9v637q0 9 8 9h395q10 0 11 -8l11 -108q2 -9 -7 -9h-279v-134h255q8 0 8 -8v-110q0 -7 -8 -7h-255v-146h295q6 0 7.5 -2t0.5 -7zM281 779l57 60q6 6 11 6h103q3 0 4 -3.5t-1 -5.5l-115 -119l-4.5 -3t-6.5 -1h-102q-10 0 -13 5
l-119 120q-2 2 -1 4.5t5 2.5h111q5 0 7.5 -2t5.5 -4z" />
    <glyph glyph-name="ecaron" unicode="&#x11b;" horiz-adv-x="512" 
d="M172 212q2 -21 10.5 -40t26 -33.5t43.5 -22.5t63 -8q68 0 123 23q6 4 6 -5v-95q0 -9 -7 -12q-30 -14 -65.5 -21.5t-87.5 -7.5q-71 0 -119.5 22t-78.5 58t-43 81t-13 92q0 52 15.5 99.5t46.5 84t76 58.5t104 22q57 0 97 -20t65.5 -51t37 -69.5t11.5 -75.5q0 -49 -5 -67
q-1 -7 -8 -8q-10 -2 -37 -3t-66 -1h-195zM302 309q24 0 35.5 0.5t14.5 1.5v7q0 9 -4 22.5t-14 26t-26 21.5t-41 9q-24 0 -41 -8t-28.5 -20.5t-18 -28.5t-8.5 -31h131zM262 622l60 84q3 4 9 4h86q5 0 6 -3t-2 -6l-102 -141q-4 -5 -9 -5h-101q-6 0 -9 4l-106 143q-4 8 4 8h95
q7 0 11 -4z" />
    <glyph glyph-name="Gcircumflex" unicode="&#x11c;" horiz-adv-x="651" 
d="M358 255q-9 0 -9 9v103q0 6 8 6h230q6 0 7.5 -1.5t1.5 -6.5v-331q1 -7 -7 -10q-55 -20 -106 -27t-96 -7q-89 0 -155 26.5t-110 71.5t-65.5 105.5t-21.5 129.5q0 78 26.5 141t75.5 107.5t118 69t153 24.5q50 0 92.5 -5.5t69.5 -18.5q7 -1 7 -13v-109q0 -11 -9 -6
q-33 17 -72 22.5t-84 6.5q-117 1 -175.5 -56.5t-58.5 -158.5q0 -46 14 -85.5t41 -68.5t67.5 -45.5t93.5 -16.5q22 0 36 1.5t27 5.5v132zM351 786l-57 -60q-5 -6 -11 -6h-103q-3 0 -4 3.5t1 5.5l115 119q6 3 11 3h102q10 0 13 -4l119 -120q5 -7 -5 -7h-109q-8 0 -14 6z" />
    <glyph glyph-name="gcircumflex" unicode="&#x11d;" horiz-adv-x="526" 
d="M186 4q-17 -12 -27.5 -28.5t-10.5 -24.5q0 -23 31.5 -44t90.5 -21q67 0 97 19.5t30 44.5q0 28 -29 38t-71 12zM246 407q-32 0 -51 -18t-19 -51q0 -29 18 -48.5t53 -19.5q33 0 51 17t18 48q0 32 -16 52t-54 20zM328 116q54 -3 91 -14.5t60.5 -30.5t34 -44t10.5 -55
q0 -39 -18.5 -73.5t-52.5 -60t-83 -40t-109 -14.5q-63 0 -108 14t-74.5 36.5t-43.5 50t-14 54.5q0 24 21 54.5t71 72.5q-11 17 -16.5 36t-4.5 39q0 17 5 34t13 32q-31 20 -50 51t-19 78q0 36 13.5 67t40 54.5t64.5 36.5t87 13q28 0 53 -2.5t42 -5.5q7 -2 13 -2h11h137
q7 0 7 -7v-93q0 -7 -7 -7q-11 0 -32 1.5t-37 3.5q6 -11 10.5 -26.5t4.5 -38.5q0 -40 -15.5 -69.5t-42 -49.5t-62.5 -30t-78 -10q-8 0 -17 0.5t-17 1.5q-5 -13 -2 -27q1 -13 11 -26zM251 643l-60 -85q-3 -3 -9 -3h-86q-5 0 -6 2.5t2 5.5l102 142q4 5 9 5h101q6 0 9 -5
l106 -143q2 -2 0.5 -4.5t-4.5 -2.5h-95q-7 0 -11 4z" />
    <glyph glyph-name="Gbreve" unicode="&#x11e;" horiz-adv-x="651" 
d="M358 255q-9 0 -9 9v103q0 6 8 6h230q6 0 7.5 -1.5t1.5 -6.5v-331q1 -7 -7 -10q-55 -20 -106 -27t-96 -7q-89 0 -155 26.5t-110 71.5t-65.5 105.5t-21.5 129.5q0 78 26.5 141t75.5 107.5t118 69t153 24.5q50 0 92.5 -5.5t69.5 -18.5q7 -1 7 -13v-109q0 -11 -9 -6
q-33 17 -72 22.5t-84 6.5q-117 1 -175.5 -56.5t-58.5 -158.5q0 -46 14 -85.5t41 -68.5t67.5 -45.5t93.5 -16.5q22 0 36 1.5t27 5.5v132zM282 872q7 0 8 -7q9 -21 26 -33.5t40 -12.5q24 0 42 11t26 36l4 4t5 2h95q5 0 6 -3.5t0 -5.5q-13 -72 -62 -109t-116 -37
q-66 0 -115 35.5t-61 111.5q-1 2 1 5t7 3h94z" />
    <glyph glyph-name="gbreve" unicode="&#x11f;" horiz-adv-x="526" 
d="M186 4q-17 -12 -27.5 -28.5t-10.5 -24.5q0 -23 31.5 -44t90.5 -21q67 0 97 19.5t30 44.5q0 28 -29 38t-71 12zM246 407q-32 0 -51 -18t-19 -51q0 -29 18 -48.5t53 -19.5q33 0 51 17t18 48q0 32 -16 52t-54 20zM328 116q54 -3 91 -14.5t60.5 -30.5t34 -44t10.5 -55
q0 -39 -18.5 -73.5t-52.5 -60t-83 -40t-109 -14.5q-63 0 -108 14t-74.5 36.5t-43.5 50t-14 54.5q0 24 21 54.5t71 72.5q-11 17 -16.5 36t-4.5 39q0 17 5 34t13 32q-31 20 -50 51t-19 78q0 36 13.5 67t40 54.5t64.5 36.5t87 13q28 0 53 -2.5t42 -5.5q7 -2 13 -2h11h137
q7 0 7 -7v-93q0 -7 -7 -7q-11 0 -32 1.5t-37 3.5q6 -11 10.5 -26.5t4.5 -38.5q0 -40 -15.5 -69.5t-42 -49.5t-62.5 -30t-78 -10q-8 0 -17 0.5t-17 1.5q-5 -13 -2 -27q1 -13 11 -26zM174 695q5 0 6 -4q9 -23 25 -35t42 -12t44 11t26 35q1 5 5 5h95q4 0 4 -6
q-14 -67 -58 -104.5t-116 -37.5q-68 0 -113.5 34.5t-58.5 107.5q-1 6 6 6h93z" />
    <glyph glyph-name="Gdotaccent" unicode="&#x120;" horiz-adv-x="651" 
d="M358 255q-9 0 -9 9v103q0 6 8 6h230q6 0 7.5 -1.5t1.5 -6.5v-331q1 -7 -7 -10q-55 -20 -106 -27t-96 -7q-89 0 -155 26.5t-110 71.5t-65.5 105.5t-21.5 129.5q0 78 26.5 141t75.5 107.5t118 69t153 24.5q50 0 92.5 -5.5t69.5 -18.5q7 -1 7 -13v-109q0 -11 -9 -6
q-33 17 -72 22.5t-84 6.5q-117 1 -175.5 -56.5t-58.5 -158.5q0 -46 14 -85.5t41 -68.5t67.5 -45.5t93.5 -16.5q22 0 36 1.5t27 5.5v132zM367 723q-35 0 -55.5 18.5t-20.5 48.5q0 31 21.5 49t56.5 18t55 -18.5t20 -48.5t-21 -48.5t-56 -18.5z" />
    <glyph glyph-name="gdotaccent" unicode="&#x121;" horiz-adv-x="526" 
d="M186 4q-17 -12 -27.5 -28.5t-10.5 -24.5q0 -23 31.5 -44t90.5 -21q67 0 97 19.5t30 44.5q0 28 -29 38t-71 12zM246 407q-32 0 -51 -18t-19 -51q0 -29 18 -48.5t53 -19.5q33 0 51 17t18 48q0 32 -16 52t-54 20zM328 116q54 -3 91 -14.5t60.5 -30.5t34 -44t10.5 -55
q0 -39 -18.5 -73.5t-52.5 -60t-83 -40t-109 -14.5q-63 0 -108 14t-74.5 36.5t-43.5 50t-14 54.5q0 24 21 54.5t71 72.5q-11 17 -16.5 36t-4.5 39q0 17 5 34t13 32q-31 20 -50 51t-19 78q0 36 13.5 67t40 54.5t64.5 36.5t87 13q28 0 53 -2.5t42 -5.5q7 -2 13 -2h11h137
q7 0 7 -7v-93q0 -7 -7 -7q-11 0 -32 1.5t-37 3.5q6 -11 10.5 -26.5t4.5 -38.5q0 -40 -15.5 -69.5t-42 -49.5t-62.5 -30t-78 -10q-8 0 -17 0.5t-17 1.5q-5 -13 -2 -27q1 -13 11 -26zM254 555q-35 0 -56.5 21.5t-21.5 56.5q0 34 22.5 55.5t56.5 21.5q36 0 56.5 -21.5
t20.5 -55.5q0 -35 -21.5 -56.5t-56.5 -21.5z" />
    <glyph glyph-name="uni0122" unicode="&#x122;" horiz-adv-x="651" 
d="M358 255q-9 0 -9 9v103q0 6 8 6h230q6 0 7.5 -1.5t1.5 -6.5v-331q1 -7 -7 -10q-55 -20 -106 -27t-96 -7q-89 0 -155 26.5t-110 71.5t-65.5 105.5t-21.5 129.5q0 78 26.5 141t75.5 107.5t118 69t153 24.5q50 0 92.5 -5.5t69.5 -18.5q7 -1 7 -13v-109q0 -11 -9 -6
q-33 17 -72 22.5t-84 6.5q-117 1 -175.5 -56.5t-58.5 -158.5q0 -46 14 -85.5t41 -68.5t67.5 -45.5t93.5 -16.5q22 0 36 1.5t27 5.5v132zM284 -235q-4 0 -5 3t1 5q21 32 28.5 57.5t7.5 49.5q0 14 -4 30t-12 35q-2 6 4 6h115q6 0 11 -6q6 -10 11 -26t5 -33q0 -37 -11.5 -64.5
t-34.5 -53.5q-3 -3 -11 -3h-105z" />
    <glyph glyph-name="uni0123" unicode="&#x123;" horiz-adv-x="526" 
d="M201 548q-8 0 -11 6q-7 10 -12 26t-5 33q0 37 11.5 64.5t34.5 53.5q3 3 11 3h106q4 0 5 -3t-1 -5q-22 -32 -29.5 -57.5t-7.5 -49.5q0 -14 4 -30t12 -35q3 -6 -4 -6h-114zM186 4q-17 -12 -27.5 -28.5t-10.5 -24.5q0 -23 31.5 -44t90.5 -21q67 0 97 19.5t30 44.5
q0 28 -29 38t-71 12zM246 407q-32 0 -51 -18t-19 -51q0 -29 18 -48.5t53 -19.5q33 0 51 17t18 48q0 32 -16 52t-54 20zM328 116q54 -3 91 -14.5t60.5 -30.5t34 -44t10.5 -55q0 -39 -18.5 -73.5t-52.5 -60t-83 -40t-109 -14.5q-63 0 -108 14t-74.5 36.5t-43.5 50t-14 54.5
q0 24 21 54.5t71 72.5q-11 17 -16.5 36t-4.5 39q0 17 5 34t13 32q-31 20 -50 51t-19 78q0 36 13.5 67t40 54.5t64.5 36.5t87 13q28 0 53 -2.5t42 -5.5q7 -2 13 -2h11h137q7 0 7 -7v-93q0 -7 -7 -7q-11 0 -32 1.5t-37 3.5q6 -11 10.5 -26.5t4.5 -38.5q0 -40 -15.5 -69.5
t-42 -49.5t-62.5 -30t-78 -10q-8 0 -17 0.5t-17 1.5q-5 -13 -2 -27q1 -13 11 -26z" />
    <glyph glyph-name="Hcircumflex" unicode="&#x124;" horiz-adv-x="674" 
d="M472 0q-8 0 -8 9v268h-253v-268q0 -9 -10 -9h-119q-10 0 -10 9v636q0 10 9 10h120q10 0 10 -9v-244h253v245q0 8 7 8h125q6 0 6 -8v-638q0 -9 -8 -9h-122zM333 774l-57 -60q-5 -6 -11 -6h-103q-3 0 -4 3.5t1 5.5l115 119q6 3 11 3h102q10 0 13 -4l119 -120q5 -7 -5 -7
h-109q-8 0 -14 6z" />
    <glyph glyph-name="hcircumflex" unicode="&#x125;" horiz-adv-x="559" 
d="M129 789l-54 -44q-4 -5 -13 -5h-103q-10 0 -4 8l119 103q4 4 10 4h95q5 0 8 -2t5 -4l121 -101q3 -2 2 -5t-5 -3h-109q-4 0 -8.5 2t-6.5 3zM199 8q0 -8 -8 -8h-123q-8 0 -8 8v694q0 7 8 7h123q8 0 8 -7v-236q27 18 58 29.5t73 11.5q29 0 59 -9t54.5 -31.5t40 -61.5
t15.5 -99v-297q0 -9 -9 -9h-120q-10 0 -10 9v283q0 94 -79 94q-47 0 -82 -25v-353z" />
    <glyph glyph-name="Hbar" unicode="&#x126;" horiz-adv-x="674" 
d="M472 461h-261v-77h261v77zM658 553q7 0 7 -6v-79q0 -7 -7 -7h-48v-452q0 -9 -8 -9h-122q-8 0 -8 9v250h-261v-250q0 -9 -10 -9h-119q-10 0 -10 9v452h-49q-8 0 -8 7v79q0 6 6 6h51v92q0 10 9 10h120q10 0 10 -9v-93h261v94q0 8 7 8h125q6 0 6 -8v-94h48z" />
    <glyph glyph-name="hbar" unicode="&#x127;" horiz-adv-x="559" 
d="M199 441q28 22 61 31.5t72 9.5q29 0 59.5 -9t55 -31.5t40.5 -61.5t16 -99v-272q0 -9 -9 -9h-121q-10 0 -10 9v263q0 94 -77 94q-26 0 -47 -7.5t-40 -24.5v-326q0 -8 -8 -8h-123q-8 0 -8 8v532h-62q-8 0 -8 8v84q0 6 6 6h64v64q0 7 8 7h123q8 0 8 -7v-64h154q5 0 5 -6v-85
q0 -7 -6 -7h-153v-99z" />
    <glyph glyph-name="Itilde" unicode="&#x128;" horiz-adv-x="283" 
d="M211 9q0 -9 -9 -9h-122q-8 0 -8 9v637q0 6 2 7.5t6 1.5h122q9 0 9 -9v-637zM-25 711q-9 0 -9 7q1 71 32.5 103t74.5 32q24 0 43 -7.5t34.5 -17t28.5 -17t25 -7.5t18 11.5t8 28.5q2 6 7 6h75q8 0 8 -7q-1 -38 -9.5 -64t-22.5 -41.5t-32 -22t-38 -6.5q-23 0 -41.5 7.5
t-34 16t-29.5 16t-27 7.5q-10 0 -18.5 -9.5t-10.5 -29.5q0 -6 -6 -6h-76z" />
    <glyph glyph-name="itilde" unicode="&#x129;" horiz-adv-x="259" 
d="M60 489q0 8 8 8h123q8 0 8 -8v-480q0 -5 -1.5 -7t-7.5 -2h-120q-10 0 -10 9v480zM-39 554q-8 0 -8 7q0 37 8.5 63.5t23 43.5t34 25.5t41.5 8.5q24 0 44 -7.5t37 -16.5t30.5 -16.5t24.5 -7.5q15 0 21 11.5t7 28.5q0 7 7 7h74q8 0 8 -6q0 -39 -7.5 -66.5t-21.5 -44.5
t-33 -24.5t-41 -7.5t-40.5 7.5t-35 16t-31.5 16t-30 7.5q-11 0 -20 -9t-11 -31q0 -1 -1 -3t-4 -2h-76z" />
    <glyph glyph-name="Imacron" unicode="&#x12a;" horiz-adv-x="283" 
d="M211 9q0 -9 -9 -9h-122q-8 0 -8 9v637q0 6 2 7.5t6 1.5h122q9 0 9 -9v-637zM288 825q7 0 7 -7v-88q0 -8 -7 -8h-290q-9 0 -9 8v87q0 8 7 8h292z" />
    <glyph glyph-name="imacron" unicode="&#x12b;" horiz-adv-x="259" 
d="M60 489q0 8 8 8h123q8 0 8 -8v-480q0 -5 -1.5 -7t-7.5 -2h-120q-10 0 -10 9v480zM278 675q7 0 7 -8v-82q0 -7 -8 -7h-289q-7 0 -7 8v81q0 8 8 8h289z" />
    <glyph glyph-name="Iogonek" unicode="&#x12e;" horiz-adv-x="283" 
d="M72 647q0 8 7 8h124q4 0 6 -1t2 -6v-637q0 -7 -4 -10q-35 -23 -52 -46t-17 -43q0 -24 16 -36t39 -12q13 0 26 1.5t22 4.5q6 1 6 -6v-75q0 -11 -6 -13q-8 -5 -32 -10t-57 -5q-27 0 -52 6t-44.5 19.5t-31 35t-11.5 52.5q0 40 21 71t47 56q-9 1 -9 13v633z" />
    <glyph glyph-name="iogonek" unicode="&#x12f;" horiz-adv-x="259" 
d="M199 10q0 -4 -1.5 -5.5t-5.5 -4.5q-26 -19 -38 -37t-12 -36q0 -20 14 -33t40 -13q27 0 44 5q10 2 10 -6v-76q0 -5 -1.5 -7t-6.5 -5q-13 -6 -35 -10.5t-53 -4.5q-24 0 -49 5.5t-44.5 18.5t-32 34t-12.5 51q0 32 16 60t38 51q-6 1 -8 3t-2 10v479q0 8 8 8h123q8 0 8 -8
v-479zM130 563q-33 0 -53 20t-20 53q0 32 21 52.5t53 20.5q34 0 53 -20.5t19 -52.5q0 -33 -20 -53t-53 -20z" />
    <glyph glyph-name="Idotaccent" unicode="&#x130;" horiz-adv-x="283" 
d="M211 9q0 -9 -9 -9h-122q-8 0 -8 9v637q0 6 2 7.5t6 1.5h122q9 0 9 -9v-637zM140 713q-35 0 -55.5 18.5t-20.5 48.5q0 31 21.5 49t56.5 18t55 -18.5t20 -48.5t-21 -48.5t-56 -18.5z" />
    <glyph glyph-name="dotlessi" unicode="&#x131;" horiz-adv-x="259" 
d="M60 489q0 8 8 8h123q8 0 8 -8v-480q0 -5 -1.5 -7t-7.5 -2h-120q-10 0 -10 9v480z" />
    <glyph glyph-name="Jcircumflex" unicode="&#x134;" horiz-adv-x="338" 
d="M131 647q0 8 8 8h124q7 0 7 -7v-451q0 -24 -1.5 -49t-6.5 -45q-18 -81 -73 -118.5t-140 -37.5q-14 0 -26 1t-21 3q-6 2 -7 4.5t-1 7.5v106q0 8 9 7q12 -2 18 -2h14q22 0 40 4.5t30.5 17t19 34t6.5 54.5v463zM193 775l-57 -60q-5 -6 -11 -6h-103q-3 0 -4 3.5t1 5.5
l115 119q6 3 11 3h102q10 0 13 -4l119 -120q5 -7 -5 -7h-109q-8 0 -14 6z" />
    <glyph glyph-name="jcircumflex" unicode="&#x135;" horiz-adv-x="259" 
d="M191 497q8 0 8 -8v-448q0 -41 -3 -71t-9 -52t-15.5 -39t-22.5 -33t-30.5 -27t-37 -17.5t-39 -9.5t-35.5 -3h-13t-13 1q-9 1 -9 10v102q0 8 7 8q39 0 59.5 19t21.5 74v486q0 8 9 8h122zM127 643l-60 -85q-3 -3 -9 -3h-86q-5 0 -6 2.5t2 5.5l102 142q4 5 9 5h101q6 0 9 -5
l106 -143q2 -2 0.5 -4.5t-4.5 -2.5h-95q-7 0 -11 4z" />
    <glyph glyph-name="uni0136" unicode="&#x136;" horiz-adv-x="596" 
d="M617 12q3 -5 1.5 -8.5t-6.5 -3.5h-146q-11 0 -19 8l-236 282v-281q0 -9 -10 -9h-120q-9 0 -9 10v637q0 8 8 8h122q9 0 9 -9v-280l236 282q4 7 13 7h132q8 0 9 -3.5t-2 -7.5l-256 -296q-3 -5 0 -10zM226 -225q-4 0 -5 3t1 5q21 32 28.5 57.5t7.5 49.5q0 14 -4 30t-12 35
q-2 6 4 6h115q6 0 11 -6q6 -10 11 -26t5 -33q0 -37 -11.5 -64.5t-34.5 -53.5q-3 -3 -11 -3h-105z" />
    <glyph glyph-name="uni0137" unicode="&#x137;" horiz-adv-x="515" 
d="M508 497q5 0 7 -3t-1 -7q-12 -14 -37.5 -43t-54.5 -61t-56 -62t-41 -45q-2 -2 0 -4q22 -27 49.5 -61t56.5 -69.5t57.5 -70t51.5 -62.5q3 -2 1.5 -5.5t-6.5 -3.5h-159q-5 0 -7.5 2t-5.5 5q-12 14 -32.5 40.5t-43.5 57t-46.5 61.5t-41.5 54v-210q0 -10 -9 -10h-121
q-10 0 -10 10v691q0 8 10 8h121q9 0 9 -8v-411q19 23 44.5 53.5t50 60t44 53t27.5 33.5q6 7 14 7h129zM178 -227q-4 0 -5 3t1 5q21 32 28.5 57.5t7.5 49.5q0 14 -4 30t-12 35q-2 6 4 6h115q6 0 11 -6q6 -10 11 -26t5 -33q0 -37 -11.5 -64.5t-34.5 -53.5q-3 -3 -11 -3h-105z
" />
    <glyph glyph-name="kgreenlandic" unicode="&#x138;" horiz-adv-x="515" 
d="M508 497q5 0 7 -3t-1 -7q-12 -14 -37.5 -43t-54.5 -61t-56 -62t-41 -45q-2 -2 0 -4q22 -27 49.5 -61t56.5 -69.5t57.5 -70t51.5 -62.5q3 -2 1.5 -5.5t-6.5 -3.5h-159q-5 0 -7.5 2t-5.5 5q-12 14 -32.5 40.5t-43.5 57t-46.5 61.5t-41.5 54v-210q0 -10 -9 -10h-121
q-10 0 -10 10v479q0 8 10 8h121q9 0 9 -8v-199q19 23 44.5 53.5t50 60t44 53t27.5 33.5q6 7 14 7h129z" />
    <glyph glyph-name="Lacute" unicode="&#x139;" horiz-adv-x="512" 
d="M82 0q-10 0 -10 11v634q0 10 8 10h124q7 0 7 -8v-521h286q9 0 7 -9l-18 -109q-1 -8 -10 -8h-394zM188 840q4 4 6 4.5t7 0.5h145q4 0 4.5 -3t-1.5 -6l-139 -110q-6 -7 -15 -7h-120q-11 0 -5 8z" />
    <glyph glyph-name="lacute" unicode="&#x13a;" horiz-adv-x="276" 
d="M155 845q5 5 8.5 5.5t8.5 0.5h130q5 0 6 -4t-3 -7l-109 -86q-5 -2 -8.5 -3.5t-9.5 -1.5h-109q-5 0 -7.5 2.5t1.5 7.5zM60 701q0 8 10 8h119q10 0 10 -8v-560q0 -21 7.5 -29.5t25.5 -8.5h8.5t9.5 1q5 0 5 -7v-86q0 -10 -7 -12q-9 -4 -24 -6.5t-38 -2.5q-27 0 -50 6
t-40 21.5t-26.5 42t-9.5 68.5v573z" />
    <glyph glyph-name="uni013B" unicode="&#x13b;" horiz-adv-x="512" 
d="M82 0q-10 0 -10 11v634q0 10 8 10h124q7 0 7 -8v-521h286q9 0 7 -9l-18 -109q-1 -8 -10 -8h-394zM198 -234q-4 0 -5 3t1 5q21 32 28.5 57.5t7.5 49.5q0 14 -4 30t-12 35q-2 6 4 6h115q6 0 11 -6q6 -10 11 -26t5 -33q0 -37 -11.5 -64.5t-34.5 -53.5q-3 -3 -11 -3h-105z
" />
    <glyph glyph-name="uni013C" unicode="&#x13c;" horiz-adv-x="276" 
d="M60 701q0 8 10 8h119q10 0 10 -8v-560q0 -21 7.5 -29.5t25.5 -8.5h8.5t9.5 1q5 0 5 -7v-86q0 -10 -7 -12q-9 -4 -24 -6.5t-38 -2.5q-27 0 -50 6t-40 21.5t-26.5 42t-9.5 68.5v573zM69 -232q-4 0 -5 3t1 5q21 32 28.5 57.5t7.5 49.5q0 14 -4 30t-12 35q-2 6 4 6h115
q6 0 11 -6q6 -10 11 -26t5 -33q0 -37 -11.5 -64.5t-34.5 -53.5q-3 -3 -11 -3h-105z" />
    <glyph glyph-name="Lcaron" unicode="&#x13d;" horiz-adv-x="512" 
d="M82 0q-10 0 -10 11v634q0 10 8 10h124q7 0 7 -8v-521h286q9 0 7 -9l-18 -109q-1 -8 -10 -8h-394zM336 649q0 7 7 7h102q8 0 7 -7l-20 -231q-2 -6 -8 -6h-78q-8 0 -8 7z" />
    <glyph glyph-name="lcaron" unicode="&#x13e;" horiz-adv-x="333" 
d="M253 701q0 8 7 8h88q7 0 6 -8l-15 -228q-2 -8 -8 -8h-68q-8 0 -8 7zM60 701q0 8 10 8h119q10 0 10 -8v-560q0 -21 7.5 -29.5t25.5 -8.5h8.5t9.5 1q5 0 5 -7v-86q0 -10 -7 -12q-9 -4 -24 -6.5t-38 -2.5q-27 0 -50 6t-40 21.5t-26.5 42t-9.5 68.5v573z" />
    <glyph glyph-name="Ldot" unicode="&#x13f;" horiz-adv-x="512" 
d="M82 0q-10 0 -10 11v634q0 10 8 10h124q7 0 7 -8v-521h286q9 0 7 -9l-18 -109q-1 -8 -10 -8h-394zM399 303q-35 0 -55.5 18.5t-20.5 48.5q0 31 21.5 49t56.5 18t55 -18.5t20 -48.5t-21 -48.5t-56 -18.5z" />
    <glyph glyph-name="ldot" unicode="&#x140;" horiz-adv-x="312" 
d="M287 324q-29 0 -45 20t-16 57q0 36 16 56t45 20q31 0 45.5 -20.5t14.5 -55.5q0 -77 -60 -77zM60 701q0 8 10 8h119q10 0 10 -8v-560q0 -21 7.5 -29.5t25.5 -8.5h8.5t9.5 1q5 0 5 -7v-86q0 -10 -7 -12q-9 -4 -24 -6.5t-38 -2.5q-27 0 -50 6t-40 21.5t-26.5 42t-9.5 68.5
v573z" />
    <glyph glyph-name="Lslash" unicode="&#x141;" horiz-adv-x="512" 
d="M497 126q9 0 7 -9l-18 -109q-1 -8 -10 -8h-394q-10 0 -10 11v232l-66 -29q-6 -3 -6 3v84q0 5 5 8l67 29v307q0 10 8 10h124q7 0 7 -8v-248l138 61q8 3 8 -5v-78q0 -10 -7 -12l-139 -61v-178h286z" />
    <glyph glyph-name="lslash" unicode="&#x142;" horiz-adv-x="286" 
d="M273 512q8 3 8 -5v-61q0 -5 -1 -12.5t-5 -9.5l-66 -33v-250q0 -21 7.5 -29.5t25.5 -8.5h8.5t9.5 1q5 0 5 -7v-86q0 -10 -7 -12q-9 -4 -24 -6.5t-38 -2.5q-27 0 -50 6t-40 21.5t-26.5 42t-9.5 68.5v194l-49 -25q-8 -2 -8 3v77q0 5 6 8l51 26v290q0 8 10 8h119q10 0 10 -8
v-221z" />
    <glyph glyph-name="Nacute" unicode="&#x143;" horiz-adv-x="688" 
d="M81 0q-5 0 -7 1.5t-2 7.5v638q0 8 7 8h162q6 0 8 -1.5t5 -6.5q17 -31 38.5 -71.5t45 -85.5t47 -91t43.5 -86.5t36 -73.5t24 -51h1q0 11 -0.5 23t-1 29.5t-1 42.5t-0.5 62v301q0 9 9 9h112q9 0 9 -10v-635q0 -10 -11 -10h-144q-7 0 -9.5 1.5t-4.5 6.5l-35 67.5t-45 86.5
t-49.5 95.5t-48.5 96t-42 86t-29 66.5h-1q1 -22 2 -41.5t2 -41t1 -48v-61.5v-305q0 -9 -8 -9h-113zM385 835q4 4 6 4.5t7 0.5h145q4 0 4.5 -3t-1.5 -6l-139 -110q-6 -7 -15 -7h-120q-11 0 -5 8z" />
    <glyph glyph-name="nacute" unicode="&#x144;" horiz-adv-x="559" 
d="M60 381q0 26 -1 58.5t-3 49.5q-2 8 7 8h105q10 0 13 -8q5 -11 8 -33q63 51 142 51q29 0 59 -9t54 -31.5t39.5 -61.5t15.5 -99v-297q0 -9 -9 -9h-120q-10 0 -10 9v285q0 92 -78 92q-26 0 -46.5 -8.5t-36.5 -22.5v-347q0 -8 -9 -8h-121q-9 0 -9 9v372zM312 703q4 10 12 10
h134q12 0 5 -10l-123 -142q-8 -6 -14 -6h-107q-4 0 -5 2.5t1 4.5z" />
    <glyph glyph-name="uni0145" unicode="&#x145;" horiz-adv-x="688" 
d="M81 0q-5 0 -7 1.5t-2 7.5v638q0 8 7 8h162q6 0 8 -1.5t5 -6.5q17 -31 38.5 -71.5t45 -85.5t47 -91t43.5 -86.5t36 -73.5t24 -51h1q0 11 -0.5 23t-1 29.5t-1 42.5t-0.5 62v301q0 9 9 9h112q9 0 9 -10v-635q0 -10 -11 -10h-144q-7 0 -9.5 1.5t-4.5 6.5l-35 67.5t-45 86.5
t-49.5 95.5t-48.5 96t-42 86t-29 66.5h-1q1 -22 2 -41.5t2 -41t1 -48v-61.5v-305q0 -9 -8 -9h-113zM261 -227q-4 0 -5 3t1 5q21 32 28.5 57.5t7.5 49.5q0 14 -4 30t-12 35q-2 6 4 6h115q6 0 11 -6q6 -10 11 -26t5 -33q0 -37 -11.5 -64.5t-34.5 -53.5q-3 -3 -11 -3h-105z" />
    <glyph glyph-name="uni0146" unicode="&#x146;" horiz-adv-x="559" 
d="M60 381q0 26 -1 58.5t-3 49.5q-2 8 7 8h105q10 0 13 -8q5 -11 8 -33q63 51 142 51q29 0 59 -9t54 -31.5t39.5 -61.5t15.5 -99v-297q0 -9 -9 -9h-120q-10 0 -10 9v285q0 92 -78 92q-26 0 -46.5 -8.5t-36.5 -22.5v-347q0 -8 -9 -8h-121q-9 0 -9 9v372zM196 -229q-4 0 -5 3
t1 5q21 32 28.5 57.5t7.5 49.5q0 14 -4 30t-12 35q-2 6 4 6h115q6 0 11 -6q6 -10 11 -26t5 -33q0 -37 -11.5 -64.5t-34.5 -53.5q-3 -3 -11 -3h-105z" />
    <glyph glyph-name="Ncaron" unicode="&#x147;" horiz-adv-x="688" 
d="M81 0q-5 0 -7 1.5t-2 7.5v638q0 8 7 8h162q6 0 8 -1.5t5 -6.5q17 -31 38.5 -71.5t45 -85.5t47 -91t43.5 -86.5t36 -73.5t24 -51h1q0 11 -0.5 23t-1 29.5t-1 42.5t-0.5 62v301q0 9 9 9h112q9 0 9 -10v-635q0 -10 -11 -10h-144q-7 0 -9.5 1.5t-4.5 6.5l-35 67.5t-45 86.5
t-49.5 95.5t-48.5 96t-42 86t-29 66.5h-1q1 -22 2 -41.5t2 -41t1 -48v-61.5v-305q0 -9 -8 -9h-113zM351 771l57 60q6 6 11 6h103q3 0 4 -3.5t-1 -5.5l-115 -119l-4.5 -3t-6.5 -1h-102q-10 0 -13 5l-119 120q-2 2 -1 4.5t5 2.5h111q5 0 7.5 -2t5.5 -4z" />
    <glyph glyph-name="ncaron" unicode="&#x148;" horiz-adv-x="559" 
d="M60 381q0 26 -1 58.5t-3 49.5q-2 8 7 8h105q10 0 13 -8q5 -11 8 -33q63 51 142 51q29 0 59 -9t54 -31.5t39.5 -61.5t15.5 -99v-297q0 -9 -9 -9h-120q-10 0 -10 9v285q0 92 -78 92q-26 0 -46.5 -8.5t-36.5 -22.5v-347q0 -8 -9 -8h-121q-9 0 -9 9v372zM276 622l60 84
q3 4 9 4h86q5 0 6 -3t-2 -6l-102 -141q-4 -5 -9 -5h-101q-6 0 -9 4l-106 143q-4 8 4 8h95q7 0 11 -4z" />
    <glyph glyph-name="napostrophe" unicode="&#x149;" horiz-adv-x="562" 
d="M15 739q0 8 7 8h109q9 0 8 -7l-21 -185q-2 -6 -7 -6h-87q-8 0 -8 8zM60 381q0 26 -1 58.5t-3 49.5q-2 8 7 8h105q10 0 13 -8q5 -11 8 -33q63 51 142 51q29 0 59 -9t54 -31.5t39.5 -61.5t15.5 -99v-297q0 -9 -9 -9h-120q-10 0 -10 9v285q0 92 -78 92q-26 0 -46.5 -8.5
t-36.5 -22.5v-347q0 -8 -9 -8h-121q-9 0 -9 9v372z" />
    <glyph glyph-name="Omacron" unicode="&#x14c;" horiz-adv-x="697" 
d="M349 665q75 0 132.5 -26.5t97.5 -72t61 -106t21 -129.5q0 -77 -22.5 -139.5t-64 -107.5t-99.5 -69.5t-128 -24.5q-74 0 -131.5 25.5t-98 70.5t-61.5 107t-21 135q0 70 22.5 131.5t63.5 107t99 72t129 26.5zM178 327q0 -45 11.5 -84.5t33.5 -68t54.5 -45t74.5 -16.5
q39 0 70 15.5t52 43.5t32.5 67.5t11.5 87.5q-1 100 -45.5 157.5t-125.5 57.5q-75 0 -122 -56t-47 -159zM497 833q7 0 7 -7v-88q0 -8 -7 -8h-290q-9 0 -9 8v87q0 8 7 8h292z" />
    <glyph glyph-name="omacron" unicode="&#x14d;" horiz-adv-x="553" 
d="M279 507q60 0 106 -21t76.5 -56.5t46 -81.5t15.5 -97q0 -59 -18 -107t-51 -82.5t-78 -53t-99 -18.5q-64 0 -110.5 22t-77 58.5t-45 83t-14.5 94.5q0 53 17 100t49.5 82.5t78.5 56t104 20.5zM273 391q-44 0 -73 -37t-29 -104q0 -66 28.5 -105t79.5 -39q44 0 73 36.5
t29 105.5q0 29 -6 55t-19.5 45.5t-34 31t-48.5 11.5zM423 675q7 0 7 -8v-82q0 -7 -8 -7h-289q-7 0 -7 8v81q0 8 8 8h289z" />
    <glyph glyph-name="Ohungarumlaut" unicode="&#x150;" horiz-adv-x="697" 
d="M349 665q75 0 132.5 -26.5t97.5 -72t61 -106t21 -129.5q0 -77 -22.5 -139.5t-64 -107.5t-99.5 -69.5t-128 -24.5q-74 0 -131.5 25.5t-98 70.5t-61.5 107t-21 135q0 70 22.5 131.5t63.5 107t99 72t129 26.5zM178 327q0 -45 11.5 -84.5t33.5 -68t54.5 -45t74.5 -16.5
q39 0 70 15.5t52 43.5t32.5 67.5t11.5 87.5q-1 100 -45.5 157.5t-125.5 57.5q-75 0 -122 -56t-47 -159zM247 843q3 7 11 7h115q8 0 3 -9l-88 -111q-3 -2 -5 -3.5t-6 -1.5h-95q-8 0 -5 8zM442 844q5 7 13 7h114q10 0 5 -11l-87 -108q-5 -6 -13 -6h-96q-9 0 -4 8z" />
    <glyph glyph-name="ohungarumlaut" unicode="&#x151;" horiz-adv-x="553" 
d="M279 507q60 0 106 -21t76.5 -56.5t46 -81.5t15.5 -97q0 -59 -18 -107t-51 -82.5t-78 -53t-99 -18.5q-64 0 -110.5 22t-77 58.5t-45 83t-14.5 94.5q0 53 17 100t49.5 82.5t78.5 56t104 20.5zM273 391q-44 0 -73 -37t-29 -104q0 -66 28.5 -105t79.5 -39q44 0 73 36.5
t29 105.5q0 29 -6 55t-19.5 45.5t-34 31t-48.5 11.5zM190 703q3 5 6 7t11 2h100q5 0 6.5 -4t-1.5 -7l-87 -138q-3 -5 -5 -7t-11 -2h-81q-7 0 -7.5 5t1.5 10zM384 704q3 5 5.5 7t8.5 2h102q6 0 7.5 -4.5t-0.5 -7.5l-89 -138q-3 -4 -6.5 -6t-12.5 -2h-77q-8 0 -9 4.5t1 9.5z
" />
    <glyph glyph-name="OE" unicode="&#x152;" horiz-adv-x="919" 
d="M450 533q-13 2 -25.5 2h-35.5q-46 0 -84.5 -13t-67 -39t-44.5 -65.5t-16 -92.5q0 -108 58.5 -159t157.5 -51q20 0 32 0.5t25 2.5v415zM854 654q9 0 10 -7l12 -108q2 -10 -7 -10h-280v-134h255q8 0 8 -8v-110q0 -7 -8 -7h-255v-146h296q9 0 7 -8l-16 -108q-1 -9 -13 -9
h-360q-30 -2 -56.5 -2.5t-66.5 -0.5q-81 0 -145 23t-108.5 66t-68 103.5t-23.5 135.5q0 77 27 138.5t75 104t113.5 65.5t143.5 23h34.5h27h23.5t25 -1h350z" />
    <glyph glyph-name="oe" unicode="&#x153;" horiz-adv-x="863" 
d="M30 241q0 58 18.5 105.5t51 81.5t77.5 52.5t98 18.5q63 0 105.5 -21.5t70.5 -60.5q34 45 78.5 63.5t96.5 18.5q56 0 96 -19t65 -50.5t36.5 -71t11.5 -79.5q0 -34 -3.5 -47t-7.5 -15q-8 -3 -30 -4.5t-75 -1.5h-197q2 -21 10 -39.5t24.5 -32.5t42.5 -22.5t65 -8.5
q31 0 62 5t62 17q8 3 8 -7v-89q0 -11 -7 -16q-31 -15 -68 -21.5t-83 -6.5q-57 0 -106 18t-82 64q-37 -48 -81 -65t-94 -17q-62 0 -107.5 20.5t-76.5 55t-46 80t-15 95.5zM276 383q-48 0 -76.5 -35.5t-28.5 -100.5q0 -64 28 -102.5t81 -38.5q42 0 71.5 33.5t29.5 104.5
q0 28 -5.5 53.5t-18.5 44.5t-33 30t-48 11zM685 305q11 0 14.5 2.5t4.5 5.5v7q0 11 -4.5 23t-15 22.5t-27 17t-40.5 6.5q-43 0 -66 -24t-28 -60h162z" />
    <glyph glyph-name="Racute" unicode="&#x154;" horiz-adv-x="598" 
d="M80 0q-8 0 -8 9v635q0 10 7 10q34 1 59.5 1.5t48.5 1t47 0.5h54q125 0 192 -51.5t67 -148.5q0 -63 -35 -108.5t-90 -67.5q8 -11 22.5 -31.5t31.5 -46t35.5 -53.5t35.5 -54t30.5 -48.5t21.5 -35.5q2 -5 2 -8.5t-5 -3.5h-145q-11 0 -14 6q-11 16 -27.5 43t-34.5 57.5
t-37 61.5t-34 57q-5 9 -10 13t-13 4h-73v-234q0 -8 -8 -8h-120zM285 360q57 0 90 22t33 67q0 46 -34 66.5t-90 20.5q-25 0 -45 -0.5t-31 -1.5v-174h77zM310 841q4 4 6 4.5t7 0.5h145q4 0 4.5 -3t-1.5 -6l-139 -110q-6 -7 -15 -7h-120q-11 0 -5 8z" />
    <glyph glyph-name="racute" unicode="&#x155;" horiz-adv-x="363" 
d="M170 497q9 0 12 -9q4 -10 7 -24.5t4 -31.5q25 29 65 52t94 23q8 0 8 -8v-123q0 -7 -9 -7q-54 2 -94.5 -11.5t-56.5 -31.5l-1 -318q0 -8 -9 -8h-120q-10 0 -10 9v345q0 32 -1 71t-4 65q0 7 6 7h109zM212 703q4 10 12 10h134q12 0 5 -10l-123 -142q-8 -6 -14 -6h-107
q-4 0 -5 2.5t1 4.5z" />
    <glyph glyph-name="uni0156" unicode="&#x156;" horiz-adv-x="598" 
d="M80 0q-8 0 -8 9v635q0 10 7 10q34 1 59.5 1.5t48.5 1t47 0.5h54q125 0 192 -51.5t67 -148.5q0 -63 -35 -108.5t-90 -67.5q8 -11 22.5 -31.5t31.5 -46t35.5 -53.5t35.5 -54t30.5 -48.5t21.5 -35.5q2 -5 2 -8.5t-5 -3.5h-145q-11 0 -14 6q-11 16 -27.5 43t-34.5 57.5
t-37 61.5t-34 57q-5 9 -10 13t-13 4h-73v-234q0 -8 -8 -8h-120zM285 360q57 0 90 22t33 67q0 46 -34 66.5t-90 20.5q-25 0 -45 -0.5t-31 -1.5v-174h77zM223 -221q-4 0 -5 3t1 5q21 32 28.5 57.5t7.5 49.5q0 14 -4 30t-12 35q-2 6 4 6h115q6 0 11 -6q6 -10 11 -26t5 -33
q0 -37 -11.5 -64.5t-34.5 -53.5q-3 -3 -11 -3h-105z" />
    <glyph glyph-name="uni0157" unicode="&#x157;" horiz-adv-x="363" 
d="M170 497q9 0 12 -9q4 -10 7 -24.5t4 -31.5q25 29 65 52t94 23q8 0 8 -8v-123q0 -7 -9 -7q-54 2 -94.5 -11.5t-56.5 -31.5l-1 -318q0 -8 -9 -8h-120q-10 0 -10 9v345q0 32 -1 71t-4 65q0 7 6 7h109zM41 -230q-4 0 -5 3t1 5q21 32 28.5 57.5t7.5 49.5q0 14 -4 30t-12 35
q-2 6 4 6h115q6 0 11 -6q6 -10 11 -26t5 -33q0 -37 -11.5 -64.5t-34.5 -53.5q-3 -3 -11 -3h-105z" />
    <glyph glyph-name="Rcaron" unicode="&#x158;" horiz-adv-x="598" 
d="M80 0q-8 0 -8 9v635q0 10 7 10q34 1 59.5 1.5t48.5 1t47 0.5h54q125 0 192 -51.5t67 -148.5q0 -63 -35 -108.5t-90 -67.5q8 -11 22.5 -31.5t31.5 -46t35.5 -53.5t35.5 -54t30.5 -48.5t21.5 -35.5q2 -5 2 -8.5t-5 -3.5h-145q-11 0 -14 6q-11 16 -27.5 43t-34.5 57.5
t-37 61.5t-34 57q-5 9 -10 13t-13 4h-73v-234q0 -8 -8 -8h-120zM285 360q57 0 90 22t33 67q0 46 -34 66.5t-90 20.5q-25 0 -45 -0.5t-31 -1.5v-174h77zM280 776l57 60q6 6 11 6h103q3 0 4 -3.5t-1 -5.5l-115 -119l-4.5 -3t-6.5 -1h-102q-10 0 -13 5l-119 120q-2 2 -1 4.5
t5 2.5h111q5 0 7.5 -2t5.5 -4z" />
    <glyph glyph-name="rcaron" unicode="&#x159;" horiz-adv-x="363" 
d="M170 497q9 0 12 -9q4 -10 7 -24.5t4 -31.5q25 29 65 52t94 23q8 0 8 -8v-123q0 -7 -9 -7q-54 2 -94.5 -11.5t-56.5 -31.5l-1 -318q0 -8 -9 -8h-120q-10 0 -10 9v345q0 32 -1 71t-4 65q0 7 6 7h109zM202 622l60 84q3 4 9 4h86q5 0 6 -3t-2 -6l-102 -141q-4 -5 -9 -5h-101
q-6 0 -9 4l-106 143q-4 8 4 8h95q7 0 11 -4z" />
    <glyph glyph-name="Sacute" unicode="&#x15a;" horiz-adv-x="505" 
d="M220 -10q-56 0 -100.5 9t-76.5 26q-7 4 -7 16v119q0 4 2.5 5.5t5.5 -0.5q42 -26 89 -39t92 -13q57 0 81.5 17.5t24.5 43.5q0 24 -20 43t-71 41l-50 21q-46 19 -76.5 40.5t-48.5 45.5t-25 50.5t-7 55.5q0 40 15.5 75.5t45.5 62t75 41.5t105 15q48 0 88.5 -6t67.5 -20
q6 -4 6 -13v-112q0 -3 -2 -5.5t-7 0.5q-30 17 -69.5 25t-84.5 8q-58 0 -81 -17t-23 -42q0 -23 20 -41.5t76 -40.5l37 -15q50 -21 82.5 -43t52 -46.5t27.5 -52t8 -57.5q0 -45 -17.5 -81.5t-50.5 -62t-79.5 -39.5t-104.5 -14zM286 846q4 4 6 4.5t7 0.5h145q4 0 4.5 -3t-1.5 -6
l-139 -110q-6 -7 -15 -7h-120q-11 0 -5 8z" />
    <glyph glyph-name="sacute" unicode="&#x15b;" horiz-adv-x="411" 
d="M348 367q-25 13 -60 21t-69 8q-35 0 -48.5 -10.5t-13.5 -23.5t13.5 -24.5t57.5 -27.5q45 -17 75.5 -34t49 -36.5t26.5 -42t8 -49.5q0 -72 -53 -115t-153 -43q-46 0 -84 7.5t-61 20.5q-7 4 -7 11v108q0 5 2.5 6.5t5.5 -0.5q35 -22 74 -31t73 -9q68 0 68 34q0 14 -16 26
t-60 29q-42 16 -71 33t-46.5 36.5t-25 42.5t-7.5 50q0 29 12 56.5t36 49t60.5 34.5t86.5 13q45 0 78 -5.5t52 -14.5q7 -4 7 -13v-100q0 -5 -2.5 -7t-7.5 0zM223 703q4 10 12 10h134q12 0 5 -10l-123 -142q-8 -6 -14 -6h-107q-4 0 -5 2.5t1 4.5z" />
    <glyph glyph-name="Scircumflex" unicode="&#x15c;" horiz-adv-x="505" 
d="M220 -10q-56 0 -100.5 9t-76.5 26q-7 4 -7 16v119q0 4 2.5 5.5t5.5 -0.5q42 -26 89 -39t92 -13q57 0 81.5 17.5t24.5 43.5q0 24 -20 43t-71 41l-50 21q-46 19 -76.5 40.5t-48.5 45.5t-25 50.5t-7 55.5q0 40 15.5 75.5t45.5 62t75 41.5t105 15q48 0 88.5 -6t67.5 -20
q6 -4 6 -13v-112q0 -3 -2 -5.5t-7 0.5q-30 17 -69.5 25t-84.5 8q-58 0 -81 -17t-23 -42q0 -23 20 -41.5t76 -40.5l37 -15q50 -21 82.5 -43t52 -46.5t27.5 -52t8 -57.5q0 -45 -17.5 -81.5t-50.5 -62t-79.5 -39.5t-104.5 -14zM244 782l-57 -60q-5 -6 -11 -6h-103q-3 0 -4 3.5
t1 5.5l115 119q6 3 11 3h102q10 0 13 -4l119 -120q5 -7 -5 -7h-109q-8 0 -14 6z" />
    <glyph glyph-name="scircumflex" unicode="&#x15d;" horiz-adv-x="411" 
d="M348 367q-25 13 -60 21t-69 8q-35 0 -48.5 -10.5t-13.5 -23.5t13.5 -24.5t57.5 -27.5q45 -17 75.5 -34t49 -36.5t26.5 -42t8 -49.5q0 -72 -53 -115t-153 -43q-46 0 -84 7.5t-61 20.5q-7 4 -7 11v108q0 5 2.5 6.5t5.5 -0.5q35 -22 74 -31t73 -9q68 0 68 34q0 14 -16 26
t-60 29q-42 16 -71 33t-46.5 36.5t-25 42.5t-7.5 50q0 29 12 56.5t36 49t60.5 34.5t86.5 13q45 0 78 -5.5t52 -14.5q7 -4 7 -13v-100q0 -5 -2.5 -7t-7.5 0zM201 643l-60 -85q-3 -3 -9 -3h-86q-5 0 -6 2.5t2 5.5l102 142q4 5 9 5h101q6 0 9 -5l106 -143q2 -2 0.5 -4.5
t-4.5 -2.5h-95q-7 0 -11 4z" />
    <glyph glyph-name="uni015E" unicode="&#x15e;" horiz-adv-x="505" 
d="M220 -10q-56 0 -100.5 9t-76.5 26q-7 4 -7 16v119q0 4 2.5 5.5t5.5 -0.5q42 -26 89 -39t92 -13q57 0 81.5 17.5t24.5 43.5q0 24 -20 43t-71 41l-50 21q-46 19 -76.5 40.5t-48.5 45.5t-25 50.5t-7 55.5q0 40 15.5 75.5t45.5 62t75 41.5t105 15q48 0 88.5 -6t67.5 -20
q6 -4 6 -13v-112q0 -3 -2 -5.5t-7 0.5q-30 17 -69.5 25t-84.5 8q-58 0 -81 -17t-23 -42q0 -23 20 -41.5t76 -40.5l37 -15q50 -21 82.5 -43t52 -46.5t27.5 -52t8 -57.5q0 -45 -17.5 -81.5t-50.5 -62t-79.5 -39.5t-104.5 -14zM296 7l-34 -45q41 -12 63 -34.5t22 -62.5
q0 -44 -34.5 -71.5t-91.5 -27.5q-21 0 -42 3.5t-34 9.5q-6 2 -6 8v58q0 6 7 5q14 -6 33 -9.5t33 -3.5q17 0 28.5 6t11.5 20q0 15 -23 27t-71 17q-2 3 -2.5 14.5t1.5 14.5l58 71h81z" />
    <glyph glyph-name="uni015F" unicode="&#x15f;" horiz-adv-x="411" 
d="M348 367q-25 13 -60 21t-69 8q-35 0 -48.5 -10.5t-13.5 -23.5t13.5 -24.5t57.5 -27.5q45 -17 75.5 -34t49 -36.5t26.5 -42t8 -49.5q0 -72 -53 -115t-153 -43q-46 0 -84 7.5t-61 20.5q-7 4 -7 11v108q0 5 2.5 6.5t5.5 -0.5q35 -22 74 -31t73 -9q68 0 68 34q0 14 -16 26
t-60 29q-42 16 -71 33t-46.5 36.5t-25 42.5t-7.5 50q0 29 12 56.5t36 49t60.5 34.5t86.5 13q45 0 78 -5.5t52 -14.5q7 -4 7 -13v-100q0 -5 -2.5 -7t-7.5 0zM254 7l-34 -45q42 -12 63.5 -34.5t21.5 -62.5q0 -42 -34.5 -70.5t-91.5 -28.5q-21 0 -42.5 3.5t-32.5 9.5
q-7 3 -7 12v53q0 7 9 6q14 -6 32 -9.5t32 -3.5q17 0 28.5 6t11.5 20q0 15 -22.5 26.5t-71.5 17.5q-2 3 -2.5 14.5t1.5 14.5l58 71h81z" />
    <glyph glyph-name="Scaron" unicode="&#x160;" horiz-adv-x="505" 
d="M220 -10q-56 0 -100.5 9t-76.5 26q-7 4 -7 16v119q0 4 2.5 5.5t5.5 -0.5q42 -26 89 -39t92 -13q57 0 81.5 17.5t24.5 43.5q0 24 -20 43t-71 41l-50 21q-46 19 -76.5 40.5t-48.5 45.5t-25 50.5t-7 55.5q0 40 15.5 75.5t45.5 62t75 41.5t105 15q48 0 88.5 -6t67.5 -20
q6 -4 6 -13v-112q0 -3 -2 -5.5t-7 0.5q-30 17 -69.5 25t-84.5 8q-58 0 -81 -17t-23 -42q0 -23 20 -41.5t76 -40.5l37 -15q50 -21 82.5 -43t52 -46.5t27.5 -52t8 -57.5q0 -45 -17.5 -81.5t-50.5 -62t-79.5 -39.5t-104.5 -14zM256 783l57 60q6 6 11 6h103q3 0 4 -3.5t-1 -5.5
l-115 -119l-4.5 -3t-6.5 -1h-102q-10 0 -13 5l-119 120q-2 2 -1 4.5t5 2.5h111q5 0 7.5 -2t5.5 -4z" />
    <glyph glyph-name="scaron" unicode="&#x161;" horiz-adv-x="411" 
d="M348 367q-25 13 -60 21t-69 8q-35 0 -48.5 -10.5t-13.5 -23.5t13.5 -24.5t57.5 -27.5q45 -17 75.5 -34t49 -36.5t26.5 -42t8 -49.5q0 -72 -53 -115t-153 -43q-46 0 -84 7.5t-61 20.5q-7 4 -7 11v108q0 5 2.5 6.5t5.5 -0.5q35 -22 74 -31t73 -9q68 0 68 34q0 14 -16 26
t-60 29q-42 16 -71 33t-46.5 36.5t-25 42.5t-7.5 50q0 29 12 56.5t36 49t60.5 34.5t86.5 13q45 0 78 -5.5t52 -14.5q7 -4 7 -13v-100q0 -5 -2.5 -7t-7.5 0zM205 622l60 84q3 4 9 4h86q5 0 6 -3t-2 -6l-102 -141q-4 -5 -9 -5h-101q-6 0 -9 4l-106 143q-4 8 4 8h95q7 0 11 -4z
" />
    <glyph glyph-name="uni0162" unicode="&#x162;" horiz-adv-x="553" 
d="M549 540q1 -10 -8 -10h-196v-520q0 -10 -9 -10h-16l-27 -35q39 -12 62 -35.5t23 -63.5q0 -42 -34 -70t-91 -28q-24 0 -44.5 3.5t-32.5 10.5q-6 4 -6 12v52q0 9 8 6q14 -5 32 -8.5t32 -3.5q18 0 29 6t11 20t-22.5 26t-71.5 18q-2 3 -2 14.5t2 14.5l49 61h-20q-11 -1 -11 9
v521h-196q-9 0 -7 9l14 107q1 9 10 9h501q8 0 10 -9z" />
    <glyph glyph-name="uni0163" unicode="&#x163;" horiz-adv-x="326" 
d="M305 17q0 -11 -7 -13q-21 -8 -42 -11t-47 -3q-66 0 -102 34t-36 109v248h-60q-8 1 -8 9v98q0 9 9 9h60q0 13 1 29.5t2.5 33.5t3 32t3.5 26q1 7 9 9l117 15q8 2 8 -6q-1 -12 -2 -28t-1.5 -34.5t-1 -38.5t-0.5 -38h92q8 0 8 -8v-101q0 -6 -7 -7h-94v-214q0 -33 11.5 -48.5
t42.5 -15.5q9 0 17 1t17 3q7 0 7 -7v-83zM244 7l-34 -45q42 -12 63.5 -34.5t21.5 -62.5q0 -42 -34.5 -70.5t-91.5 -28.5q-21 0 -42.5 3.5t-32.5 9.5q-7 3 -7 12v53q0 7 9 6q14 -6 32 -9.5t32 -3.5q17 0 28.5 6t11.5 20q0 15 -22.5 26.5t-71.5 17.5q-2 3 -2.5 14.5t1.5 14.5
l58 71h81z" />
    <glyph glyph-name="Tcaron" unicode="&#x164;" horiz-adv-x="551" 
d="M206 530h-197q-8 0 -6 9l14 107q1 9 10 9h500q9 0 11 -9l10 -106q1 -10 -8 -10h-195v-520q0 -10 -9 -10h-120q-10 -1 -10 9v521zM280 776l57 60q6 6 11 6h103q3 0 4 -3.5t-1 -5.5l-115 -119l-4.5 -3t-6.5 -1h-102q-10 0 -13 5l-119 120q-2 2 -1 4.5t5 2.5h111q5 0 7.5 -2
t5.5 -4z" />
    <glyph glyph-name="tcaron" unicode="&#x165;" horiz-adv-x="326" 
d="M261 767q0 8 8 8h92q10 0 9 -9l-20 -175q-2 -9 -10 -9h-69q-8 0 -8 9zM305 17q0 -11 -7 -13q-21 -8 -42 -11t-47 -3q-66 0 -102 34t-36 109v248h-60q-8 1 -8 9v98q0 9 9 9h60q0 13 1 29.5t2.5 33.5t3 32t3.5 26q1 7 9 9l117 15q8 2 8 -6q-1 -12 -2 -28t-1.5 -34.5
t-1 -38.5t-0.5 -38h92q8 0 8 -8v-101q0 -6 -7 -7h-94v-214q0 -33 11.5 -48.5t42.5 -15.5q9 0 17 1t17 3q7 0 7 -7v-83z" />
    <glyph glyph-name="Utilde" unicode="&#x168;" horiz-adv-x="657" 
d="M201 260q0 -65 31 -106t99 -41q28 0 51.5 8t39.5 25.5t25 46t9 69.5v384q0 9 8 9h122q9 0 9 -9v-392q0 -71 -21 -121t-57 -82t-85 -46.5t-105 -14.5q-61 0 -110 16t-83.5 48t-53 81t-18.5 114v397q0 5 1.5 7t7.5 2h122q8 0 8 -9v-386zM171 718q-9 0 -9 7q1 71 32.5 103
t74.5 32q24 0 43 -7.5t34.5 -17t28.5 -17t25 -7.5t18 11.5t8 28.5q2 6 7 6h75q8 0 8 -7q-1 -38 -9.5 -64t-22.5 -41.5t-32 -22t-38 -6.5q-23 0 -41.5 7.5t-34 16t-29.5 16t-27 7.5q-10 0 -18.5 -9.5t-10.5 -29.5q0 -6 -6 -6h-76z" />
    <glyph glyph-name="utilde" unicode="&#x169;" horiz-adv-x="554" 
d="M493 111q0 -38 2 -62.5t4 -40.5q1 -8 -9 -8h-106q-6 0 -8 1.5t-4 5.5q-2 7 -3.5 15.5t-2.5 15.5q-33 -29 -69 -38.5t-68 -9.5q-38 0 -69 10.5t-53 34t-34.5 60t-12.5 88.5v306q0 8 9 8h122q7 0 7 -8v-290q0 -41 18 -65t60 -24q25 0 43 7.5t35 21.5v350q0 8 10 8h121
q8 0 8 -8v-378zM107 554q-8 0 -8 7q0 37 8.5 63.5t23 43.5t34 25.5t41.5 8.5q24 0 44 -7.5t37 -16.5t30.5 -16.5t24.5 -7.5q15 0 21 11.5t7 28.5q0 7 7 7h74q8 0 8 -6q0 -39 -7.5 -66.5t-21.5 -44.5t-33 -24.5t-41 -7.5t-40.5 7.5t-35 16t-31.5 16t-30 7.5q-11 0 -20 -9
t-11 -31q0 -1 -1 -3t-4 -2h-76z" />
    <glyph glyph-name="Umacron" unicode="&#x16a;" horiz-adv-x="657" 
d="M201 260q0 -65 31 -106t99 -41q28 0 51.5 8t39.5 25.5t25 46t9 69.5v384q0 9 8 9h122q9 0 9 -9v-392q0 -71 -21 -121t-57 -82t-85 -46.5t-105 -14.5q-61 0 -110 16t-83.5 48t-53 81t-18.5 114v397q0 5 1.5 7t7.5 2h122q8 0 8 -9v-386zM476 828q7 0 7 -7v-88q0 -8 -7 -8
h-290q-9 0 -9 8v87q0 8 7 8h292z" />
    <glyph glyph-name="umacron" unicode="&#x16b;" horiz-adv-x="554" 
d="M493 111q0 -38 2 -62.5t4 -40.5q1 -8 -9 -8h-106q-6 0 -8 1.5t-4 5.5q-2 7 -3.5 15.5t-2.5 15.5q-33 -29 -69 -38.5t-68 -9.5q-38 0 -69 10.5t-53 34t-34.5 60t-12.5 88.5v306q0 8 9 8h122q7 0 7 -8v-290q0 -41 18 -65t60 -24q25 0 43 7.5t35 21.5v350q0 8 10 8h121
q8 0 8 -8v-378zM425 675q7 0 7 -8v-82q0 -7 -8 -7h-289q-7 0 -7 8v81q0 8 8 8h289z" />
    <glyph glyph-name="Ubreve" unicode="&#x16c;" horiz-adv-x="657" 
d="M201 260q0 -65 31 -106t99 -41q28 0 51.5 8t39.5 25.5t25 46t9 69.5v384q0 9 8 9h122q9 0 9 -9v-392q0 -71 -21 -121t-57 -82t-85 -46.5t-105 -14.5q-61 0 -110 16t-83.5 48t-53 81t-18.5 114v397q0 5 1.5 7t7.5 2h122q8 0 8 -9v-386zM253 845q7 0 8 -7q9 -21 26 -33.5
t40 -12.5q24 0 42 11t26 36l4 4t5 2h95q5 0 6 -3.5t0 -5.5q-13 -72 -62 -109t-116 -37q-66 0 -115 35.5t-61 111.5q-1 2 1 5t7 3h94z" />
    <glyph glyph-name="ubreve" unicode="&#x16d;" horiz-adv-x="554" 
d="M493 111q0 -38 2 -62.5t4 -40.5q1 -8 -9 -8h-106q-6 0 -8 1.5t-4 5.5q-2 7 -3.5 15.5t-2.5 15.5q-33 -29 -69 -38.5t-68 -9.5q-38 0 -69 10.5t-53 34t-34.5 60t-12.5 88.5v306q0 8 9 8h122q7 0 7 -8v-290q0 -41 18 -65t60 -24q25 0 43 7.5t35 21.5v350q0 8 10 8h121
q8 0 8 -8v-378zM205 698q5 0 6 -4q9 -23 25 -35t42 -12t44 11t26 35q1 5 5 5h95q4 0 4 -6q-14 -67 -58 -104.5t-116 -37.5q-68 0 -113.5 34.5t-58.5 107.5q-1 6 6 6h93z" />
    <glyph glyph-name="Uring" unicode="&#x16e;" horiz-adv-x="657" 
d="M201 260q0 -65 31 -106t99 -41q28 0 51.5 8t39.5 25.5t25 46t9 69.5v384q0 9 8 9h122q9 0 9 -9v-392q0 -71 -21 -121t-57 -82t-85 -46.5t-105 -14.5q-61 0 -110 16t-83.5 48t-53 81t-18.5 114v397q0 5 1.5 7t7.5 2h122q8 0 8 -9v-386zM215 780q0 44 31.5 68t79.5 24
q49 0 80.5 -25t31.5 -67q0 -46 -32 -70.5t-80 -24.5t-79.5 24.5t-31.5 70.5zM286 780q0 -17 11.5 -27.5t28.5 -10.5q18 0 30 10t12 28q0 16 -12 26t-30 10t-29 -10t-11 -26z" />
    <glyph glyph-name="uring" unicode="&#x16f;" horiz-adv-x="554" 
d="M493 111q0 -38 2 -62.5t4 -40.5q1 -8 -9 -8h-106q-6 0 -8 1.5t-4 5.5q-2 7 -3.5 15.5t-2.5 15.5q-33 -29 -69 -38.5t-68 -9.5q-38 0 -69 10.5t-53 34t-34.5 60t-12.5 88.5v306q0 8 9 8h122q7 0 7 -8v-290q0 -41 18 -65t60 -24q25 0 43 7.5t35 21.5v350q0 8 10 8h121
q8 0 8 -8v-378zM167 642q0 42 30 70t81 28q52 0 83 -27.5t31 -70.5q0 -46 -31.5 -73.5t-82.5 -27.5t-81 26.5t-30 74.5zM237 642q0 -19 12 -30t29 -11q18 0 30.5 11t12.5 30q0 17 -12.5 28t-30.5 11q-17 0 -29 -11t-12 -28z" />
    <glyph glyph-name="Uhungarumlaut" unicode="&#x170;" horiz-adv-x="657" 
d="M201 260q0 -65 31 -106t99 -41q28 0 51.5 8t39.5 25.5t25 46t9 69.5v384q0 9 8 9h122q9 0 9 -9v-392q0 -71 -21 -121t-57 -82t-85 -46.5t-105 -14.5q-61 0 -110 16t-83.5 48t-53 81t-18.5 114v397q0 5 1.5 7t7.5 2h122q8 0 8 -9v-386zM236 832q3 7 11 7h115q8 0 3 -9
l-88 -111q-3 -2 -5 -3.5t-6 -1.5h-95q-8 0 -5 8zM431 833q5 7 13 7h114q10 0 5 -11l-87 -108q-5 -6 -13 -6h-96q-9 0 -4 8z" />
    <glyph glyph-name="uhungarumlaut" unicode="&#x171;" horiz-adv-x="554" 
d="M493 111q0 -38 2 -62.5t4 -40.5q1 -8 -9 -8h-106q-6 0 -8 1.5t-4 5.5q-2 7 -3.5 15.5t-2.5 15.5q-33 -29 -69 -38.5t-68 -9.5q-38 0 -69 10.5t-53 34t-34.5 60t-12.5 88.5v306q0 8 9 8h122q7 0 7 -8v-290q0 -41 18 -65t60 -24q25 0 43 7.5t35 21.5v350q0 8 10 8h121
q8 0 8 -8v-378zM191 703q3 5 6 7t11 2h100q5 0 6.5 -4t-1.5 -7l-87 -138q-3 -5 -5 -7t-11 -2h-81q-7 0 -7.5 5t1.5 10zM385 704q3 5 5.5 7t8.5 2h102q6 0 7.5 -4.5t-0.5 -7.5l-89 -138q-3 -4 -6.5 -6t-12.5 -2h-77q-8 0 -9 4.5t1 9.5z" />
    <glyph glyph-name="Uogonek" unicode="&#x172;" horiz-adv-x="657" 
d="M492 28q-54 -34 -70.5 -59.5t-16.5 -45.5q0 -19 13.5 -31t38.5 -12q14 0 24.5 2t19.5 4q9 3 9 -7v-71q0 -11 -8 -15q-12 -7 -33.5 -11.5t-50.5 -4.5q-23 0 -46.5 5.5t-42.5 18t-31 33t-12 50.5q0 26 14.5 53.5t46.5 53.5q-4 0 -7 -0.5t-11 -0.5q-60 0 -109.5 15.5
t-84.5 47t-54 78.5t-19 111v404q0 5 1.5 7t7.5 2h122q8 0 8 -9v-390q0 -66 32 -104.5t100 -38.5q28 0 52 7t40.5 23.5t26 44.5t9.5 69v389q0 9 8 9h121q10 0 10 -9v-398q0 -83 -30 -136t-78 -84z" />
    <glyph glyph-name="uogonek" unicode="&#x173;" horiz-adv-x="554" 
d="M521 -192q0 -7 -2 -10t-6 -5q-13 -7 -33.5 -11t-49.5 -4q-24 0 -47.5 5.5t-42 18.5t-30.5 34t-12 51q0 40 22.5 71.5t51.5 57.5q-1 4 -2 10.5t-1 12.5q-30 -27 -66.5 -38t-71.5 -11t-66 9.5t-54.5 31.5t-37 59t-13.5 92v307q0 8 9 8h122q7 0 7 -8v-288q0 -44 18 -69.5
t60 -25.5q49 0 81 34v349q0 8 10 8h122q7 0 7 -8v-378q0 -28 1.5 -53.5t4.5 -44.5q2 -10 -5 -11q-35 -19 -55 -40.5t-20 -41.5q0 -40 48 -40q13 0 23 2t18 5q10 3 10 -7v-72z" />
    <glyph glyph-name="Wcircumflex" unicode="&#x174;" horiz-adv-x="856" 
d="M513 647q13 -58 28 -122.5t29 -128t26.5 -122t20.5 -103.5h1q3 21 9.5 57.5t17 93.5t27 137t39.5 188q2 8 11 8h121q10 0 7 -10l-166 -638q-2 -7 -10 -7h-123q-8 0 -11 7q-8 33 -17 75t-19.5 87.5t-21 92.5t-20 90t-17.5 80.5t-13 63.5h-1q-7 -40 -21.5 -103t-32 -132.5
t-34.5 -136.5t-29 -114q-2 -10 -11 -10h-120q-8 0 -12 9l-165 637q-2 9 6 9h132q4 0 6.5 -1t4.5 -7q28 -125 46 -206.5t28.5 -134t16 -82.5t8.5 -52h1q4 26 11.5 61.5t20.5 90t31 132.5t43 191q1 8 11 8h131q5 0 6.5 -1.5t3.5 -6.5zM429 780l-57 -60q-5 -6 -11 -6h-103
q-3 0 -4 3.5t1 5.5l115 119q6 3 11 3h102q10 0 13 -4l119 -120q5 -7 -5 -7h-109q-8 0 -14 6z" />
    <glyph glyph-name="wcircumflex" unicode="&#x175;" horiz-adv-x="750" 
d="M463 0q-6 0 -8 2t-4 7q-19 76 -31.5 133t-21.5 98t-14 68.5t-9 45.5h-1q-9 -41 -18 -79t-19 -78t-22 -85.5t-28 -102.5q-3 -9 -11 -9h-125q-8 0 -10 2t-4 7l-130 479q-4 9 8 9h127q8 0 9 -7q20 -81 33 -140.5t21 -101.5t12.5 -69t7.5 -43h2q3 13 8 38.5t14 67.5
t23.5 102.5t36.5 143.5q1 9 9 9h132q7 0 8 -7q20 -83 33 -143.5t21 -103.5t12.5 -69.5t7.5 -41.5h2q5 24 11 57t14.5 77t21 99.5t30.5 124.5q2 7 9 7h117q3 0 5.5 -2t0.5 -6l-143 -480q-2 -5 -3.5 -7t-8.5 -2h-125zM376 643l-60 -85q-3 -3 -9 -3h-86q-5 0 -6 2.5t2 5.5
l102 142q4 5 9 5h101q6 0 9 -5l106 -143q2 -2 0.5 -4.5t-4.5 -2.5h-95q-7 0 -11 4z" />
    <glyph glyph-name="Ycircumflex" unicode="&#x176;" horiz-adv-x="548" 
d="M-16 645q-4 5 -1 7.5t7 2.5h140q7 0 10 -6q36 -74 61 -123.5t41 -82.5t25.5 -52t14.5 -31q6 13 15 33t24 53t38 82t57 121q2 6 10 6h134q9 0 5 -9l-214 -388q-5 -8 -7 -15t-2 -17v-217q0 -9 -10 -9h-118q-11 0 -11 9v222q0 11 -1 17t-6 14zM269 781l-57 -60q-5 -6 -11 -6
h-103q-3 0 -4 3.5t1 5.5l115 119q6 3 11 3h102q10 0 13 -4l119 -120q5 -7 -5 -7h-109q-8 0 -14 6z" />
    <glyph glyph-name="ycircumflex" unicode="&#x177;" horiz-adv-x="487" 
d="M140 497q7 0 10 -7q43 -129 66.5 -208.5t34.5 -118.5q12 40 24 78.5t24.5 78t25.5 81.5t28 89q2 7 11 7h119q9 0 7 -9q-27 -84 -60 -175.5t-67.5 -180t-68 -170t-61.5 -145.5q-2 -3 -4.5 -5t-9.5 -2l-126 -10q-10 0 -5 9q22 45 44.5 94.5t46.5 106.5q2 5 2.5 8.5
t-1.5 8.5q-11 26 -32 79.5t-47 118.5t-53 135t-49 129q-2 4 0 6t6 2h135zM241 643l-60 -85q-3 -3 -9 -3h-86q-5 0 -6 2.5t2 5.5l102 142q4 5 9 5h101q6 0 9 -5l106 -143q2 -2 0.5 -4.5t-4.5 -2.5h-95q-7 0 -11 4z" />
    <glyph glyph-name="Ydieresis" unicode="&#x178;" horiz-adv-x="548" 
d="M-16 645q-4 5 -1 7.5t7 2.5h140q7 0 10 -6q36 -74 61 -123.5t41 -82.5t25.5 -52t14.5 -31q6 13 15 33t24 53t38 82t57 121q2 6 10 6h134q9 0 5 -9l-214 -388q-5 -8 -7 -15t-2 -17v-217q0 -9 -10 -9h-118q-11 0 -11 9v222q0 11 -1 17t-6 14zM170 706q-32 0 -52 17.5
t-20 47.5q0 29 21 48.5t54 19.5t52.5 -19.5t19.5 -48.5q0 -30 -20.5 -47.5t-54.5 -17.5zM386 706q-32 0 -52 17.5t-20 47.5q0 29 21 48.5t53 19.5t52 -19.5t20 -48.5q0 -31 -20.5 -48t-53.5 -17z" />
    <glyph glyph-name="Zacute" unicode="&#x179;" horiz-adv-x="556" 
d="M25 0q-4 0 -6.5 1.5t-2.5 7.5v77q0 5 0.5 7.5t2.5 5.5l330 432h-319q-9 0 -8 8l16 108q1 8 10 8h470q6 0 6 -7v-83q0 -9 -5 -16l-323 -424h342q8 0 5 -10l-18 -107q-2 -8 -10 -8h-490zM313 844q4 4 6 4.5t7 0.5h145q4 0 4.5 -3t-1.5 -6l-139 -110q-6 -7 -15 -7h-120
q-11 0 -5 8z" />
    <glyph glyph-name="zacute" unicode="&#x17a;" horiz-adv-x="434" 
d="M17 0q-6 0 -6 7v70q0 4 1 6.5t2 4.5q24 33 59 77.5t70.5 88t64.5 78.5t40 50q-15 -1 -38.5 -1h-52.5h-135q-10 0 -7 10l16 97q1 9 10 9h362q7 0 8 -7v-72q0 -5 -1.5 -7.5t-3.5 -7.5q-27 -39 -62 -84t-68 -86.5t-59.5 -73.5t-35.5 -44q19 1 46 0.5t65 -0.5h130q5 0 7 -1.5
t0 -7.5l-18 -98q-1 -8 -8 -8h-386zM241 703q4 10 12 10h134q12 0 5 -10l-123 -142q-8 -6 -14 -6h-107q-4 0 -5 2.5t1 4.5z" />
    <glyph glyph-name="Zdotaccent" unicode="&#x17b;" horiz-adv-x="556" 
d="M25 0q-4 0 -6.5 1.5t-2.5 7.5v77q0 5 0.5 7.5t2.5 5.5l330 432h-319q-9 0 -8 8l16 108q1 8 10 8h470q6 0 6 -7v-83q0 -9 -5 -16l-323 -424h342q8 0 5 -10l-18 -107q-2 -8 -10 -8h-490zM273 716q-35 0 -55.5 18.5t-20.5 48.5q0 31 21.5 49t56.5 18t55 -18.5t20 -48.5
t-21 -48.5t-56 -18.5z" />
    <glyph glyph-name="zdotaccent" unicode="&#x17c;" horiz-adv-x="434" 
d="M17 0q-6 0 -6 7v70q0 4 1 6.5t2 4.5q24 33 59 77.5t70.5 88t64.5 78.5t40 50q-15 -1 -38.5 -1h-52.5h-135q-10 0 -7 10l16 97q1 9 10 9h362q7 0 8 -7v-72q0 -5 -1.5 -7.5t-3.5 -7.5q-27 -39 -62 -84t-68 -86.5t-59.5 -73.5t-35.5 -44q19 1 46 0.5t65 -0.5h130q5 0 7 -1.5
t0 -7.5l-18 -98q-1 -8 -8 -8h-386zM219 550q-35 0 -56.5 21.5t-21.5 56.5q0 34 22.5 55.5t56.5 21.5q36 0 56.5 -21.5t20.5 -55.5q0 -35 -21.5 -56.5t-56.5 -21.5z" />
    <glyph glyph-name="Zcaron" unicode="&#x17d;" horiz-adv-x="556" 
d="M25 0q-4 0 -6.5 1.5t-2.5 7.5v77q0 5 0.5 7.5t2.5 5.5l330 432h-319q-9 0 -8 8l16 108q1 8 10 8h470q6 0 6 -7v-83q0 -9 -5 -16l-323 -424h342q8 0 5 -10l-18 -107q-2 -8 -10 -8h-490zM275 779l57 60q6 6 11 6h103q3 0 4 -3.5t-1 -5.5l-115 -119l-4.5 -3t-6.5 -1h-102
q-10 0 -13 5l-119 120q-2 2 -1 4.5t5 2.5h111q5 0 7.5 -2t5.5 -4z" />
    <glyph glyph-name="zcaron" unicode="&#x17e;" horiz-adv-x="434" 
d="M17 0q-6 0 -6 7v70q0 4 1 6.5t2 4.5q24 33 59 77.5t70.5 88t64.5 78.5t40 50q-15 -1 -38.5 -1h-52.5h-135q-10 0 -7 10l16 97q1 9 10 9h362q7 0 8 -7v-72q0 -5 -1.5 -7.5t-3.5 -7.5q-27 -39 -62 -84t-68 -86.5t-59.5 -73.5t-35.5 -44q19 1 46 0.5t65 -0.5h130q5 0 7 -1.5
t0 -7.5l-18 -98q-1 -8 -8 -8h-386zM221 622l60 84q3 4 9 4h86q5 0 6 -3t-2 -6l-102 -141q-4 -5 -9 -5h-101q-6 0 -9 4l-106 143q-4 8 4 8h95q7 0 11 -4z" />
    <glyph glyph-name="uni018F" unicode="&#x18f;" horiz-adv-x="664" 
d="M486 378v3q-1 26 -10 54.5t-31 52t-58.5 38.5t-92.5 15q-117 0 -211 -60q-9 -5 -9 6v110q0 11 5 12q41 23 99 39.5t131 16.5q88 0 149 -28.5t99 -75t55 -106.5t17 -123q0 -74 -20.5 -137t-60 -108.5t-97 -71t-132.5 -25.5q-77 0 -131.5 25.5t-89.5 67t-51 94.5t-16 109
q0 32 2 57.5t6 30.5q3 1 20 2t41 1.5t51.5 0.5h51.5h283zM251 259q-43 0 -56.5 -0.5t-14.5 -1.5q-1 -2 -1 -6v-7q0 -19 8 -42t26 -42.5t46 -33t69 -13.5q66 0 106.5 35t48.5 111h-232z" />
    <glyph glyph-name="florin" unicode="&#x192;" horiz-adv-x="479" 
d="M70 397q0 7 8 7h89l9 57q5 35 18 74.5t37.5 72.5t62 55t91.5 22q29 0 44.5 -2.5t29.5 -7.5q6 -2 6 -10v-99q0 -8 -8 -5q-12 5 -23 6.5t-31 1.5q-39 0 -60 -26.5t-30 -85.5l-7 -53h101q8 0 8 -7v-76q0 -7 -6 -7h-115l-31 -231q-6 -47 -18.5 -86t-35 -67t-56 -43.5
t-81.5 -15.5q-30 1 -49 5t-36 12q-4 2 -5 5.5t-1 8.5v102q0 9 8 6q18 -8 33.5 -12t30.5 -4q18 0 30 4t20.5 14t14 27.5t8.5 43.5l31 231h-79q-8 0 -8 7v76z" />
    <glyph glyph-name="Ohorn" unicode="&#x1a0;" horiz-adv-x="697" 
d="M352 113q39 0 70 15.5t52.5 43.5t32.5 67.5t11 87.5q-1 100 -45 157.5t-126 57.5q-75 0 -121.5 -56t-46.5 -159q0 -45 11.5 -84.5t33 -68t54 -45t74.5 -16.5zM650 736q8 0 11 -10q6 -20 6 -46q0 -40 -21.5 -72.5t-63.5 -43.5q39 -45 59 -105t20 -128q0 -77 -22.5 -139.5
t-63.5 -107.5t-99 -69.5t-128 -24.5q-74 0 -132 25.5t-98 70.5t-61.5 107t-21.5 135q0 70 22.5 131.5t63.5 107t99 72t129 26.5q44 0 82 -9.5t70 -26.5h1q29 0 37 14t8 35q0 11 -2 23.5t-4 25.5q-2 9 5 9h104z" />
    <glyph glyph-name="ohorn" unicode="&#x1a1;" horiz-adv-x="553" 
d="M279 106q44 0 73 36.5t29 105.5q0 29 -6 55t-19.5 45.5t-34 31t-48.5 11.5q-44 0 -73 -37t-29 -104q0 -66 28.5 -105t79.5 -39zM551 571q8 0 11 -10t4 -21t1 -25q0 -39 -21 -71t-63 -44q20 -32 30 -70t10 -79q0 -59 -18 -107t-51 -82.5t-78 -53t-99 -18.5
q-64 0 -110.5 22t-77 58.5t-45 83t-14.5 94.5q0 53 17 100t49.5 82.5t78.5 56t104 20.5q43 0 78 -10.5t63 -29.5q17 4 22.5 16.5t5.5 29.5q0 11 -2 24t-5 25q-2 9 6 9h104z" />
    <glyph glyph-name="Uhorn" unicode="&#x1af;" horiz-adv-x="674" 
d="M682 761q10 0 11 -9q6 -20 6 -47q0 -42 -23 -74.5t-70 -42.5l-9 8v-342q0 -71 -21 -121t-57 -82t-85 -46.5t-105 -14.5q-61 0 -110 16t-83.5 48t-53 81t-18.5 114v397q0 5 1.5 7t7.5 2h122q8 0 8 -9v-386q0 -65 31 -106t99 -41q28 0 51.5 8t39.5 25.5t25 46t9 69.5v384
q0 9 8 9h62h7q28 0 36.5 13.5t8.5 34.5q0 11 -2 24t-5 26q-2 8 5 8h104z" />
    <glyph glyph-name="uhorn" unicode="&#x1b0;" horiz-adv-x="554" 
d="M558 603q8 0 11 -9q6 -20 6 -47q0 -39 -20 -71t-62 -43v-322q0 -38 2 -62.5t4 -40.5q1 -8 -9 -8h-106q-6 0 -8 1.5t-4 5.5q-2 7 -3.5 15.5t-2.5 15.5q-33 -29 -69 -38.5t-68 -9.5q-38 0 -69 10.5t-53 34t-34.5 60t-12.5 88.5v306q0 8 9 8h122q7 0 7 -8v-290q0 -41 18 -65
t60 -24q25 0 43 7.5t35 21.5v350q0 8 10 8h40h8q27 0 35 13.5t8 34.5q0 11 -1.5 24t-4.5 26q-2 8 5 8h104z" />
    <glyph glyph-name="uni01CD" unicode="&#x1cd;" horiz-adv-x="616" 
d="M185 156l-48 -148q-3 -8 -11 -8h-116q-10 0 -8 10l200 577q3 8 5.5 20t4.5 41q0 7 6 7h160q7 0 8 -6l227 -640q4 -9 -5 -9h-130q-8 0 -11 7l-51 149h-231zM379 281q-8 25 -18.5 58.5t-21.5 69t-21.5 69.5t-17.5 61h-1q-6 -25 -15.5 -57t-20 -66.5t-21.5 -69.5t-21 -65
h158zM305 776l57 60q6 6 11 6h103q3 0 4 -3.5t-1 -5.5l-115 -119l-4.5 -3t-6.5 -1h-102q-10 0 -13 5l-119 120q-2 2 -1 4.5t5 2.5h111q5 0 7.5 -2t5.5 -4z" />
    <glyph glyph-name="uni01CE" unicode="&#x1ce;" horiz-adv-x="507" 
d="M313 214q-12 2 -23.5 2.5t-26.5 0.5q-54 0 -77 -16t-23 -43q0 -25 20 -42.5t68 -17.5q33 0 62 9v107zM448 111v-36.5t2 -34.5q0 -4 -2 -5q-33 -13 -61 -21.5t-54 -14t-51 -7.5t-52 -2q-42 0 -78.5 10t-64 30t-43.5 51.5t-16 75.5q0 40 16.5 70t46.5 50.5t71.5 31
t91.5 10.5h36t23 -2v7q0 7 -3 18t-13.5 21t-29.5 17t-50 7q-38 0 -70.5 -7t-61.5 -20q-3 -2 -6 -0.5t-3 5.5v101q0 8 7 10q33 16 74 23.5t83 7.5q54 0 93 -15.5t64.5 -43t38 -64.5t12.5 -80v-193zM258 622l60 84q3 4 9 4h86q5 0 6 -3t-2 -6l-102 -141q-4 -5 -9 -5h-101
q-6 0 -9 4l-106 143q-4 8 4 8h95q7 0 11 -4z" />
    <glyph glyph-name="uni01CF" unicode="&#x1cf;" horiz-adv-x="283" 
d="M211 9q0 -9 -9 -9h-122q-8 0 -8 9v637q0 6 2 7.5t6 1.5h122q9 0 9 -9v-637zM147 772l57 60q6 6 11 6h103q3 0 4 -3.5t-1 -5.5l-115 -119l-4.5 -3t-6.5 -1h-102q-10 0 -13 5l-119 120q-2 2 -1 4.5t5 2.5h111q5 0 7.5 -2t5.5 -4z" />
    <glyph glyph-name="uni01D0" unicode="&#x1d0;" horiz-adv-x="259" 
d="M60 489q0 8 8 8h123q8 0 8 -8v-480q0 -5 -1.5 -7t-7.5 -2h-120q-10 0 -10 9v480zM136 622l60 84q3 4 9 4h86q5 0 6 -3t-2 -6l-102 -141q-4 -5 -9 -5h-101q-6 0 -9 4l-106 143q-4 8 4 8h95q7 0 11 -4z" />
    <glyph glyph-name="uni01D1" unicode="&#x1d1;" horiz-adv-x="697" 
d="M349 665q75 0 132.5 -26.5t97.5 -72t61 -106t21 -129.5q0 -77 -22.5 -139.5t-64 -107.5t-99.5 -69.5t-128 -24.5q-74 0 -131.5 25.5t-98 70.5t-61.5 107t-21 135q0 70 22.5 131.5t63.5 107t99 72t129 26.5zM178 327q0 -45 11.5 -84.5t33.5 -68t54.5 -45t74.5 -16.5
q39 0 70 15.5t52 43.5t32.5 67.5t11.5 87.5q-1 100 -45.5 157.5t-125.5 57.5q-75 0 -122 -56t-47 -159zM346 780l57 60q6 6 11 6h103q3 0 4 -3.5t-1 -5.5l-115 -119l-4.5 -3t-6.5 -1h-102q-10 0 -13 5l-119 120q-2 2 -1 4.5t5 2.5h111q5 0 7.5 -2t5.5 -4z" />
    <glyph glyph-name="uni01D2" unicode="&#x1d2;" horiz-adv-x="553" 
d="M279 507q60 0 106 -21t76.5 -56.5t46 -81.5t15.5 -97q0 -59 -18 -107t-51 -82.5t-78 -53t-99 -18.5q-64 0 -110.5 22t-77 58.5t-45 83t-14.5 94.5q0 53 17 100t49.5 82.5t78.5 56t104 20.5zM273 391q-44 0 -73 -37t-29 -104q0 -66 28.5 -105t79.5 -39q44 0 73 36.5
t29 105.5q0 29 -6 55t-19.5 45.5t-34 31t-48.5 11.5zM277 622l60 84q3 4 9 4h86q5 0 6 -3t-2 -6l-102 -141q-4 -5 -9 -5h-101q-6 0 -9 4l-106 143q-4 8 4 8h95q7 0 11 -4z" />
    <glyph glyph-name="uni01D3" unicode="&#x1d3;" horiz-adv-x="657" 
d="M201 260q0 -65 31 -106t99 -41q28 0 51.5 8t39.5 25.5t25 46t9 69.5v384q0 9 8 9h122q9 0 9 -9v-392q0 -71 -21 -121t-57 -82t-85 -46.5t-105 -14.5q-61 0 -110 16t-83.5 48t-53 81t-18.5 114v397q0 5 1.5 7t7.5 2h122q8 0 8 -9v-386zM334 768l57 60q6 6 11 6h103
q3 0 4 -3.5t-1 -5.5l-115 -119l-4.5 -3t-6.5 -1h-102q-10 0 -13 5l-119 120q-2 2 -1 4.5t5 2.5h111q5 0 7.5 -2t5.5 -4z" />
    <glyph glyph-name="uni01D4" unicode="&#x1d4;" horiz-adv-x="554" 
d="M493 111q0 -38 2 -62.5t4 -40.5q1 -8 -9 -8h-106q-6 0 -8 1.5t-4 5.5q-2 7 -3.5 15.5t-2.5 15.5q-33 -29 -69 -38.5t-68 -9.5q-38 0 -69 10.5t-53 34t-34.5 60t-12.5 88.5v306q0 8 9 8h122q7 0 7 -8v-290q0 -41 18 -65t60 -24q25 0 43 7.5t35 21.5v350q0 8 10 8h121
q8 0 8 -8v-378zM280 622l60 84q3 4 9 4h86q5 0 6 -3t-2 -6l-102 -141q-4 -5 -9 -5h-101q-6 0 -9 4l-106 143q-4 8 4 8h95q7 0 11 -4z" />
    <glyph glyph-name="uni01D5" unicode="&#x1d5;" horiz-adv-x="657" 
d="M201 260q0 -65 31 -106t99 -41q28 0 51.5 8t39.5 25.5t25 46t9 69.5v384q0 9 8 9h122q9 0 9 -9v-392q0 -71 -21 -121t-57 -82t-85 -46.5t-105 -14.5q-61 0 -110 16t-83.5 48t-53 81t-18.5 114v397q0 5 1.5 7t7.5 2h122q8 0 8 -9v-386zM475 907q7 0 7 -7v-69q0 -7 -7 -7
h-289q-7 0 -7 8v68q0 7 8 7h288zM228 694q-25 0 -41 12.5t-16 33.5t16.5 34.5t41.5 13.5t39.5 -13.5t14.5 -34.5t-15.5 -33.5t-39.5 -12.5zM433 694q-23 0 -38.5 12.5t-15.5 33.5t15.5 34.5t40.5 13.5t40 -13.5t15 -34.5t-15.5 -33.5t-41.5 -12.5z" />
    <glyph glyph-name="uni01D6" unicode="&#x1d6;" horiz-adv-x="554" 
d="M493 111q0 -38 2 -62.5t4 -40.5q1 -8 -9 -8h-106q-6 0 -8 1.5t-4 5.5q-2 7 -3.5 15.5t-2.5 15.5q-33 -29 -69 -38.5t-68 -9.5q-38 0 -69 10.5t-53 34t-34.5 60t-12.5 88.5v306q0 8 9 8h122q7 0 7 -8v-290q0 -41 18 -65t60 -24q25 0 43 7.5t35 21.5v350q0 8 10 8h121
q8 0 8 -8v-378zM185 538q-26 0 -42.5 14.5t-16.5 38.5t17.5 38.5t43.5 14.5t42 -15t16 -39t-17 -38t-43 -14zM366 538q-25 0 -41 14t-16 39q0 24 16.5 38.5t42.5 14.5q27 0 42.5 -15t15.5 -39q0 -23 -17 -37.5t-43 -14.5zM417 761q7 0 7 -8v-63q0 -7 -7 -7h-279q-7 0 -7 7
v63q0 8 8 8h278z" />
    <glyph glyph-name="uni01D7" unicode="&#x1d7;" horiz-adv-x="657" 
d="M201 260q0 -65 31 -106t99 -41q28 0 51.5 8t39.5 25.5t25 46t9 69.5v384q0 9 8 9h122q9 0 9 -9v-392q0 -71 -21 -121t-57 -82t-85 -46.5t-105 -14.5q-61 0 -110 16t-83.5 48t-53 81t-18.5 114v397q0 5 1.5 7t7.5 2h122q8 0 8 -9v-386zM336 899q2 5 9 5h118q6 0 3 -6
l-82 -84q-2 -5 -11 -5h-102q-7 0 -4 8zM225 697q-25 0 -41 12.5t-16 33.5t16.5 34.5t41.5 13.5t39.5 -14t14.5 -34q0 -22 -15.5 -34t-39.5 -12zM430 697q-23 0 -38.5 12.5t-15.5 33.5t15.5 34.5t40.5 13.5t40 -13.5t15 -34.5t-15.5 -33.5t-41.5 -12.5z" />
    <glyph glyph-name="uni01D8" unicode="&#x1d8;" horiz-adv-x="554" 
d="M493 111q0 -38 2 -62.5t4 -40.5q1 -8 -9 -8h-106q-6 0 -8 1.5t-4 5.5q-2 7 -3.5 15.5t-2.5 15.5q-33 -29 -69 -38.5t-68 -9.5q-38 0 -69 10.5t-53 34t-34.5 60t-12.5 88.5v306q0 8 9 8h122q7 0 7 -8v-290q0 -41 18 -65t60 -24q25 0 43 7.5t35 21.5v350q0 8 10 8h121
q8 0 8 -8v-378zM282 771q2 5 10 5h117q7 0 3 -6l-84 -93q-1 -4 -10 -4h-103q-7 0 -4 7zM186 546q-25 0 -40.5 13.5t-15.5 36.5t16.5 36.5t40.5 13.5q25 0 40 -13.5t15 -36.5q0 -24 -16 -37t-40 -13zM367 546q-24 0 -39.5 13t-15.5 37q0 23 16 36.5t41 13.5q24 0 39.5 -13.5
t15.5 -36.5t-16 -36.5t-41 -13.5z" />
    <glyph glyph-name="uni01D9" unicode="&#x1d9;" horiz-adv-x="657" 
d="M201 260q0 -65 31 -106t99 -41q28 0 51.5 8t39.5 25.5t25 46t9 69.5v384q0 9 8 9h122q9 0 9 -9v-392q0 -71 -21 -121t-57 -82t-85 -46.5t-105 -14.5q-61 0 -110 16t-83.5 48t-53 81t-18.5 114v397q0 5 1.5 7t7.5 2h122q8 0 8 -9v-386zM330 854q9 8 23.5 21t23.5 21
q3 4 10 4h95q4 0 4.5 -3t-1.5 -6l-89 -75q-3 -5 -11 -5h-119q-7 0 -11 5l-93 76q-4 8 4 8h104q5 0 7 -1.5t5 -3.5q9 -8 23 -20t25 -21zM225 695q-25 0 -41 12.5t-16 34.5q0 21 16.5 34t41.5 13t39.5 -13.5t14.5 -33.5q0 -22 -15.5 -34.5t-39.5 -12.5zM430 695
q-23 0 -38.5 12.5t-15.5 34.5q0 20 16 33.5t40 13.5q25 0 40 -13t15 -35q0 -20 -15.5 -33t-41.5 -13z" />
    <glyph glyph-name="uni01DA" unicode="&#x1da;" horiz-adv-x="554" 
d="M493 111q0 -38 2 -62.5t4 -40.5q1 -8 -9 -8h-106q-6 0 -8 1.5t-4 5.5q-2 7 -3.5 15.5t-2.5 15.5q-33 -29 -69 -38.5t-68 -9.5q-38 0 -69 10.5t-53 34t-34.5 60t-12.5 88.5v306q0 8 9 8h122q7 0 7 -8v-290q0 -41 18 -65t60 -24q25 0 43 7.5t35 21.5v350q0 8 10 8h121
q8 0 8 -8v-378zM186 542q-25 0 -40.5 13t-15.5 36t16.5 37t40.5 14q25 0 40 -14t15 -37t-16 -36t-40 -13zM367 542q-24 0 -39.5 13t-15.5 36t16 37t41 14q24 0 39.5 -14t15.5 -37t-16 -36t-41 -13zM276 720q9 10 22.5 23t23.5 22q4 4 11 4h94q4 0 5 -3t-2 -6l-90 -86
q-5 -5 -11 -5h-113q-8 0 -12 4l-94 88q-2 3 -0.5 5.5t5.5 2.5h104q4 0 5.5 -1.5t4.5 -3.5q11 -10 23.5 -21.5t23.5 -22.5z" />
    <glyph glyph-name="uni01DB" unicode="&#x1db;" horiz-adv-x="657" 
d="M201 260q0 -65 31 -106t99 -41q28 0 51.5 8t39.5 25.5t25 46t9 69.5v384q0 9 8 9h122q9 0 9 -9v-392q0 -71 -21 -121t-57 -82t-85 -46.5t-105 -14.5q-61 0 -110 16t-83.5 48t-53 81t-18.5 114v397q0 5 1.5 7t7.5 2h122q8 0 8 -9v-386zM397 815q2 -4 0.5 -6t-4.5 -2h-103
q-7 0 -10 5l-82 84q-3 6 3 6h117q7 0 11 -5zM225 695q-25 0 -41 12.5t-16 33.5t16.5 34.5t41.5 13.5t39.5 -14t14.5 -34q0 -22 -15.5 -34t-39.5 -12zM430 695q-23 0 -38.5 12.5t-15.5 33.5t15.5 34.5t40.5 13.5t40 -13.5t15 -34.5t-15.5 -33.5t-41.5 -12.5z" />
    <glyph glyph-name="uni01DC" unicode="&#x1dc;" horiz-adv-x="554" 
d="M493 111q0 -38 2 -62.5t4 -40.5q1 -8 -9 -8h-106q-6 0 -8 1.5t-4 5.5q-2 7 -3.5 15.5t-2.5 15.5q-33 -29 -69 -38.5t-68 -9.5q-38 0 -69 10.5t-53 34t-34.5 60t-12.5 88.5v306q0 8 9 8h122q7 0 7 -8v-290q0 -41 18 -65t60 -24q25 0 43 7.5t35 21.5v350q0 8 10 8h121
q8 0 8 -8v-378zM342 680q4 -7 -4 -7h-102q-8 0 -12 4l-84 92q-4 7 3 7h118q8 0 10 -6zM186 546q-25 0 -40.5 13.5t-15.5 36.5t16.5 36.5t40.5 13.5q25 0 40 -13.5t15 -36.5q0 -24 -16 -37t-40 -13zM367 546q-24 0 -39.5 13t-15.5 37q0 23 16 36.5t41 13.5q24 0 39.5 -13.5
t15.5 -36.5t-16 -36.5t-41 -13.5z" />
    <glyph glyph-name="Gcaron" unicode="&#x1e6;" horiz-adv-x="651" 
d="M358 255q-9 0 -9 9v103q0 6 8 6h230q6 0 7.5 -1.5t1.5 -6.5v-331q1 -7 -7 -10q-55 -20 -106 -27t-96 -7q-89 0 -155 26.5t-110 71.5t-65.5 105.5t-21.5 129.5q0 78 26.5 141t75.5 107.5t118 69t153 24.5q50 0 92.5 -5.5t69.5 -18.5q7 -1 7 -13v-109q0 -11 -9 -6
q-33 17 -72 22.5t-84 6.5q-117 1 -175.5 -56.5t-58.5 -158.5q0 -46 14 -85.5t41 -68.5t67.5 -45.5t93.5 -16.5q22 0 36 1.5t27 5.5v132zM370 785l57 60q6 6 11 6h103q3 0 4 -3.5t-1 -5.5l-115 -119l-4.5 -3t-6.5 -1h-102q-10 0 -13 5l-119 120q-2 2 -1 4.5t5 2.5h111
q5 0 7.5 -2t5.5 -4z" />
    <glyph glyph-name="gcaron" unicode="&#x1e7;" horiz-adv-x="526" 
d="M186 4q-17 -12 -27.5 -28.5t-10.5 -24.5q0 -23 31.5 -44t90.5 -21q67 0 97 19.5t30 44.5q0 28 -29 38t-71 12zM246 407q-32 0 -51 -18t-19 -51q0 -29 18 -48.5t53 -19.5q33 0 51 17t18 48q0 32 -16 52t-54 20zM328 116q54 -3 91 -14.5t60.5 -30.5t34 -44t10.5 -55
q0 -39 -18.5 -73.5t-52.5 -60t-83 -40t-109 -14.5q-63 0 -108 14t-74.5 36.5t-43.5 50t-14 54.5q0 24 21 54.5t71 72.5q-11 17 -16.5 36t-4.5 39q0 17 5 34t13 32q-31 20 -50 51t-19 78q0 36 13.5 67t40 54.5t64.5 36.5t87 13q28 0 53 -2.5t42 -5.5q7 -2 13 -2h11h137
q7 0 7 -7v-93q0 -7 -7 -7q-11 0 -32 1.5t-37 3.5q6 -11 10.5 -26.5t4.5 -38.5q0 -40 -15.5 -69.5t-42 -49.5t-62.5 -30t-78 -10q-8 0 -17 0.5t-17 1.5q-5 -13 -2 -27q1 -13 11 -26zM256 622l60 84q3 4 9 4h86q5 0 6 -3t-2 -6l-102 -141q-4 -5 -9 -5h-101q-6 0 -9 4l-106 143
q-4 8 4 8h95q7 0 11 -4z" />
    <glyph glyph-name="uni0218" unicode="&#x218;" horiz-adv-x="505" 
d="M220 -10q-56 0 -100.5 9t-76.5 26q-7 4 -7 16v119q0 4 2.5 5.5t5.5 -0.5q42 -26 89 -39t92 -13q57 0 81.5 17.5t24.5 43.5q0 24 -20 43t-71 41l-50 21q-46 19 -76.5 40.5t-48.5 45.5t-25 50.5t-7 55.5q0 40 15.5 75.5t45.5 62t75 41.5t105 15q48 0 88.5 -6t67.5 -20
q6 -4 6 -13v-112q0 -3 -2 -5.5t-7 0.5q-30 17 -69.5 25t-84.5 8q-58 0 -81 -17t-23 -42q0 -23 20 -41.5t76 -40.5l37 -15q50 -21 82.5 -43t52 -46.5t27.5 -52t8 -57.5q0 -45 -17.5 -81.5t-50.5 -62t-79.5 -39.5t-104.5 -14zM159 -239q-4 0 -5 3t1 5q21 32 28.5 57.5
t7.5 49.5q0 14 -4 30t-12 35q-2 6 4 6h115q6 0 11 -6q6 -10 11 -26t5 -33q0 -37 -11.5 -64.5t-34.5 -53.5q-3 -3 -11 -3h-105z" />
    <glyph glyph-name="uni0219" unicode="&#x219;" horiz-adv-x="411" 
d="M348 367q-25 13 -60 21t-69 8q-35 0 -48.5 -10.5t-13.5 -23.5t13.5 -24.5t57.5 -27.5q45 -17 75.5 -34t49 -36.5t26.5 -42t8 -49.5q0 -72 -53 -115t-153 -43q-46 0 -84 7.5t-61 20.5q-7 4 -7 11v108q0 5 2.5 6.5t5.5 -0.5q35 -22 74 -31t73 -9q68 0 68 34q0 14 -16 26
t-60 29q-42 16 -71 33t-46.5 36.5t-25 42.5t-7.5 50q0 29 12 56.5t36 49t60.5 34.5t86.5 13q45 0 78 -5.5t52 -14.5q7 -4 7 -13v-100q0 -5 -2.5 -7t-7.5 0zM113 -232q-4 0 -5 3t1 5q21 32 28.5 57.5t7.5 49.5q0 14 -4 30t-12 35q-2 6 4 6h115q6 0 11 -6q6 -10 11 -26t5 -33
q0 -37 -11.5 -64.5t-34.5 -53.5q-3 -3 -11 -3h-105z" />
    <glyph glyph-name="uni021A" unicode="&#x21a;" horiz-adv-x="551" 
d="M206 530h-197q-8 0 -6 9l14 107q1 9 10 9h500q9 0 11 -9l10 -106q1 -10 -8 -10h-195v-520q0 -10 -9 -10h-120q-10 -1 -10 9v521zM188 -232q-4 0 -5 3t1 5q21 32 28.5 57.5t7.5 49.5q0 14 -4 30t-12 35q-2 6 4 6h115q6 0 11 -6q6 -10 11 -26t5 -33q0 -37 -11.5 -64.5
t-34.5 -53.5q-3 -3 -11 -3h-105z" />
    <glyph glyph-name="uni021B" unicode="&#x21b;" horiz-adv-x="326" 
d="M305 17q0 -11 -7 -13q-21 -8 -42 -11t-47 -3q-66 0 -102 34t-36 109v248h-60q-8 1 -8 9v98q0 9 9 9h60q0 13 1 29.5t2.5 33.5t3 32t3.5 26q1 7 9 9l117 15q8 2 8 -6q-1 -12 -2 -28t-1.5 -34.5t-1 -38.5t-0.5 -38h92q8 0 8 -8v-101q0 -6 -7 -7h-94v-214q0 -33 11.5 -48.5
t42.5 -15.5q9 0 17 1t17 3q7 0 7 -7v-83zM97 -236q-4 0 -5 3t1 5q21 32 28.5 57.5t7.5 49.5q0 14 -4 30t-12 35q-2 6 4 6h115q6 0 11 -6q6 -10 11 -26t5 -33q0 -37 -11.5 -64.5t-34.5 -53.5q-3 -3 -11 -3h-105z" />
    <glyph glyph-name="uni0237" unicode="&#x237;" horiz-adv-x="259" 
d="M191 497q8 0 8 -8v-448q0 -41 -3 -71t-9 -52t-15.5 -39t-22.5 -33t-30.5 -27t-37 -17.5t-39 -9.5t-35.5 -3h-13t-13 1q-9 1 -9 10v102q0 8 7 8q39 0 59.5 19t21.5 74v486q0 8 9 8h122z" />
    <glyph glyph-name="uni0251" unicode="&#x251;" horiz-adv-x="556" 
d="M292 -10q-56 0 -103.5 16t-83 47.5t-55.5 79t-20 111.5q0 54 18.5 101.5t54.5 83.5t89 57t122 21q42 0 88.5 -6.5t83.5 -19.5q7 -2 7 -9v-356q0 -17 1 -38t3 -35q0 -7 -6 -9q-99 -44 -199 -44zM354 385q-7 2 -17.5 4t-27.5 2q-57 0 -96.5 -35.5t-39.5 -105.5
q0 -37 10.5 -63.5t29 -44t42.5 -25.5t51 -8q29 0 48 8v268z" />
    <glyph glyph-name="uni0259" unicode="&#x259;" horiz-adv-x="515" 
d="M342 283q-2 22 -10 41t-24 33t-40.5 22.5t-58.5 8.5q-35 0 -69.5 -6.5t-63.5 -19.5q-6 -3 -6 4v96q0 8 6 12q30 14 70.5 23t93.5 9q66 0 112 -22t75.5 -58t42.5 -81t13 -91q0 -54 -15 -102t-45 -84t-74.5 -57t-103.5 -21q-57 0 -97.5 20t-67 51t-38.5 69.5t-12 76.5
q0 45 5 63q1 7 8 8q11 2 38 3.5t65 1.5h196zM212 188q-24 0 -36 -0.5t-14 -1.5q-1 -1 -1 -3v-3q0 -9 4.5 -23t15 -26.5t27.5 -21.5t42 -9q23 0 39.5 8t27.5 20.5t17 28t8 31.5h-130z" />
    <glyph glyph-name="uni0261" unicode="&#x261;" horiz-adv-x="553" 
d="M352 385q-20 6 -48 6q-30 0 -54 -10.5t-40.5 -29.5t-25.5 -44t-9 -55q0 -34 10.5 -59.5t27.5 -42.5t40 -25.5t48 -8.5q33 0 51 7v262zM491 84q0 -41 -3.5 -71.5t-8.5 -53.5q-13 -50 -38.5 -84t-60 -54t-77 -28.5t-89.5 -8.5q-34 0 -75.5 7t-72.5 21q-5 2 -6.5 5t-1.5 6
v119q0 3 2 4.5t6 -0.5q37 -19 76.5 -26.5t74.5 -7.5q40 0 65.5 7.5t40.5 20.5t21 29t7 34v3q-14 -5 -30.5 -6.5t-36.5 -1.5q-54 0 -100 16.5t-79.5 48t-53 77.5t-19.5 105q0 52 18 99.5t54 83.5t90 57.5t126 21.5q51 0 95.5 -8.5t76.5 -19.5q3 -1 3 -7q-2 -14 -3 -37.5
t-1 -34.5v-316z" />
    <glyph glyph-name="uni02BB" unicode="&#x2bb;" horiz-adv-x="298" 
d="M206 709q7 0 5 -7q-10 -29 -17.5 -52t-12 -44.5t-7 -42.5t-2.5 -45q0 -20 2.5 -39t4.5 -31q0 -7 -6 -7h-100q-10 0 -11 8q-4 14 -6 31t-2 40q0 42 11 89t37 95q2 5 9 5h95z" />
    <glyph glyph-name="uni02BC" unicode="&#x2bc;" horiz-adv-x="298" 
d="M55 441q-8 0 -4 7q10 29 17 52.5t11.5 45t7 42.5t2.5 45q0 19 -2 38t-4 31q0 7 5 7h101q8 0 11 -8q8 -27 8 -70q0 -42 -11 -89.5t-37 -95.5l-3.5 -3.5t-5.5 -1.5h-96z" />
    <glyph glyph-name="uni02BE" unicode="&#x2be;" horiz-adv-x="399" 
d="M139 740q57 2 89 -26.5t32 -72.5q0 -45 -32 -74t-89 -26v61q23 -2 36.5 9t13.5 30t-13 29.5t-37 9.5v60z" />
    <glyph glyph-name="uni02BF" unicode="&#x2bf;" horiz-adv-x="399" 
d="M260 541q-57 -3 -89 26t-32 73q0 45 32 73.5t89 25.5v-61q-24 2 -37 -9t-13 -29q0 -19 12.5 -30t37.5 -10v-59z" />
    <glyph glyph-name="circumflex" unicode="&#x2c6;" 
d="M190 643l-60 -85q-3 -3 -9 -3h-86q-5 0 -6 2.5t2 5.5l102 142q4 5 9 5h101q6 0 9 -5l106 -143q2 -2 0.5 -4.5t-4.5 -2.5h-95q-7 0 -11 4z" />
    <glyph glyph-name="caron" unicode="&#x2c7;" 
d="M198 622l60 84q3 4 9 4h86q5 0 6 -3t-2 -6l-102 -141q-4 -5 -9 -5h-101q-6 0 -9 4l-106 143q-4 8 4 8h95q7 0 11 -4z" />
    <glyph glyph-name="uni02C8" unicode="&#x2c8;" horiz-adv-x="399" 
d="M135 720q0 8 7 8h115q8 0 7 -6l-13 -165q-1 -7 -8 -7h-91q-8 0 -8 8z" />
    <glyph glyph-name="uni02C9" unicode="&#x2c9;" 
d="M340 675q7 0 7 -8v-82q0 -7 -8 -7h-289q-7 0 -7 8v81q0 8 8 8h289z" />
    <glyph glyph-name="uni02CA" unicode="&#x2ca;" 
d="M223 703q4 10 12 10h134q12 0 5 -10l-123 -142q-8 -6 -14 -6h-107q-4 0 -5 2.5t1 4.5z" />
    <glyph glyph-name="uni02CB" unicode="&#x2cb;" 
d="M278 563q6 -8 -5 -8h-109q-6 0 -10 6l-127 141q-5 10 4 10h136q7 0 11 -6z" />
    <glyph glyph-name="uni02CC" unicode="&#x2cc;" horiz-adv-x="399" 
d="M135 -59q0 8 7 8h115q8 0 7 -5l-13 -166q-1 -7 -8 -7h-91q-8 0 -8 8z" />
    <glyph glyph-name="breve" unicode="&#x2d8;" 
d="M120 698q5 0 6 -4q9 -23 25 -35t42 -12t44 11t26 35q1 5 5 5h95q4 0 4 -6q-14 -67 -58 -104.5t-116 -37.5q-68 0 -113.5 34.5t-58.5 107.5q-1 6 6 6h93z" />
    <glyph glyph-name="dotaccent" unicode="&#x2d9;" 
d="M195 550q-35 0 -56.5 21.5t-21.5 56.5q0 34 22.5 55.5t56.5 21.5q36 0 56.5 -21.5t20.5 -55.5q0 -35 -21.5 -56.5t-56.5 -21.5z" />
    <glyph glyph-name="ring" unicode="&#x2da;" 
d="M82 642q0 42 30 70t81 28q52 0 83 -27.5t31 -70.5q0 -46 -31.5 -73.5t-82.5 -27.5t-81 26.5t-30 74.5zM152 642q0 -19 12 -30t29 -11q18 0 30.5 11t12.5 30q0 17 -12.5 28t-30.5 11q-17 0 -29 -11t-12 -28z" />
    <glyph glyph-name="ogonek" unicode="&#x2db;" 
d="M69 -116q0 41 34 78t94 68h102q-63 -32 -85 -58t-22 -49q0 -19 14.5 -31t40.5 -12q14 0 25.5 2t21.5 5q8 1 8 -8v-71q0 -11 -7 -15q-13 -7 -36 -11.5t-52 -4.5q-24 0 -48.5 5.5t-44.5 18t-32.5 33t-12.5 50.5z" />
    <glyph glyph-name="tilde" unicode="&#x2dc;" 
d="M23 554q-8 0 -8 7q0 37 8.5 63.5t23 43.5t34 25.5t41.5 8.5q24 0 44 -7.5t37 -16.5t30.5 -16.5t24.5 -7.5q15 0 21 11.5t7 28.5q0 7 7 7h74q8 0 8 -6q0 -39 -7.5 -66.5t-21.5 -44.5t-33 -24.5t-41 -7.5t-40.5 7.5t-35 16t-31.5 16t-30 7.5q-11 0 -20 -9t-11 -31
q0 -1 -1 -3t-4 -2h-76z" />
    <glyph glyph-name="hungarumlaut" unicode="&#x2dd;" 
d="M114 703q3 5 6 7t11 2h100q5 0 6.5 -4t-1.5 -7l-87 -138q-3 -5 -5 -7t-11 -2h-81q-7 0 -7.5 5t1.5 10zM308 704q3 5 5.5 7t8.5 2h102q6 0 7.5 -4.5t-0.5 -7.5l-89 -138q-3 -4 -6.5 -6t-12.5 -2h-77q-8 0 -9 4.5t1 9.5z" />
    <glyph glyph-name="gravecomb" unicode="&#x300;" horiz-adv-x="0" 
d="M118 563q6 -8 -5 -8h-109q-6 0 -10 6l-127 141q-5 10 4 10h136q7 0 12 -6z" />
    <glyph glyph-name="acutecomb" unicode="&#x301;" horiz-adv-x="0" 
d="M-17 703q4 10 12 10h133q12 0 5 -10l-123 -142q-6 -6 -14 -6h-107q-4 0 -5 2.5t1 4.5z" />
    <glyph glyph-name="uni0302" unicode="&#x302;" horiz-adv-x="0" 
d="M-4 643l-59 -85q-3 -3 -9 -3h-87q-4 0 -5 2.5t2 5.5l102 142q2 5 9 5h100q7 0 10 -5l105 -143q2 -2 1 -4.5t-5 -2.5h-95q-6 0 -10 4z" />
    <glyph glyph-name="tildecomb" unicode="&#x303;" horiz-adv-x="0" 
d="M-172 554q-7 0 -7 7q0 37 8.5 63.5t23 43.5t34 25.5t41.5 8.5q24 0 44 -7.5t37 -16.5t30.5 -16.5t24.5 -7.5q14 0 20.5 11.5t7.5 28.5q0 7 7 7h74q8 0 8 -6q0 -39 -8 -66.5t-22 -44.5t-32.5 -24.5t-40.5 -7.5t-40.5 7.5t-35.5 16l-32 16t-29 7.5q-12 0 -20.5 -9
t-10.5 -31q0 -1 -1.5 -3t-3.5 -2h-77z" />
    <glyph glyph-name="uni0304" unicode="&#x304;" horiz-adv-x="0" 
d="M146 675q7 0 7 -8v-82q0 -7 -8 -7h-289q-7 0 -7 8v81q0 8 8 8h289z" />
    <glyph glyph-name="uni0306" unicode="&#x306;" horiz-adv-x="0" 
d="M-74 698q6 0 7 -4q17 -47 66 -47q26 0 44 11t26 35q1 5 5 5h95q6 0 4 -6q-14 -67 -58 -104.5t-116 -37.5q-67 0 -113 34.5t-59 107.5q0 6 6 6h93z" />
    <glyph glyph-name="uni0307" unicode="&#x307;" horiz-adv-x="0" 
d="M0 550q-35 0 -56 21.5t-21 56.5q0 34 22 55.5t56 21.5q36 0 56.5 -21.5t20.5 -55.5q0 -35 -21.5 -56.5t-56.5 -21.5z" />
    <glyph glyph-name="uni0308" unicode="&#x308;" horiz-adv-x="0" 
d="M-100 559q-30 0 -49 18.5t-19 50.5q0 31 20 50.5t50 19.5q29 0 47.5 -19.5t18.5 -51.5t-19.5 -50t-48.5 -18zM100 559q-29 0 -48.5 18.5t-19.5 50.5q0 31 20.5 50.5t49.5 19.5q30 0 48 -19.5t18 -51.5q0 -31 -19 -49.5t-49 -18.5z" />
    <glyph glyph-name="hookabovecomb" unicode="&#x309;" horiz-adv-x="0" 
d="M-104 720q0 6 5 9q16 8 38 13t52 5q53 0 82.5 -24.5t29.5 -66.5q0 -26 -12.5 -46t-32 -35.5t-44 -25.5t-48.5 -16q-3 0 -5 0.5t-2 5.5v62q0 5 5 7q14 8 24 16.5t10 19.5q0 9 -7 15.5t-23 6.5q-20 0 -34 -4t-30 -12q-2 -1 -5 0t-3 5v65z" />
    <glyph glyph-name="uni030A" unicode="&#x30a;" horiz-adv-x="0" 
d="M-112 642q0 42 30 70t82 28q51 0 82 -27.5t31 -70.5q0 -46 -31 -73.5t-82 -27.5q-52 0 -82 26.5t-30 74.5zM-42 642q0 -19 12.5 -30t29.5 -11t29.5 11t12.5 30q0 17 -12.5 28t-29.5 11q-18 0 -30 -11t-12 -28z" />
    <glyph glyph-name="uni030B" unicode="&#x30b;" horiz-adv-x="0" 
d="M-122 703q3 5 6 7t11 2h100q5 0 6 -4t-1 -7l-87 -138q-3 -5 -5 -7t-11 -2h-81q-7 0 -7.5 5t1.5 10zM72 704q3 5 5.5 7t8.5 2h101q7 0 8.5 -4.5t-0.5 -7.5l-89 -138q-3 -4 -6.5 -6t-12.5 -2h-77q-8 0 -9 4.5t1 9.5z" />
    <glyph glyph-name="uni030C" unicode="&#x30c;" horiz-adv-x="0" 
d="M4 622l59 84q3 4 9 4h87q5 0 6 -3t-2 -6l-102 -141q-4 -5 -9 -5h-101q-6 0 -9 4l-106 143q-4 8 4 8h95q7 0 11 -4z" />
    <glyph glyph-name="uni031B" unicode="&#x31b;" horiz-adv-x="0" 
d="M341 603q8 0 11 -9q6 -20 6 -46q0 -42 -22.5 -73t-68.5 -44h-124q-5 0 -10 2t-5 6v49q0 9 9 9h41q38 0 47 14.5t9 37.5q0 8 -0.5 21.5t-1.5 24.5q-2 8 6 8h103z" />
    <glyph glyph-name="dotbelowcomb" unicode="&#x323;" horiz-adv-x="0" 
d="M-1 -201q-34 0 -55 20.5t-21 54.5q0 33 22 54t56 21q35 0 55 -21t20 -54q0 -34 -21 -54.5t-56 -20.5z" />
    <glyph glyph-name="uni0324" unicode="&#x324;" horiz-adv-x="0" 
d="M-100 -206q-30 0 -49 18.5t-19 50.5q0 31 20 50.5t50 19.5q29 0 47.5 -19.5t18.5 -50.5q0 -32 -19.5 -50.5t-48.5 -18.5zM100 -206q-29 0 -48 18.5t-19 50.5q0 31 20 50.5t49 19.5q30 0 48 -19.5t18 -50.5q0 -32 -19 -50.5t-49 -18.5z" />
    <glyph glyph-name="uni0326" unicode="&#x326;" horiz-adv-x="0" 
d="M-79 -225q-4 0 -5 3t1 5q22 32 29.5 57.5t7.5 49.5q0 14 -4 30t-12 35q-3 6 4 6h114q8 0 11 -6q7 -10 12 -26t5 -33q0 -37 -11.5 -64.5t-34.5 -53.5q-3 -3 -12 -3h-105z" />
    <glyph glyph-name="uni0327" unicode="&#x327;" horiz-adv-x="0" 
d="M52 7l-34 -45q42 -12 64 -34.5t22 -62.5q0 -21 -9.5 -39t-26 -31.5t-40 -21t-51.5 -7.5q-20 0 -42 3.5t-33 9.5q-6 4 -6 12v53q0 7 8 6q14 -6 32 -9.5t32 -3.5q17 0 28.5 6t11.5 20q0 15 -22.5 26.5t-71.5 17.5q-2 3 -2.5 14.5t2.5 14.5l57 71h81z" />
    <glyph glyph-name="uni0328" unicode="&#x328;" horiz-adv-x="0" 
d="M-118 -116q0 41 34.5 78t94.5 68h102q-32 -16 -53 -30.5t-33 -27.5t-17 -25.5t-5 -23.5q0 -19 14.5 -31t41.5 -12q14 0 25 2t21 5q8 1 8 -8v-71q0 -12 -7 -15q-13 -7 -36 -11.5t-52 -4.5q-24 0 -48.5 5.5t-44.5 18t-32.5 33t-12.5 50.5z" />
    <glyph glyph-name="uni032E" unicode="&#x32e;" horiz-adv-x="0" 
d="M-75 -71q5 0 8 -7q8 -20 25 -32.5t41 -12.5q23 0 41 11t27 35q4 6 8 6h95q6 0 6.5 -3t0.5 -5q-4 -35 -20 -62.5t-40.5 -46t-54.5 -28.5t-63 -10t-63.5 8.5t-54.5 26.5t-39.5 46t-18.5 67q0 7 7 7h95z" />
    <glyph glyph-name="uni0331" unicode="&#x331;" horiz-adv-x="0" 
d="M130 -75q7 0 7 -7v-82q0 -8 -7 -8h-260q-8 0 -8 8v82q0 7 8 7h260z" />
    <glyph glyph-name="uni037E" unicode="&#x37e;" horiz-adv-x="298" 
d="M149 300q-36 0 -59.5 22.5t-23.5 61.5q0 38 23.5 61t59.5 23q38 0 60.5 -24t22.5 -60q0 -38 -21.5 -61t-61.5 -23zM33 -128q-5 0 -6.5 3t0.5 6q40 76 51 142t7 134q0 6 5 6h114q7 0 8 -8q5 -74 -11 -146.5t-58 -130.5q-1 -2 -4.5 -4t-8.5 -2h-97z" />
    <glyph glyph-name="tonos" unicode="&#x384;" 
d="M223 712q5 10 12 10h134q11 0 5 -11l-123 -141q-5 -7 -14 -7h-107q-8 0 -4 8z" />
    <glyph glyph-name="dieresistonos" unicode="&#x385;" 
d="M173 732q1 6 6 6h105q7 0 5 -7l-74 -179q-3 -6 -9 -6h-82q-6 0 -4 8zM41 571q-26 0 -42.5 16t-16.5 44t17 45t43 17q28 0 44 -17.5t16 -44.5q0 -28 -17 -44t-44 -16zM353 571q-26 0 -42.5 16t-16.5 44t17 45t43 17t42.5 -17t16.5 -45t-16.5 -44t-43.5 -16z" />
    <glyph glyph-name="Alphatonos" unicode="&#x386;" horiz-adv-x="738" 
d="M259 156l-48 -148q-3 -8 -11 -8h-116q-10 0 -8 10l200 577q3 8 5.5 20t4.5 41q0 7 6 7h160q7 0 8 -6l227 -640q4 -9 -5 -9h-130q-8 0 -11 7l-51 149h-231zM453 281q-8 25 -18.5 58.5t-21.5 69t-21.5 69.5t-17.5 61h-1q-6 -25 -15.5 -57t-20 -66.5t-21.5 -69.5t-21 -65
h158zM48 650q1 6 8 6h119q7 0 6 -8l-67 -209q-2 -5 -3.5 -5.5t-5.5 -0.5h-102q-8 0 -7 7z" />
    <glyph glyph-name="anoteleia" unicode="&#x387;" horiz-adv-x="243" 
d="M121 309q-36 0 -59 21.5t-23 58.5q0 36 23 58.5t59 22.5q37 0 60 -23t23 -58t-21.5 -57.5t-61.5 -22.5z" />
    <glyph glyph-name="Epsilontonos" unicode="&#x388;" horiz-adv-x="728" 
d="M675 9q-1 -6 -3 -7.5t-7 -1.5h-407q-8 0 -8 9v637q0 9 8 9h395q10 0 11 -8l11 -108q2 -9 -7 -9h-279v-134h255q8 0 8 -8v-110q0 -7 -8 -7h-255v-146h295q6 0 7.5 -2t0.5 -7zM54 649q1 6 8 6h119q7 0 6 -8l-67 -209q-2 -5 -3.5 -5.5t-5.5 -0.5h-102q-8 0 -7 7z" />
    <glyph glyph-name="Etatonos" unicode="&#x389;" horiz-adv-x="866" 
d="M650 0q-8 0 -8 9v268h-253v-268q0 -9 -10 -9h-119q-10 0 -10 9v636q0 10 9 10h120q10 0 10 -9v-244h253v245q0 8 7 8h125q6 0 6 -8v-638q0 -9 -8 -9h-122zM52 649q1 6 8 6h119q7 0 6 -8l-67 -209q-2 -5 -3.5 -5.5t-5.5 -0.5h-102q-8 0 -7 7z" />
    <glyph glyph-name="Iotatonos" unicode="&#x38a;" horiz-adv-x="458" 
d="M382 9q0 -9 -9 -9h-122q-8 0 -8 9v637q0 6 2 7.5t6 1.5h122q9 0 9 -9v-637zM40 649q1 6 8 6h119q7 0 6 -8l-67 -209q-2 -5 -3.5 -5.5t-5.5 -0.5h-102q-8 0 -7 7z" />
    <glyph glyph-name="Omicrontonos" unicode="&#x38c;" horiz-adv-x="865" 
d="M486 665q75 0 132.5 -26.5t97.5 -72t61 -106t21 -129.5q0 -77 -22.5 -139.5t-64 -107.5t-99.5 -69.5t-128 -24.5q-74 0 -131.5 25.5t-98 70.5t-61.5 107t-21 135q0 70 22.5 131.5t63.5 107t99 72t129 26.5zM315 327q0 -45 11.5 -84.5t33.5 -68t54.5 -45t74.5 -16.5
q39 0 70 15.5t52 43.5t32.5 67.5t11.5 87.5q-1 100 -45.5 157.5t-125.5 57.5q-75 0 -122 -56t-47 -159zM35 649q1 6 8 6h119q7 0 6 -8l-67 -209q-2 -5 -3.5 -5.5t-5.5 -0.5h-102q-8 0 -7 7z" />
    <glyph glyph-name="Upsilontonos" unicode="&#x38e;" horiz-adv-x="816" 
d="M195 645q-4 5 -1 7.5t7 2.5h140q7 0 10 -6q36 -74 61 -123.5t41 -82.5t25.5 -52t14.5 -31q6 13 15 33t24 53t38 82t57 121q2 6 10 6h134q9 0 5 -9l-214 -388q-5 -8 -7 -15t-2 -17v-217q0 -9 -10 -9h-118q-11 0 -11 9v222q0 11 -1 17t-6 14zM30 649q1 6 8 6h119q7 0 6 -8
l-67 -209q-2 -5 -3.5 -5.5t-5.5 -0.5h-102q-8 0 -7 7z" />
    <glyph glyph-name="Omegatonos" unicode="&#x38f;" horiz-adv-x="871" 
d="M171 0q-8 0 -8 8l-9 109q0 9 9 9h140q-18 16 -36 38.5t-33 52t-24 67.5t-9 85q0 58 20.5 111.5t60 94.5t96.5 65.5t131 24.5q73 0 127.5 -25t90.5 -66.5t54 -94.5t18 -109q0 -45 -9 -82.5t-24 -67.5t-34.5 -53t-40.5 -41h149q8 0 8 -9l-13 -109q0 -8 -9 -8h-282
q-9 0 -9 9v97q0 6 6 11q56 40 86 96t30 141t-38.5 137.5t-118.5 52.5q-39 0 -69 -14.5t-50 -40t-30 -61t-10 -76.5t9.5 -76t25.5 -64.5t37.5 -52.5t45.5 -41q5 -3 5.5 -5t0.5 -6v-97q0 -5 -1 -7.5t-8 -2.5h-285zM44 649q1 6 8 6h119q7 0 6 -8l-67 -209q-2 -5 -3.5 -5.5
t-5.5 -0.5h-102q-8 0 -7 7z" />
    <glyph glyph-name="iotadieresistonos" unicode="&#x390;" horiz-adv-x="276" 
d="M199 141q0 -21 7.5 -29.5t25.5 -8.5h8.5t9.5 1q5 0 5 -7v-86q0 -10 -7 -12q-9 -4 -24 -6.5t-38 -2.5q-27 0 -50 6t-40 22t-26.5 42.5t-9.5 68.5v360q0 8 9 8h124q6 0 6 -6v-350zM126 732q1 6 6 6h105q7 0 5 -7l-74 -179q-3 -6 -9 -6h-82q-6 0 -4 8zM-6 571
q-26 0 -42.5 16t-16.5 44t17 45t43 17q28 0 44 -17.5t16 -44.5q0 -28 -17 -44t-44 -16zM306 571q-26 0 -42.5 16t-16.5 44t17 45t43 17t42.5 -17t16.5 -45t-16.5 -44t-43.5 -16z" />
    <glyph glyph-name="Alpha" unicode="&#x391;" horiz-adv-x="616" 
d="M185 156l-48 -148q-3 -8 -11 -8h-116q-10 0 -8 10l200 577q3 8 5.5 20t4.5 41q0 7 6 7h160q7 0 8 -6l227 -640q4 -9 -5 -9h-130q-8 0 -11 7l-51 149h-231zM379 281q-8 25 -18.5 58.5t-21.5 69t-21.5 69.5t-17.5 61h-1q-6 -25 -15.5 -57t-20 -66.5t-21.5 -69.5t-21 -65
h158z" />
    <glyph glyph-name="Beta" unicode="&#x392;" horiz-adv-x="595" 
d="M72 644q0 9 6 10q13 0 36.5 0.5t52 1t58.5 1t57 0.5q80 0 128.5 -18t75 -44.5t35.5 -57t9 -55.5q0 -26 -6 -46.5t-15 -36t-20 -26.5t-20 -18q14 -7 30 -19t30 -30.5t23.5 -44.5t9.5 -60q0 -46 -19.5 -83.5t-55.5 -64t-87.5 -41t-115.5 -14.5q-73 0 -125 0.5t-80 1.5
q-7 1 -7 9v635zM208 116q16 -1 33 -1.5t40 -0.5q65 -1 101 20t36 65q0 26 -13 46t-48 29q-24 6 -63 6h-86v-164zM208 399h68q26 0 52 -1.5t37 -3.5q14 12 22 27.5t8 40.5q0 78 -114 78q-23 0 -39.5 -0.5t-33.5 -1.5v-139z" />
    <glyph glyph-name="Gamma" unicode="&#x393;" horiz-adv-x="494" 
d="M72 648q0 7 6 7h393q6 0 7 -6l13 -111q1 -8 -7 -8h-273v-521q0 -9 -8 -9h-123q-8 0 -8 9v639v0z" />
    <glyph glyph-name="uni0394" unicode="&#x394;" horiz-adv-x="613" 
d="M24 0q-7 0 -7 7v80q0 9 4 17l182 482q3 11 4.5 24.5t2.5 37.5q0 7 7 7h160q7 0 9 -6l205 -546q4 -7 4 -18v-76q0 -5 -1 -7t-6 -2h-564zM443 125q-17 48 -39.5 110.5t-44 121.5t-38.5 106.5t-22 66.5h-2q-4 -18 -18.5 -61t-35 -99.5t-43 -120.5t-43.5 -124h286z" />
    <glyph glyph-name="Epsilon" unicode="&#x395;" horiz-adv-x="540" 
d="M497 9q-1 -6 -3 -7.5t-7 -1.5h-407q-8 0 -8 9v637q0 9 8 9h395q10 0 11 -8l11 -108q2 -9 -7 -9h-279v-134h255q8 0 8 -8v-110q0 -7 -8 -7h-255v-146h295q6 0 7.5 -2t0.5 -7z" />
    <glyph glyph-name="Zeta" unicode="&#x396;" horiz-adv-x="556" 
d="M25 0q-4 0 -6.5 1.5t-2.5 7.5v77q0 5 0.5 7.5t2.5 5.5l330 432h-319q-9 0 -8 8l16 108q1 8 10 8h470q6 0 6 -7v-83q0 -9 -5 -16l-323 -424h342q8 0 5 -10l-18 -107q-2 -8 -10 -8h-490z" />
    <glyph glyph-name="Eta" unicode="&#x397;" horiz-adv-x="674" 
d="M472 0q-8 0 -8 9v268h-253v-268q0 -9 -10 -9h-119q-10 0 -10 9v636q0 10 9 10h120q10 0 10 -9v-244h253v245q0 8 7 8h125q6 0 6 -8v-638q0 -9 -8 -9h-122z" />
    <glyph glyph-name="Theta" unicode="&#x398;" horiz-adv-x="697" 
d="M460 391q8 0 8 -7v-108q0 -8 -7 -8h-224q-9 0 -9 9v106q0 8 8 8h224zM349 665q75 0 132.5 -26.5t97.5 -72t61 -106t21 -129.5q0 -77 -22.5 -139.5t-64 -107.5t-99.5 -69.5t-128 -24.5q-74 0 -131.5 25.5t-98 70.5t-61.5 107t-21 135q0 70 22.5 131.5t63.5 107t99 72
t129 26.5zM178 327q0 -45 11.5 -84.5t33.5 -68t54.5 -45t74.5 -16.5q39 0 70 15.5t52 43.5t32.5 67.5t11.5 87.5q-1 100 -45.5 157.5t-125.5 57.5q-75 0 -122 -56t-47 -159z" />
    <glyph glyph-name="Iota" unicode="&#x399;" horiz-adv-x="283" 
d="M211 9q0 -9 -9 -9h-122q-8 0 -8 9v637q0 6 2 7.5t6 1.5h122q9 0 9 -9v-637z" />
    <glyph glyph-name="Kappa" unicode="&#x39a;" horiz-adv-x="596" 
d="M617 12q3 -5 1.5 -8.5t-6.5 -3.5h-146q-11 0 -19 8l-236 282v-281q0 -9 -10 -9h-120q-9 0 -9 10v637q0 8 8 8h122q9 0 9 -9v-280l236 282q4 7 13 7h132q8 0 9 -3.5t-2 -7.5l-256 -296q-3 -5 0 -10z" />
    <glyph glyph-name="Lambda" unicode="&#x39b;" horiz-adv-x="616" 
d="M467 7q-27 85 -54 166t-49.5 149.5t-39.5 120.5t-24 79h-1q-6 -27 -21.5 -78t-37.5 -119t-48.5 -149t-54.5 -168q-3 -8 -11 -8h-116q-10 0 -8 10l200 577q3 8 5.5 20t4.5 41q0 7 6 7h160q7 0 8 -6l227 -640q4 -9 -5 -9h-130q-7 0 -11 7z" />
    <glyph glyph-name="Mu" unicode="&#x39c;" horiz-adv-x="832" 
d="M95 649q1 5 3 5.5t6 0.5h184q8 0 11 -7q7 -25 17 -62.5t21.5 -81t23.5 -89.5t23 -89t19.5 -80t13.5 -61h1q5 21 14.5 56.5t22 78.5t26.5 89.5t27 91t24 82.5t19 64q2 8 8 8h180q8 0 8 -7l25 -639q1 -9 -8 -9h-129q-8 0 -8 7q-1 77 -1.5 163.5t-0.5 164t0.5 137t1.5 83.5
h-1q-6 -25 -16 -65.5t-23.5 -90t-28.5 -104t-30 -107t-28 -99.5t-23 -81q-3 -8 -10 -8h-115q-9 0 -11 8q-9 36 -20.5 81.5t-24 95.5l-25.5 102t-24.5 101t-22 92.5t-17.5 76.5h-1q0 -41 -1 -102t-3 -134.5t-4.5 -154t-5.5 -158.5q0 -8 -8 -8h-116q-9 0 -8 8l35 641v0z" />
    <glyph glyph-name="Nu" unicode="&#x39d;" horiz-adv-x="688" 
d="M81 0q-5 0 -7 1.5t-2 7.5v638q0 8 7 8h162q6 0 8 -1.5t5 -6.5q17 -31 38.5 -71.5t45 -85.5t47 -91t43.5 -86.5t36 -73.5t24 -51h1q0 11 -0.5 23t-1 29.5t-1 42.5t-0.5 62v301q0 9 9 9h112q9 0 9 -10v-635q0 -10 -11 -10h-144q-7 0 -9.5 1.5t-4.5 6.5l-35 67.5t-45 86.5
t-49.5 95.5t-48.5 96t-42 86t-29 66.5h-1q1 -22 2 -41.5t2 -41t1 -48v-61.5v-305q0 -9 -8 -9h-113z" />
    <glyph glyph-name="Xi" unicode="&#x39e;" horiz-adv-x="513" 
d="M37 0q-8 0 -9 8l-9 109q-1 8 6 8h462q8 0 7 -9l-14 -109q-1 -5 -3 -6t-7 -1h-433zM464 655q9 0 10 -7l12 -110q1 -8 -8 -8h-444q-7 0 -6 7l11 111q1 7 8 7h417zM442 279q0 -8 -8 -8h-355q-9 0 -9 9v108q0 8 8 8h356q8 0 8 -8v-109z" />
    <glyph glyph-name="Omicron" unicode="&#x39f;" horiz-adv-x="697" 
d="M349 665q75 0 132.5 -26.5t97.5 -72t61 -106t21 -129.5q0 -77 -22.5 -139.5t-64 -107.5t-99.5 -69.5t-128 -24.5q-74 0 -131.5 25.5t-98 70.5t-61.5 107t-21 135q0 70 22.5 131.5t63.5 107t99 72t129 26.5zM178 327q0 -45 11.5 -84.5t33.5 -68t54.5 -45t74.5 -16.5
q39 0 70 15.5t52 43.5t32.5 67.5t11.5 87.5q-1 100 -45.5 157.5t-125.5 57.5q-75 0 -122 -56t-47 -159z" />
    <glyph glyph-name="Pi" unicode="&#x3a0;" horiz-adv-x="674" 
d="M472 0q-8 0 -8 9v521h-253v-521q0 -9 -10 -9h-119q-10 0 -10 9v636q0 10 9 10h515q6 0 6 -8v-638q0 -9 -8 -9h-122z" />
    <glyph glyph-name="Rho" unicode="&#x3a1;" horiz-adv-x="579" 
d="M72 646q0 8 6 8q31 1 85 2t111 1q76 0 128 -19t84 -50.5t46 -71t14 -80.5q0 -61 -22 -104.5t-60 -71.5t-88.5 -41.5t-108.5 -13.5h-57v-197q0 -8 -8 -8h-123q-7 0 -7 8v638zM210 328q13 -1 24 -1h32q30 0 55.5 5t45 17t30.5 32.5t11 51.5q0 48 -32 75.5t-98 27.5
q-24 0 -42.5 -0.5t-25.5 -1.5v-206z" />
    <glyph glyph-name="Sigma" unicode="&#x3a3;" horiz-adv-x="552" 
d="M499 655q8 0 9 -8l12 -109q1 -5 -2 -6.5t-6 -1.5h-306l185 -190q7 -8 0 -15l-200 -199h347q7 0 6 -8l-18 -110q-1 -8 -9 -8h-491q-7 0 -7 8v83q0 7 4 12l217 219l-211 221q-4 5 -4 14v91q0 7 6 7h468v0z" />
    <glyph glyph-name="Tau" unicode="&#x3a4;" horiz-adv-x="551" 
d="M206 530h-197q-8 0 -6 9l14 107q1 9 10 9h500q9 0 11 -9l10 -106q1 -10 -8 -10h-195v-520q0 -10 -9 -10h-120q-10 -1 -10 9v521z" />
    <glyph glyph-name="Upsilon" unicode="&#x3a5;" horiz-adv-x="548" 
d="M-16 645q-4 5 -1 7.5t7 2.5h140q7 0 10 -6q36 -74 61 -123.5t41 -82.5t25.5 -52t14.5 -31q6 13 15 33t24 53t38 82t57 121q2 6 10 6h134q9 0 5 -9l-214 -388q-5 -8 -7 -15t-2 -17v-217q0 -9 -10 -9h-118q-11 0 -11 9v222q0 11 -1 17t-6 14z" />
    <glyph glyph-name="Phi" unicode="&#x3a6;" horiz-adv-x="737" 
d="M425 681q7 0 7 -7v-59q51 -5 100 -24t86.5 -53.5t60.5 -85.5t23 -121q0 -72 -22.5 -123t-60 -85t-86.5 -53t-101 -26v-61q0 -8 -8 -8h-112q-8 0 -8 8v61q-54 6 -102.5 25.5t-85.5 54.5t-59 85t-22 117q0 72 25 124t64 87t86.5 53.5t93.5 24.5v58q0 8 8 8h113zM304 507
q-21 -2 -44.5 -13t-43 -32.5t-32 -54t-12.5 -76.5q0 -43 11.5 -74.5t30.5 -53t42.5 -33t47.5 -14.5v351zM432 156q24 2 48 13t42.5 32.5t30.5 54t12 77.5q0 46 -12 78.5t-31 53t-43 30.5t-47 12v-351z" />
    <glyph glyph-name="Chi" unicode="&#x3a7;" horiz-adv-x="554" 
d="M368 338l198 -327q6 -9 -5 -11h-142q-13 0 -17 9q-33 59 -66 117.5t-67 120.5h-1q-30 -60 -62 -120t-64 -119q-4 -8 -14 -8h-135q-5 0 -5.5 3.5t1.5 6.5l192 318l-188 317q-3 4 -1 7t6 3h141q5 0 8 -1.5t5 -6.5q30 -60 63.5 -118.5t64.5 -118.5h1q29 60 61 118.5
t63 118.5q2 4 4.5 6t9.5 2h129q11 0 4 -11z" />
    <glyph glyph-name="Psi" unicode="&#x3a8;" horiz-adv-x="716" 
d="M291 647q0 7 7 7h119q8 0 8 -7v-323q19 2 38 7.5t34.5 21.5t25.5 45t12 78q1 31 2.5 59t3.5 51t4 39.5t5 22.5q3 7 10 7h114q9 0 7 -9q-3 -18 -5.5 -65.5t-5.5 -120.5q-3 -68 -23.5 -114.5t-53.5 -76.5t-76.5 -45.5t-91.5 -19.5v-196q0 -8 -8 -8h-118q-9 0 -9 9v195
q-51 5 -94.5 21t-76.5 46t-52.5 76t-21.5 111q-2 75 -4.5 121t-5.5 67q-2 9 6 9h114q8 0 12 -6q4 -10 7 -61t5 -122q1 -45 12.5 -72t28 -42t35.5 -20.5t36 -7.5v323z" />
    <glyph glyph-name="uni03A9" unicode="&#x3a9;" horiz-adv-x="713" 
d="M27 0q-8 0 -8 8l-9 109q0 9 9 9h140q-18 16 -36 38.5t-33 52t-24 67.5t-9 85q0 58 20.5 111.5t60 94.5t96.5 65.5t131 24.5q73 0 127.5 -25t90.5 -66.5t54 -94.5t18 -109q0 -45 -9 -82.5t-24 -67.5t-34.5 -53t-40.5 -41h149q8 0 8 -9l-13 -109q0 -8 -9 -8h-282q-9 0 -9 9
v97q0 6 6 11q56 40 86 96t30 141t-38.5 137.5t-118.5 52.5q-39 0 -69 -14.5t-50 -40t-30 -61t-10 -76.5t9.5 -76t25.5 -64.5t37.5 -52.5t45.5 -41q5 -3 5.5 -5t0.5 -6v-97q0 -5 -1 -7.5t-8 -2.5h-285z" />
    <glyph glyph-name="Iotadieresis" unicode="&#x3aa;" horiz-adv-x="283" 
d="M211 9q0 -9 -9 -9h-122q-8 0 -8 9v637q0 6 2 7.5t6 1.5h122q9 0 9 -9v-637zM32 709q-32 0 -52 17.5t-20 47.5q0 29 21 48.5t54 19.5t52.5 -19.5t19.5 -48.5q0 -30 -20.5 -47.5t-54.5 -17.5zM248 709q-32 0 -52 17.5t-20 47.5q0 29 21 48.5t53 19.5t52 -19.5t20 -48.5
q0 -31 -20.5 -48t-53.5 -17z" />
    <glyph glyph-name="Upsilondieresis" unicode="&#x3ab;" horiz-adv-x="548" 
d="M-16 645q-4 5 -1 7.5t7 2.5h140q7 0 10 -6q36 -74 61 -123.5t41 -82.5t25.5 -52t14.5 -31q6 13 15 33t24 53t38 82t57 121q2 6 10 6h134q9 0 5 -9l-214 -388q-5 -8 -7 -15t-2 -17v-217q0 -9 -10 -9h-118q-11 0 -11 9v222q0 11 -1 17t-6 14zM165 713q-32 0 -52 17.5
t-20 47.5q0 29 21 48.5t54 19.5t52.5 -19.5t19.5 -48.5q0 -30 -20.5 -47.5t-54.5 -17.5zM381 713q-32 0 -52 17.5t-20 47.5q0 29 21 48.5t53 19.5t52 -19.5t20 -48.5q0 -31 -20.5 -48t-53.5 -17z" />
    <glyph glyph-name="alphatonos" unicode="&#x3ac;" horiz-adv-x="562" 
d="M221 -10q-39 0 -74 17t-61 49.5t-41 79.5t-15 106q0 56 15 104.5t42.5 84t66 56t85.5 20.5q57 0 92.5 -22.5t49.5 -63.5q1 10 3.5 22t5 22.5t5.5 18.5t5 11q2 2 6 2h107q4 0 6 -1t0 -7q-6 -20 -12 -52.5t-11 -71.5t-8 -81t-3 -82v-24q0 -43 12.5 -55t30.5 -12q5 0 8 0.5
t8 1.5q2 0 4 -1t2 -6v-97q0 -7 -6 -10q-14 -5 -31.5 -7t-34.5 -2q-46 0 -72.5 23.5t-30.5 60.5l-1 4q-23 -41 -59 -64.5t-94 -23.5zM172 249q0 -34 7.5 -58.5t20 -40t28.5 -23t33 -7.5q25 0 43 11.5t29.5 31t16.5 45t5 52.5q0 62 -23.5 95t-65.5 33q-45 0 -69.5 -38
t-24.5 -101zM304 712q5 10 12 10h134q11 0 5 -11l-123 -141q-5 -7 -14 -7h-107q-8 0 -4 8z" />
    <glyph glyph-name="epsilontonos" unicode="&#x3ad;" horiz-adv-x="429" 
d="M119 250q-41 16 -58.5 45.5t-17.5 66.5q0 26 11.5 52t37 46.5t66 33.5t98.5 13q88 0 136 -24q6 -4 6 -12v-95q0 -10 -9 -6q-47 22 -121 22q-24 0 -39.5 -4t-25 -10t-13.5 -13.5t-4 -14.5q0 -14 14 -26.5t54 -12.5h68q6 0 6 -9v-96q0 -9 -6 -9h-68q-38 0 -54 -11.5
t-16 -29.5q0 -20 21 -34.5t73 -14.5q32 0 60.5 3.5t57.5 15.5q10 4 10 -5v-92q0 -11 -8 -14q-28 -14 -69 -19.5t-81 -5.5q-43 0 -82.5 8.5t-70 26.5t-48.5 46.5t-18 68.5q0 22 7.5 40t20 32t29 23.5t33.5 14.5zM243 706q5 10 12 10h134q11 0 5 -11l-123 -141q-5 -7 -14 -7
h-107q-8 0 -4 8z" />
    <glyph glyph-name="etatonos" unicode="&#x3ae;" horiz-adv-x="560" 
d="M60 380q0 27 -2 59t-6 50q0 5 0.5 6.5t5.5 1.5h108q5 0 8 -1t5 -6q5 -9 8 -30l5 -35q29 43 68 62.5t87 19.5q31 0 59 -10.5t49 -34.5t33 -63t12 -96v-490q0 -8 -6 -9q-12 -2 -31.5 -4t-39.5 -4.5t-35.5 -4t-18.5 -1.5q-8 0 -8 7v498q0 44 -16 68.5t-51 24.5
q-22 0 -39.5 -11t-30 -30t-19 -45t-6.5 -56v-236q0 -10 -9 -10h-122q-8 0 -8 8v372zM292 712q5 10 12 10h134q11 0 5 -11l-123 -141q-5 -7 -14 -7h-107q-8 0 -4 8z" />
    <glyph glyph-name="iotatonos" unicode="&#x3af;" horiz-adv-x="276" 
d="M199 141q0 -21 7.5 -29.5t25.5 -8.5h8.5t9.5 1q5 0 5 -7v-86q0 -10 -7 -12q-9 -4 -24 -6.5t-38 -2.5q-27 0 -50 6t-40 22t-26.5 42.5t-9.5 68.5v360q0 8 9 8h124q6 0 6 -6v-350zM151 702q5 10 12 10h134q11 0 5 -11l-123 -141q-5 -7 -14 -7h-107q-8 0 -4 8z" />
    <glyph glyph-name="upsilondieresistonos" unicode="&#x3b0;" horiz-adv-x="541" 
d="M451 497q7 0 11 -7q8 -16 14.5 -39.5t11.5 -51t8 -57.5t3 -60q0 -57 -11.5 -110t-39.5 -93.5t-73.5 -65t-114.5 -24.5q-45 0 -82.5 12t-64.5 36t-42 60t-15 84v158q0 45 -2.5 85.5t-7.5 64.5q-2 8 7 8h120q8 0 11 -7q2 -4 4 -15t3.5 -25.5t2 -30.5t0.5 -31v-204
q0 -42 21.5 -60.5t52.5 -18.5q49 0 70 40.5t21 133.5q0 32 -3 63.5t-8 59.5t-10.5 50.5t-10.5 36.5q-3 8 7 8h117zM246 732q1 6 6 6h105q7 0 5 -7l-74 -179q-3 -6 -9 -6h-82q-6 0 -4 8zM114 571q-26 0 -42.5 16t-16.5 44t17 45t43 17q28 0 44 -17.5t16 -44.5q0 -28 -17 -44
t-44 -16zM426 571q-26 0 -42.5 16t-16.5 44t17 45t43 17t42.5 -17t16.5 -45t-16.5 -44t-43.5 -16z" />
    <glyph glyph-name="alpha" unicode="&#x3b1;" horiz-adv-x="562" 
d="M221 -10q-39 0 -74 17t-61 49.5t-41 79.5t-15 106q0 56 15 104.5t42.5 84t66 56t85.5 20.5q57 0 92.5 -22.5t49.5 -63.5q1 10 3.5 22t5 22.5t5.5 18.5t5 11q2 2 6 2h107q4 0 6 -1t0 -7q-6 -20 -12 -52.5t-11 -71.5t-8 -81t-3 -82v-24q0 -43 12.5 -55t30.5 -12q5 0 8 0.5
t8 1.5q2 0 4 -1t2 -6v-97q0 -7 -6 -10q-14 -5 -31.5 -7t-34.5 -2q-46 0 -72.5 23.5t-30.5 60.5l-1 4q-23 -41 -59 -64.5t-94 -23.5zM172 249q0 -34 7.5 -58.5t20 -40t28.5 -23t33 -7.5q25 0 43 11.5t29.5 31t16.5 45t5 52.5q0 62 -23.5 95t-65.5 33q-45 0 -69.5 -38
t-24.5 -101z" />
    <glyph glyph-name="beta" unicode="&#x3b2;" horiz-adv-x="558" 
d="M199 132q16 -13 37.5 -20t51.5 -7q47 0 73 26t26 74q0 32 -9 52.5t-25 32.5t-36.5 16.5t-44.5 4.5h-19q-7 0 -7 8v104q0 8 7 8h19q41 0 63.5 18t22.5 65q0 42 -19.5 65.5t-57.5 23.5q-43 0 -62.5 -26.5t-19.5 -86.5v-358zM60 473q0 121 56.5 183.5t166.5 62.5
q101 0 153 -52.5t52 -137.5q0 -28 -7 -51t-18.5 -41t-26.5 -31.5t-31 -21.5q18 -7 39.5 -20.5t39.5 -35t30.5 -52.5t12.5 -72q0 -51 -18 -91t-48.5 -67.5t-72 -41.5t-88.5 -14q-33 0 -57.5 5t-43.5 14v-191q0 -7 -7 -8q-15 -2 -35 -3.5t-39 -3t-33.5 -2.5t-17.5 -1
q-7 0 -7 7v666z" />
    <glyph glyph-name="gamma" unicode="&#x3b3;" horiz-adv-x="488" 
d="M286 -191q-14 -2 -33.5 -3.5t-37.5 -3t-32 -2.5t-17 -1q-7 0 -7 8q2 19 5 46.5t6 56t5 55t2 44.5q1 38 -16 97.5t-45 126t-63 134t-71 121.5q-6 9 3 9h147q8 0 11 -5q12 -21 27.5 -54.5t30.5 -73.5t29 -83t24 -83h1q7 28 20.5 68.5t28.5 83t30.5 80.5t26.5 62q2 5 9 5
h126q9 0 5 -8q-24 -48 -54 -111.5t-58 -127.5t-49.5 -121.5t-29.5 -94.5q-3 -11 -4 -26q-2 -19 -3.5 -44.5t-3 -52t-2.5 -51.5t-2 -42q-1 -5 -2.5 -6t-6.5 -3z" />
    <glyph glyph-name="delta" unicode="&#x3b4;" horiz-adv-x="532" 
d="M270 105q45 0 69.5 32t24.5 80q0 37 -20 70.5t-79 68.5q-18 -4 -35 -14t-30.5 -26t-22 -39t-8.5 -52q0 -58 29.5 -89t71.5 -31zM466 553q0 -8 -6 -5q-45 29 -93 39.5t-85 10.5q-44 0 -59 -8.5t-15 -19.5q0 -5 3 -11t13 -15t28 -21t47 -29q61 -36 100.5 -68t62 -63.5
t31.5 -65t9 -72.5q0 -53 -17.5 -96t-48.5 -74t-74 -48t-94 -17q-58 0 -102.5 18.5t-74.5 50.5t-45.5 74.5t-15.5 91.5q0 71 35.5 122t98.5 76q-43 33 -65 69t-22 81q0 27 11.5 53t37 46.5t64.5 33.5t95 13q60 0 107 -10.5t71 -28.5q3 -3 3 -10v-117z" />
    <glyph glyph-name="epsilon" unicode="&#x3b5;" horiz-adv-x="429" 
d="M119 250q-41 16 -58.5 45.5t-17.5 66.5q0 26 11.5 52t37 46.5t66 33.5t98.5 13q88 0 136 -24q6 -4 6 -12v-95q0 -10 -9 -6q-47 22 -121 22q-24 0 -39.5 -4t-25 -10t-13.5 -13.5t-4 -14.5q0 -14 14 -26.5t54 -12.5h68q6 0 6 -9v-96q0 -9 -6 -9h-68q-38 0 -54 -11.5
t-16 -29.5q0 -20 21 -34.5t73 -14.5q32 0 60.5 3.5t57.5 15.5q10 4 10 -5v-92q0 -11 -8 -14q-28 -14 -69 -19.5t-81 -5.5q-43 0 -82.5 8.5t-70 26.5t-48.5 46.5t-18 68.5q0 22 7.5 40t20 32t29 23.5t33.5 14.5z" />
    <glyph glyph-name="zeta" unicode="&#x3b6;" horiz-adv-x="408" 
d="M36 207q0 100 56.5 196t153.5 184h-73q-67 0 -88 3q-4 1 -6 2t-2 6l14 107q0 7 7 7q7 -1 15 -1.5t20.5 -1t31 -0.5h45.5h203q8 0 8 -7v-91q0 -2 -1 -5t-4 -5q-11 -7 -21.5 -14.5t-24.5 -19.5q-97 -91 -146 -174.5t-49 -158.5q0 -29 6.5 -48.5t20 -33t34 -22.5t49.5 -17
q32 -9 57.5 -20t43.5 -28.5t27.5 -42.5t9.5 -62q0 -27 -9.5 -56.5t-30.5 -56t-56 -47t-86 -28.5q-8 -2 -8 7v109q0 5 1 5.5t6 2.5q23 6 38 19.5t15 29.5q0 17 -14.5 27t-51.5 18q-51 12 -87 28t-59 40.5t-34 60.5t-11 88z" />
    <glyph glyph-name="eta" unicode="&#x3b7;" horiz-adv-x="560" 
d="M60 380q0 27 -2 59t-6 50q0 5 0.5 6.5t5.5 1.5h108q5 0 8 -1t5 -6q5 -9 8 -30l5 -35q29 43 68 62.5t87 19.5q31 0 59 -10.5t49 -34.5t33 -63t12 -96v-490q0 -8 -6 -9q-12 -2 -31.5 -4t-39.5 -4.5t-35.5 -4t-18.5 -1.5q-8 0 -8 7v498q0 44 -16 68.5t-51 24.5
q-22 0 -39.5 -11t-30 -30t-19 -45t-6.5 -56v-236q0 -10 -9 -10h-122q-8 0 -8 8v372z" />
    <glyph glyph-name="theta" unicode="&#x3b8;" horiz-adv-x="550" 
d="M276 -10q-117 0 -180 93t-63 276q0 79 16.5 145t48 114t77.5 74.5t106 26.5t105 -26t74 -73.5t43.5 -113.5t14.5 -147q0 -85 -15 -153.5t-45 -116.5t-75.5 -73.5t-106.5 -25.5zM379 421q-1 40 -7 73.5t-18.5 57.5t-31.5 37.5t-46 13.5t-46.5 -15t-32.5 -40.5t-19 -58.5
t-7 -68h208zM172 299q2 -89 29.5 -141t75.5 -52q53 0 77.5 53t27.5 140h-210z" />
    <glyph glyph-name="iota" unicode="&#x3b9;" horiz-adv-x="276" 
d="M199 141q0 -21 7.5 -29.5t25.5 -8.5h8.5t9.5 1q5 0 5 -7v-86q0 -10 -7 -12q-9 -4 -24 -6.5t-38 -2.5q-27 0 -50 6t-40 22t-26.5 42.5t-9.5 68.5v360q0 8 9 8h124q6 0 6 -6v-350z" />
    <glyph glyph-name="kappa" unicode="&#x3ba;" horiz-adv-x="515" 
d="M512 497q5 0 7 -3t-2 -7q-8 -9 -22.5 -25.5t-32.5 -36.5t-38 -42t-39 -42.5t-34.5 -37.5t-25.5 -27q-2 -2 0 -4q21 -27 48 -61t55.5 -69.5t56.5 -70t51 -62.5q2 -2 0.5 -5.5t-6.5 -3.5h-158q-5 0 -7.5 2t-5.5 5q-11 14 -31 40.5t-42.5 56.5t-45.5 61t-41 54v-209
q0 -10 -9 -10h-121q-10 0 -10 10v479q0 8 10 8h121q9 0 9 -8v-199q20 23 46 53.5t50.5 60t45 53t28.5 33.5q6 7 13 7h130z" />
    <glyph glyph-name="lambda" unicode="&#x3bb;" horiz-adv-x="507" 
d="M249 340h-2q-5 -24 -17.5 -66.5t-27.5 -91t-30 -95.5t-27 -80q-3 -7 -9 -7h-128q-10 0 -6 9l174 462q6 14 4 23l-7 19q-29 78 -118 78q-12 0 -17 -0.5t-11 -1.5q-7 0 -7 5v111q0 8 7 9q11 3 22 4t22 1q35 0 68.5 -7.5t64 -30t59.5 -64.5t55 -110q21 -55 45 -120
t49 -131.5t48.5 -130.5t43.5 -117q3 -8 -7 -8h-135q-7 0 -9 6z" />
    <glyph glyph-name="uni03BC" unicode="&#x3bc;" horiz-adv-x="571" 
d="M482 -10q-37 0 -66 15.5t-40 58.5q0 2 -0.5 5t-0.5 4q-19 -45 -51.5 -64t-67.5 -19q-19 0 -37.5 5.5t-29.5 19.5q3 -29 4 -78.5t0 -116.5q0 -9 -8 -10q-14 -2 -32.5 -3.5t-36.5 -3t-31.5 -2.5t-15.5 -1q-9 0 -9 9v680q0 8 9 8h123q7 0 7 -7v-303q0 -36 15 -57t47 -21
q18 0 35 8t30 26.5t20.5 49t7.5 75.5v223q0 6 6 6h127q6 0 6 -7v-341q0 -26 8 -36t26 -10h8.5t8.5 1q5 0 5 -7v-86q0 -10 -6 -12q-9 -4 -23.5 -6.5t-37.5 -2.5z" />
    <glyph glyph-name="nu" unicode="&#x3bd;" horiz-adv-x="482" 
d="M135 497q5 0 7 -0.5t5 -5.5q11 -20 25.5 -62t28.5 -92.5t26.5 -102.5t19.5 -93h2q31 57 53.5 131.5t22.5 152.5q0 11 -1 30.5t-3 33.5q0 8 8 8h110q8 0 9 -7q2 -8 4 -24.5t2 -36.5q0 -54 -14.5 -112t-37.5 -113.5t-53 -106t-61 -89.5q-5 -8 -14 -8h-103q-10 0 -12 8
q-9 45 -27 110t-41.5 134t-50.5 132.5t-52 104.5q-5 8 6 8h141z" />
    <glyph glyph-name="xi" unicode="&#x3be;" horiz-adv-x="435" 
d="M296 719q48 0 75 -5t44 -13q5 -3 5 -10v-103q0 -3 -1.5 -5.5t-5.5 -0.5q-21 12 -48 16t-59 4q-58 0 -83 -26t-25 -62q0 -41 30 -61.5t82 -20.5h62q6 0 7.5 -2t1.5 -7v-102q0 -10 -9 -10l-66 -2q-36 0 -61 -7.5t-40 -20t-22 -29.5t-7 -35q0 -20 5 -35t19 -27.5t38 -22.5
t63 -18q45 -10 73.5 -24.5t45 -34t23 -44t6.5 -53.5t-9 -58t-30 -53t-56 -42.5t-86 -26.5q-8 -2 -8 8v98q0 9 7 10q25 8 39 18t14 27q0 7 -2.5 14.5t-9.5 13.5t-20.5 11.5t-35.5 9.5q-58 11 -99.5 28t-67.5 41.5t-38.5 58t-12.5 77.5q0 35 10.5 64t28.5 51t41.5 38t49.5 26
q-50 22 -76.5 60t-26.5 97q0 37 15 71.5t44.5 60.5t73.5 42t102 16z" />
    <glyph glyph-name="omicron" unicode="&#x3bf;" horiz-adv-x="553" 
d="M279 507q60 0 106 -21t76.5 -56.5t46 -81.5t15.5 -97q0 -59 -18 -107t-51 -82.5t-78 -53t-99 -18.5q-64 0 -110.5 22t-77 58.5t-45 83t-14.5 94.5q0 53 17 100t49.5 82.5t78.5 56t104 20.5zM273 391q-44 0 -73 -37t-29 -104q0 -66 28.5 -105t79.5 -39q44 0 73 36.5
t29 105.5q0 29 -6 55t-19.5 45.5t-34 31t-48.5 11.5z" />
    <glyph glyph-name="pi" unicode="&#x3c0;" horiz-adv-x="562" 
d="M73 0q-9 0 -6 8q9 28 13.5 64t5.5 70v239h-83q-8 0 -7 8l16 97q1 6 6 6q8 2 29.5 3.5t59.5 1.5h443q7 0 7 -7l-11 -101q0 -8 -7 -8h-67v-235q0 -51 5.5 -82t13.5 -54q3 -10 -7 -10h-120q-8 0 -12 8q-11 22 -15.5 58t-4.5 81v234h-114v-239q0 -42 -5.5 -78t-13.5 -57
q-3 -7 -12 -7h-114z" />
    <glyph glyph-name="rho" unicode="&#x3c1;" horiz-adv-x="556" 
d="M291 507q59 0 103 -21.5t73 -57t43.5 -81.5t14.5 -94q0 -57 -18 -105t-50.5 -83t-78.5 -55t-101 -20q-17 0 -39 3t-39 12v-184q0 -10 -9 -11q-14 -1 -33.5 -3t-38 -3.5t-32 -3t-16.5 -1.5q-5 0 -7.5 1.5t-2.5 8.5v467q0 109 62 170t169 61zM282 392q-35 0 -59 -23.5
t-24 -75.5v-161q30 -26 73 -26q20 0 40 7.5t36 25t26 45t10 68.5q0 67 -27 103.5t-75 36.5z" />
    <glyph glyph-name="uni03C2" unicode="&#x3c2;" horiz-adv-x="421" 
d="M30 241q0 55 19 103.5t53.5 84.5t83.5 57t109 21q69 0 100 -14q5 -2 5.5 -5t0.5 -7v-101q0 -11 -8 -7q-18 8 -41.5 11.5t-49.5 3.5q-63 0 -98 -37t-35 -97q0 -32 5.5 -55t19 -39.5t37 -28.5t59.5 -22q37 -10 61.5 -25t38.5 -33.5t20 -41.5t6 -48q0 -26 -8 -54.5
t-28 -53.5t-53.5 -43.5t-85.5 -24.5q-9 -2 -9 7v100q0 9 7 10q26 5 37 16t11 26q0 17 -13.5 27t-45.5 18q-109 25 -153.5 87t-44.5 165z" />
    <glyph glyph-name="sigma" unicode="&#x3c3;" horiz-adv-x="554" 
d="M30 245q0 58 16.5 104.5t48 79.5t78 50.5t106.5 17.5h284q7 0 6 -7l-9 -109q0 -6 -7 -6h-20t-28.5 0.5t-31 1.5t-26.5 2q21 -20 36 -60t15 -85q0 -62 -18.5 -107.5t-50 -76t-73.5 -45.5t-88 -15q-53 0 -96.5 18t-75 51.5t-49 80.5t-17.5 105zM267 390q-26 0 -44 -11
t-30 -30.5t-17.5 -45t-5.5 -55.5q0 -29 6 -54.5t18.5 -45t30.5 -31t42 -11.5q45 0 69.5 36.5t24.5 103.5q0 77 -25 110.5t-69 33.5z" />
    <glyph glyph-name="tau" unicode="&#x3c4;" horiz-adv-x="436" 
d="M141 381h-134q-6 0 -6 8l10 99q1 6 8 7q8 1 23 1.5t45 0.5h343q6 0 6 -6l-8 -103q-1 -7 -8 -7h-140v-239q0 -23 11 -31t29 -8q2 0 9.5 0.5t14.5 2.5q6 1 6 -6v-86q0 -5 -1.5 -7t-5.5 -4q-14 -6 -30.5 -9.5t-41.5 -3.5q-24 0 -47 5t-41.5 20t-30 42.5t-11.5 71.5v252z" />
    <glyph glyph-name="upsilon" unicode="&#x3c5;" horiz-adv-x="541" 
d="M451 497q7 0 11 -7q8 -16 14.5 -39.5t11.5 -51t8 -57.5t3 -60q0 -57 -11.5 -110t-39.5 -93.5t-73.5 -65t-114.5 -24.5q-45 0 -82.5 12t-64.5 36t-42 60t-15 84v158q0 45 -2.5 85.5t-7.5 64.5q-2 8 7 8h120q8 0 11 -7q2 -4 4 -15t3.5 -25.5t2 -30.5t0.5 -31v-204
q0 -42 21.5 -60.5t52.5 -18.5q49 0 70 40.5t21 133.5q0 32 -3 63.5t-8 59.5t-10.5 50.5t-10.5 36.5q-3 8 7 8h117z" />
    <glyph glyph-name="phi" unicode="&#x3c6;" horiz-adv-x="717" 
d="M419 650q7 0 7 -10v-136q57 -6 105 -25t82.5 -51t54 -77.5t19.5 -105.5t-20.5 -105t-55.5 -76.5t-83 -49.5t-102 -24v-172q0 -9 -8 -10q-6 -1 -25 -2t-39.5 -2.5t-37 -2.5t-18.5 -1q-7 0 -7 8v183q-56 6 -103.5 24.5t-82.5 50.5t-55 76t-20 101t20 103t55.5 79t83 52.5
t102.5 25.5v137q0 10 8 10h120zM291 396q-28 -3 -50 -16t-37.5 -33t-23.5 -46t-8 -55t8.5 -54t24 -44t37.5 -31t49 -15v294zM426 102q52 5 85.5 43t33.5 102q0 62 -30 103t-89 46v-294z" />
    <glyph glyph-name="chi" unicode="&#x3c7;" horiz-adv-x="462" 
d="M137 497q4 0 6 -0.5t4 -5.5q24 -58 47.5 -115t45.5 -111h1q7 17 18 42.5t23.5 55.5t26.5 62.5t27 63.5q3 8 11 8h118q10 0 6 -9l-161 -315l161 -340q5 -10 -4 -14q-14 -3 -34 -7.5t-39 -8t-33.5 -6.5t-16.5 -3q-5 0 -6.5 1t-4.5 6q-24 59 -52.5 127t-54.5 133h-3
q-8 -23 -38 -92t-74 -169q-1 -5 -7 -5q-2 0 -15.5 3t-31 6.5t-36 7.5t-29.5 7q-7 1 -4 9l167 342l-160 319q-5 8 5 8h137z" />
    <glyph glyph-name="psi" unicode="&#x3c8;" horiz-adv-x="726" 
d="M298 -11q-53 7 -94.5 24t-71.5 48t-48 77t-22 110q-4 61 -7.5 102t-6.5 67.5t-6 42.5t-5 29q-3 8 7 8h118q8 0 10 -6q3 -7 5.5 -21.5t5.5 -41.5t6.5 -70t8.5 -107q3 -38 11.5 -63.5t22 -41.5t30.5 -24t37 -11v490q0 7 8 7h121q4 0 6 -0.5t2 -5.5v-491q45 5 71.5 36
t31.5 103q8 111 12.5 170t9.5 69q2 5 4 6.5t7 1.5h110q9 0 7 -11q-2 -9 -3.5 -31.5t-4 -54.5t-6 -72.5t-7.5 -84.5q-6 -69 -26 -115t-50.5 -74.5t-70.5 -43.5t-85 -21v-170q0 -8 -7 -9q-12 -2 -32 -3.5t-39.5 -3t-34 -2.5t-17.5 -1q-8 0 -8 9v180z" />
    <glyph glyph-name="omega" unicode="&#x3c9;" horiz-adv-x="719" 
d="M426 192q0 -35 13 -55t39 -20q14 0 27 7.5t22.5 25t15.5 45t6 67.5q0 69 -19.5 128t-45.5 98q-2 3 -1.5 6t5.5 3h119q8 0 13 -5q12 -15 24.5 -39.5t22 -55t15.5 -66.5t6 -75q0 -65 -15.5 -114.5t-42.5 -83t-63 -51t-78 -17.5q-43 0 -79.5 20.5t-55.5 56.5
q-18 -32 -53 -54.5t-80 -22.5q-37 0 -71.5 15t-60.5 46.5t-42 79t-16 113.5q0 79 22.5 143.5t51.5 103.5q3 5 5 5.5t7 0.5h113q10 0 5 -10q-26 -41 -46.5 -103t-20.5 -130q0 -75 21.5 -106t49.5 -31q26 0 38.5 21t11.5 54l-2 165q0 8 9 8h125q8 0 8 -8z" />
    <glyph glyph-name="iotadieresis" unicode="&#x3ca;" horiz-adv-x="276" 
d="M199 141q0 -21 7.5 -29.5t25.5 -8.5h8.5t9.5 1q5 0 5 -7v-86q0 -10 -7 -12q-9 -4 -24 -6.5t-38 -2.5q-27 0 -50 6t-40 22t-26.5 42.5t-9.5 68.5v360q0 8 9 8h124q6 0 6 -6v-350zM42 559q-30 0 -49 18.5t-19 50.5q0 31 20 50.5t50 19.5q29 0 48 -19.5t19 -51.5t-19.5 -50
t-49.5 -18zM242 559q-29 0 -48 18.5t-19 50.5q0 31 20 50.5t49 19.5q30 0 48 -19.5t18 -51.5q0 -31 -19 -49.5t-49 -18.5z" />
    <glyph glyph-name="upsilondieresis" unicode="&#x3cb;" horiz-adv-x="541" 
d="M451 497q7 0 11 -7q8 -16 14.5 -39.5t11.5 -51t8 -57.5t3 -60q0 -57 -11.5 -110t-39.5 -93.5t-73.5 -65t-114.5 -24.5q-45 0 -82.5 12t-64.5 36t-42 60t-15 84v158q0 45 -2.5 85.5t-7.5 64.5q-2 8 7 8h120q8 0 11 -7q2 -4 4 -15t3.5 -25.5t2 -30.5t0.5 -31v-204
q0 -42 21.5 -60.5t52.5 -18.5q49 0 70 40.5t21 133.5q0 32 -3 63.5t-8 59.5t-10.5 50.5t-10.5 36.5q-3 8 7 8h117zM166 559q-30 0 -49 18.5t-19 50.5q0 31 20 50.5t50 19.5q29 0 48 -19.5t19 -51.5t-19.5 -50t-49.5 -18zM366 559q-29 0 -48 18.5t-19 50.5q0 31 20 50.5
t49 19.5q30 0 48 -19.5t18 -51.5q0 -31 -19 -49.5t-49 -18.5z" />
    <glyph glyph-name="omicrontonos" unicode="&#x3cc;" horiz-adv-x="553" 
d="M279 507q60 0 106 -21t76.5 -56.5t46 -81.5t15.5 -97q0 -59 -18 -107t-51 -82.5t-78 -53t-99 -18.5q-64 0 -110.5 22t-77 58.5t-45 83t-14.5 94.5q0 53 17 100t49.5 82.5t78.5 56t104 20.5zM273 391q-44 0 -73 -37t-29 -104q0 -66 28.5 -105t79.5 -39q44 0 73 36.5
t29 105.5q0 29 -6 55t-19.5 45.5t-34 31t-48.5 11.5zM282 712q5 10 12 10h134q11 0 5 -11l-123 -141q-5 -7 -14 -7h-107q-8 0 -4 8z" />
    <glyph glyph-name="upsilontonos" unicode="&#x3cd;" horiz-adv-x="541" 
d="M451 497q7 0 11 -7q8 -16 14.5 -39.5t11.5 -51t8 -57.5t3 -60q0 -57 -11.5 -110t-39.5 -93.5t-73.5 -65t-114.5 -24.5q-45 0 -82.5 12t-64.5 36t-42 60t-15 84v158q0 45 -2.5 85.5t-7.5 64.5q-2 8 7 8h120q8 0 11 -7q2 -4 4 -15t3.5 -25.5t2 -30.5t0.5 -31v-204
q0 -42 21.5 -60.5t52.5 -18.5q49 0 70 40.5t21 133.5q0 32 -3 63.5t-8 59.5t-10.5 50.5t-10.5 36.5q-3 8 7 8h117zM286 702q5 10 12 10h134q11 0 5 -11l-123 -141q-5 -7 -14 -7h-107q-8 0 -4 8z" />
    <glyph glyph-name="omegatonos" unicode="&#x3ce;" horiz-adv-x="719" 
d="M426 192q0 -35 13 -55t39 -20q14 0 27 7.5t22.5 25t15.5 45t6 67.5q0 69 -19.5 128t-45.5 98q-2 3 -1.5 6t5.5 3h119q8 0 13 -5q12 -15 24.5 -39.5t22 -55t15.5 -66.5t6 -75q0 -65 -15.5 -114.5t-42.5 -83t-63 -51t-78 -17.5q-43 0 -79.5 20.5t-55.5 56.5
q-18 -32 -53 -54.5t-80 -22.5q-37 0 -71.5 15t-60.5 46.5t-42 79t-16 113.5q0 79 22.5 143.5t51.5 103.5q3 5 5 5.5t7 0.5h113q10 0 5 -10q-26 -41 -46.5 -103t-20.5 -130q0 -75 21.5 -106t49.5 -31q26 0 38.5 21t11.5 54l-2 165q0 8 9 8h125q8 0 8 -8zM370 694q5 10 12 10
h134q11 0 5 -11l-123 -141q-5 -7 -14 -7h-107q-8 0 -4 8z" />
    </font>
</defs>
</svg>
